<?xml version="1.0" encoding="utf-8"?>
<!-- Generator: Adobe Illustrator 15.0.0, SVG Export Plug-In . SVG Version: 6.00 Build 0)  -->
<!DOCTYPE svg PUBLIC "-//W3C//DTD SVG 1.1//EN" "http://www.w3.org/Graphics/SVG/1.1/DTD/svg11.dtd">
<svg version="1.1" id="Layer_1" xmlns="http://www.w3.org/2000/svg" xmlns:xlink="http://www.w3.org/1999/xlink" x="0px" y="0px"
	 width="800px" height="600px" viewBox="0 0 800 600" enable-background="new 0 0 800 600" xml:space="preserve">
<g>
	<path d="M131.159,228.537h9.262v12.041h10.188v-12.041h9.262v33.344h-9.262v-12.967H140.42v12.967h-9.262V228.537z"/>
	<path d="M170.061,236.873h-6.947l0.926-8.336h21.303l0.926,8.336h-6.946v25.008h-9.262V236.873z"/>
	<path d="M194.606,236.873h-6.947l0.926-8.336h21.303l0.926,8.336h-6.946v25.008h-9.262V236.873z"/>
	<path d="M214.058,228.537h13.43c6.483,0,11.115,5.094,11.115,10.883c0,6.252-5.001,10.883-10.188,10.883h-5.094v11.578h-9.262
		V228.537z M225.172,242.894c2.779,0,4.168-1.389,4.168-3.473s-1.389-3.473-4.168-3.473h-1.853v6.946H225.172z"/>
	<path d="M243.235,240.578h8.336v8.336h-8.336V240.578z M243.235,253.545h8.336v8.336h-8.336V253.545z"/>
	<path d="M270.096,225.759h6.483l-14.356,40.753h-6.483L270.096,225.759z"/>
	<path d="M283.99,225.759h6.483l-14.356,40.753h-6.483L283.99,225.759z"/>
	<path d="M291.864,245.209c0-10.188,7.41-17.598,17.598-17.598c4.122,0,8.429,1.065,11.578,4.168l-4.631,7.873
		c-2.269-2.779-4.353-3.705-6.946-3.705c-4.631,0-8.336,3.705-8.336,9.262c0,5.558,3.705,9.262,8.336,9.262
		c2.64,0,5.094-1.389,6.946-4.168l5.094,7.41c-2.315,3.242-6.9,5.094-12.041,5.094C299.273,262.807,291.864,255.397,291.864,245.209
		z"/>
	<path d="M321.735,245.209c0-9.725,7.41-17.598,17.598-17.598s17.598,7.873,17.598,17.598s-7.41,17.598-17.598,17.598
		S321.735,254.934,321.735,245.209z M347.669,245.209c0-5.557-3.705-9.262-8.336-9.262s-8.336,3.705-8.336,9.262
		c0,5.558,3.705,9.262,8.336,9.262S347.669,250.767,347.669,245.209z"/>
	<path d="M361.102,228.537h12.967c7.409,0,16.209,5.558,16.209,16.672c0,10.188-8.8,16.672-16.209,16.672h-12.967V228.537z
		 M381.015,245.209c0-6.946-5.557-8.336-10.651-8.336v16.672C375.458,253.545,381.015,252.156,381.015,245.209z"/>
	<path d="M394.446,228.537h19.914l0.926,8.336h-11.577v4.168h10.188v7.873h-10.188v4.631h11.577l-0.926,8.336h-19.914V228.537z"/>
	<path d="M419.456,241.736h12.504v6.947h-12.504V241.736z"/>
	<path d="M440.759,236.873h-6.946l0.927-8.336h21.303l0.926,8.336h-6.946v25.008h-9.263V236.873z"/>
	<path d="M467.158,251.229l-9.726-22.692h9.726l4.584,12.967h0.093l4.585-12.967h9.726l-9.726,22.692v10.651h-9.262V251.229z"/>
	<path d="M488.925,228.537h13.431c6.483,0,11.114,5.094,11.114,10.883c0,6.252-5.002,10.883-10.188,10.883h-5.094v11.578h-9.263
		V228.537z M500.04,242.894c2.778,0,4.168-1.389,4.168-3.473s-1.39-3.473-4.168-3.473h-1.853v6.946H500.04z"/>
	<path d="M516.713,228.537h19.914l0.926,8.336h-11.577v4.168h10.188v7.873h-10.188v4.631h11.577l-0.926,8.336h-19.914V228.537z"/>
	<path d="M544.038,253.545h8.336v8.336h-8.336V253.545z"/>
	<path d="M557.932,245.209c0-10.188,7.409-17.598,17.598-17.598c4.122,0,8.429,1.065,11.577,4.168l-4.631,7.873
		c-2.269-2.779-4.353-3.705-6.946-3.705c-4.631,0-8.336,3.705-8.336,9.262c0,5.558,3.705,9.262,8.336,9.262
		c2.64,0,5.094-1.389,6.946-4.168l5.095,7.41c-2.315,3.242-6.9,5.094-12.041,5.094C565.341,262.807,557.932,255.397,557.932,245.209
		z"/>
	<path d="M587.804,245.209c0-9.725,7.409-17.598,17.598-17.598s17.598,7.873,17.598,17.598s-7.409,17.598-17.598,17.598
		S587.804,254.934,587.804,245.209z M613.737,245.209c0-5.557-3.705-9.262-8.336-9.262s-8.336,3.705-8.336,9.262
		c0,5.558,3.705,9.262,8.336,9.262S613.737,250.767,613.737,245.209z"/>
	<path d="M627.169,228.537h9.263l8.336,12.967l8.336-12.967h9.262v33.344h-9.262v-17.135h-0.093l-8.243,11.578l-8.243-11.578h-0.093
		v17.135h-9.263V228.537z"/>
</g>
</svg>
