<?xml version="1.0" encoding="utf-8"?>
<!-- Generator: Adobe Illustrator 15.0.0, SVG Export Plug-In . SVG Version: 6.00 Build 0)  -->
<!DOCTYPE svg PUBLIC "-//W3C//DTD SVG 1.1//EN" "http://www.w3.org/Graphics/SVG/1.1/DTD/svg11.dtd">
<svg version="1.1" id="Layer_1" xmlns="http://www.w3.org/2000/svg" xmlns:xlink="http://www.w3.org/1999/xlink" x="0px" y="0px"
	 width="612px" height="792px" viewBox="0 0 612 792" enable-background="new 0 0 612 792" xml:space="preserve">
<g>
	<path fill="#FC00FF" d="M207.742,209.5l-7.362,0.001l-3.082-9.534h-18.02l-3.151,9.533h-7.361l16.704-47.467h5.568L207.742,209.5z
		 M195.299,193.9l-6.875-21.083l-7.079,21.083H195.299z"/>
	<path fill="#FC00FF" d="M249.597,199.167c0,3.423-1.248,6.067-3.744,7.934c-2.496,1.867-5.75,2.8-9.76,2.8
		c-2.944,0-5.398-0.312-7.36-0.934c-2.347-0.755-4.438-2.067-6.272-3.934l4.288-4.466c1.194,1.29,2.602,2.2,4.224,2.733
		c1.621,0.534,3.328,0.8,5.12,0.8c2.09,0,3.797-0.389,5.12-1.167c1.322-0.777,1.984-1.943,1.984-3.5
		c0-1.244-0.342-2.222-1.024-2.933c-0.683-0.71-1.792-1.067-3.328-1.067l-5.184-0.466c-3.158-0.267-5.547-1.155-7.168-2.667
		c-1.622-1.51-2.432-3.733-2.432-6.667c0-3.244,1.141-5.777,3.424-7.6c2.282-1.822,5.216-2.733,8.8-2.733
		c2.517,0,4.778,0.3,6.784,0.9c2.005,0.6,3.754,1.566,5.248,2.9l-4.096,4.333c-0.939-0.844-2.123-1.466-3.552-1.866
		c-1.43-0.4-2.912-0.6-4.448-0.6c-1.92,0-3.382,0.39-4.384,1.167c-1.003,0.778-1.504,1.833-1.504,3.167
		c0,1.112,0.33,1.99,0.992,2.633c0.661,0.645,1.824,1.057,3.488,1.233l5.12,0.467c3.157,0.267,5.557,1.178,7.2,2.733
		C248.775,193.923,249.597,196.189,249.597,199.167z"/>
	<path fill="#FC00FF" d="M280.462,175.7l-14.353,40.533c-0.598,1.777-1.355,3.144-2.272,4.1c-0.918,0.955-1.931,1.622-3.04,2
		c-1.11,0.377-2.347,0.567-3.712,0.567h-2.624v-6.067h1.664c1.364,0,2.356-0.246,2.975-0.738c0.618-0.492,1.183-1.455,1.695-2.889
		l1.792-5.305L251.261,175.7l6.948-0.014l7.72,23.689l7.557-23.67L280.462,175.7z"/>
	<path fill="#FC00FF" d="M308.283,199.167c0,3.423-1.248,6.067-3.742,7.934c-2.496,1.867-5.75,2.8-9.762,2.8
		c-2.943,0-5.397-0.312-7.359-0.934c-2.347-0.755-4.438-2.067-6.272-3.934l4.288-4.466c1.194,1.29,2.602,2.2,4.224,2.733
		c1.621,0.534,3.328,0.8,5.119,0.8c2.09,0,3.797-0.389,5.121-1.167c1.322-0.777,1.984-1.943,1.984-3.5
		c0-1.244-0.342-2.222-1.025-2.933c-0.682-0.71-1.791-1.067-3.328-1.067l-5.183-0.466c-3.158-0.267-5.547-1.155-7.168-2.667
		c-1.622-1.51-2.432-3.733-2.432-6.667c0-3.244,1.141-5.777,3.424-7.6c2.282-1.822,5.216-2.733,8.801-2.733
		c2.516,0,4.777,0.3,6.783,0.9c2.006,0.6,3.754,1.566,5.248,2.9l-4.096,4.333c-0.939-0.844-2.123-1.466-3.553-1.866
		s-2.912-0.6-4.447-0.6c-1.92,0-3.382,0.39-4.384,1.167c-1.003,0.778-1.504,1.833-1.504,3.167c0,1.112,0.33,1.99,0.992,2.633
		c0.661,0.645,1.824,1.057,3.488,1.233l5.119,0.467c3.158,0.267,5.559,1.178,7.201,2.733
		C307.463,193.923,308.283,196.189,308.283,199.167z"/>
	<path fill="#FC00FF" d="M328.188,209.5h-3.903c-2.858,0-5.099-0.955-6.72-2.867c-1.451-1.733-2.176-3.91-2.176-6.533v-18.6h-3.713
		v-5.2h3.713v-10.267h6.527V176.3h6.271v5.2h-6.271v18.267c0,2.623,1.193,3.934,3.584,3.934h2.688V209.5L328.188,209.5z"/>
	<path fill="#FC00FF" d="M360.764,194.567h-20.992c0,2.978,0.713,5.3,2.145,6.966c1.429,1.667,3.466,2.5,6.111,2.5
		c1.791,0,3.242-0.255,4.353-0.767c1.108-0.51,2.282-1.41,3.521-2.7l4.16,4.066c-1.75,1.823-3.531,3.156-5.345,4
		c-1.813,0.845-4.086,1.267-6.815,1.267c-4.479,0-7.943-1.267-10.391-3.8c-2.844-2.889-4.267-7.4-4.267-13.533
		c0-5.422,1.237-9.655,3.713-12.7c2.474-3.044,5.823-4.567,10.048-4.567c4.266,0,7.626,1.5,10.08,4.5
		c2.453,3,3.68,6.923,3.68,11.767V194.567L360.764,194.567z M354.299,189.833c0-1.644-0.277-3.144-0.828-4.5
		c-0.553-1.355-1.392-2.422-2.518-3.2c-1.127-0.777-2.434-1.167-3.919-1.167c-1.529,0-2.847,0.378-3.95,1.133
		c-1.104,0.756-1.934,1.8-2.484,3.133c-0.552,1.333-0.828,2.867-0.828,4.6L354.299,189.833L354.299,189.833z"/>
	<path fill="#FC00FF" d="M413.882,209.5h-6.526v-20.6c0-2.533-0.6-4.422-1.793-5.667c-1.194-1.244-2.773-1.867-4.735-1.867
		c-1.92,0-3.521,0.611-4.8,1.833c-1.28,1.223-1.92,3.011-1.92,5.367V209.5h-6.528v-20.6c0-2.533-0.604-4.422-1.81-5.667
		c-1.207-1.244-2.802-1.867-4.781-1.867c-1.982,0-3.609,0.633-4.879,1.9c-1.271,1.267-1.906,3.145-1.906,5.633v20.6h-6.4v-33.8h6.4
		v3.4c1.066-1.2,2.367-2.133,3.904-2.8c1.535-0.667,3.112-1,4.734-1c4.098,0,7.168,1.645,9.217,4.934
		c2.603-3.289,5.993-4.934,10.177-4.934c1.664,0,3.199,0.267,4.606,0.8c1.408,0.533,2.604,1.29,3.584,2.267
		c1.152,1.2,2.018,2.611,2.593,4.233c0.575,1.623,0.863,3.39,0.863,5.3V209.5L413.882,209.5z"/>
	<g>
		<path fill="#FC00FF" d="M183.991,292.7h-4.032c-2.944,0-5.206-0.934-6.784-2.8c-1.408-1.645-2.112-3.822-2.112-6.533v-38.134
			h6.528v37.732c0,1.333,0.266,2.323,0.8,2.968c0.533,0.645,1.44,0.967,2.72,0.967h2.88V292.7L183.991,292.7z"/>
		<path fill="#FC00FF" d="M215.094,275.767c0,3.066-0.278,5.667-0.832,7.8c-0.555,2.134-1.558,3.979-3.008,5.534
			c-1.152,1.243-2.528,2.223-4.128,2.933c-1.6,0.711-3.467,1.067-5.6,1.067c-2.091,0-3.936-0.356-5.536-1.067
			c-1.6-0.71-2.976-1.688-4.128-2.933c-1.451-1.602-2.454-3.444-3.008-5.534c-0.555-2.088-0.832-4.688-0.832-7.8
			c0-3.021,0.277-5.601,0.832-7.733c0.554-2.133,1.557-3.977,3.008-5.533c1.152-1.243,2.517-2.222,4.096-2.934
			c1.578-0.71,3.434-1.066,5.568-1.066c2.09,0,3.946,0.356,5.568,1.066c1.621,0.712,3.008,1.689,4.16,2.934
			c1.45,1.602,2.453,3.445,3.008,5.533C214.816,270.123,215.094,272.7,215.094,275.767z M208.566,275.767
			c0-2.354-0.107-4.089-0.32-5.2c-0.342-1.732-0.982-3.088-1.92-4.066c-1.238-1.288-2.838-1.934-4.8-1.934
			c-1.92,0-3.499,0.646-4.736,1.934c-0.896,0.935-1.494,2.167-1.792,3.7c-0.299,1.533-0.448,3.39-0.448,5.566
			c0,2.355,0.138,4.244,0.416,5.667c0.277,1.423,0.885,2.623,1.824,3.6c1.28,1.334,2.858,2,4.736,2c1.92,0,3.52-0.666,4.8-2
			c0.896-0.933,1.493-2.166,1.792-3.699C208.416,279.8,208.566,277.945,208.566,275.767z"/>
		<path fill="#FC00FF" d="M247.861,275.767c0,3.066-0.278,5.667-0.832,7.8c-0.555,2.134-1.558,3.979-3.008,5.534
			c-1.152,1.243-2.528,2.223-4.128,2.933c-1.6,0.711-3.467,1.067-5.6,1.067c-2.091,0-3.936-0.356-5.536-1.067
			c-1.6-0.71-2.976-1.688-4.128-2.933c-1.451-1.602-2.454-3.444-3.008-5.534c-0.555-2.088-0.832-4.688-0.832-7.8
			c0-3.021,0.277-5.601,0.832-7.733c0.554-2.133,1.557-3.977,3.008-5.533c1.152-1.243,2.517-2.222,4.096-2.934
			c1.578-0.71,3.434-1.066,5.568-1.066c2.09,0,3.946,0.356,5.568,1.066c1.621,0.712,3.008,1.689,4.16,2.934
			c1.45,1.602,2.453,3.445,3.008,5.533C247.583,270.123,247.861,272.7,247.861,275.767z M241.333,275.767
			c0-2.354-0.107-4.089-0.32-5.2c-0.342-1.732-0.982-3.088-1.92-4.066c-1.238-1.288-2.838-1.934-4.8-1.934
			c-1.92,0-3.499,0.646-4.736,1.934c-0.896,0.935-1.494,2.167-1.792,3.7c-0.299,1.533-0.448,3.39-0.448,5.566
			c0,2.355,0.138,4.244,0.416,5.667c0.277,1.423,0.885,2.623,1.824,3.6c1.28,1.334,2.858,2,4.736,2c1.92,0,3.52-0.666,4.8-2
			c0.896-0.933,1.493-2.166,1.792-3.699C241.183,279.8,241.333,277.945,241.333,275.767z"/>
		<path fill="#FC00FF" d="M283.574,292.699l-8.119,0.037l-9.02-15.604l-4.758,5.683l-0.056,9.885h-6.528v-47.467h6.528V274.5
			l12.608-15.6l7.943,0.006l-11.285,13.237L283.574,292.699z"/>
		<path fill="#FC00FF" d="M295.284,252.3h-6.912v-7.198h6.912V252.3z M295.092,292.7h-6.528v-33.733h6.528V292.7L295.092,292.7z"/>
		<path fill="#FC00FF" d="M330.164,292.7h-6.529v-20.6c0-2.534-0.604-4.423-1.809-5.667c-1.207-1.244-2.801-1.867-4.781-1.867
			c-1.982,0-3.608,0.634-4.879,1.899c-1.271,1.268-1.906,3.146-1.906,5.635v20.6h-6.4v-33.8h6.4v3.398
			c2.261-2.532,5.141-3.8,8.639-3.8c1.664,0,3.168,0.257,4.515,0.768c1.344,0.512,2.506,1.277,3.485,2.3
			c1.195,1.2,2.037,2.578,2.529,4.134c0.49,1.557,0.736,3.356,0.736,5.4V292.7z"/>
		<path fill="#FC00FF" d="M363.379,292.5c0,4.178-1.259,7.602-3.775,10.268c-2.519,2.667-5.889,4-10.111,4
			c-2.434,0-4.523-0.333-6.271-1c-1.75-0.666-3.479-1.822-5.185-3.468l4.159-4.333c1.109,1.066,2.164,1.833,3.168,2.301
			c1.003,0.467,2.293,0.699,3.871,0.699c2.604,0,4.565-0.861,5.89-2.586c1.151-1.505,1.728-3.494,1.728-5.969v-4.312
			c-1.108,1.354-2.347,2.324-3.711,2.915c-1.367,0.59-2.924,0.885-4.673,0.885c-1.579,0-3.03-0.256-4.352-0.768
			c-1.323-0.511-2.454-1.256-3.394-2.232c-1.451-1.511-2.422-3.344-2.912-5.5c-0.49-2.155-0.734-4.9-0.734-8.233
			c0-3.289,0.244-6.021,0.734-8.2c0.49-2.177,1.461-4.021,2.912-5.532c1.877-1.955,4.48-2.935,7.809-2.935
			c1.835,0,3.412,0.284,4.736,0.854c1.321,0.567,2.58,1.596,3.775,3.081v-3.533h6.336V292.5L363.379,292.5z M356.852,275.167
			c0-4.294-0.619-7.2-1.855-8.721c-1.066-1.297-2.646-1.946-4.736-1.946c-2.646,0-4.48,1.096-5.504,3.288
			c-0.77,1.655-1.152,4.114-1.152,7.379c0,3.312,0.362,5.748,1.088,7.312c1.024,2.235,2.881,3.354,5.568,3.354
			c2.645,0,4.479-1.097,5.504-3.288C356.486,280.981,356.852,278.521,356.852,275.167z"/>
		<path fill="#FC00FF" d="M409.777,292.7h-6.399v-3.066c-1.237,1.289-2.476,2.189-3.712,2.7c-1.238,0.51-2.88,0.768-4.93,0.768
			c-3.84,0-6.74-1.022-8.703-3.067c-1.706-1.866-2.561-4.288-2.561-7.267c0-2.934,0.967-5.288,2.898-7.066
			c1.932-1.777,4.725-2.667,8.374-2.667h8.632v-2.399c0-2.178-0.561-3.776-1.68-4.8c-1.119-1.022-2.948-1.534-5.488-1.534
			c-1.768,0-3.177,0.233-4.23,0.7c-1.055,0.468-2.033,1.323-2.938,2.566l-4.288-4.199c1.493-1.777,3.125-3.033,4.896-3.767
			c1.771-0.734,4.021-1.102,6.752-1.102c8.918,0,13.377,3.867,13.377,11.602V292.7L409.777,292.7z M403.378,280.5v-2.732h-7.688
			c-3.92,0-5.879,1.623-5.879,4.866c0,3.2,2.002,4.801,6.008,4.801c1.552,0,2.746-0.11,3.586-0.333
			c0.841-0.224,1.712-0.789,2.617-1.7C402.925,284.49,403.378,282.856,403.378,280.5z"/>
		<path fill="#FC00FF" d="M431.794,292.7h-3.904c-2.857,0-5.099-0.955-6.72-2.866c-1.451-1.732-2.176-3.911-2.176-6.534v-18.6
			h-3.712v-5.2h3.712v-10.267h6.528V259.5h6.271v5.2h-6.271v18.267c0,2.623,1.192,3.935,3.584,3.935h2.688V292.7L431.794,292.7z"/>
	</g>
</g>
<g>
	<path fill="#FC00FF" d="M443.529,169.4h-6.912v-7.199h6.912V169.4z M443.338,209.8h-6.528v-33.733h6.528V209.8z"/>
	<path fill="#FC00FF" d="M476.104,199.467c0,3.423-1.248,6.066-3.743,7.933c-2.496,1.867-5.75,2.801-9.761,2.801
		c-2.944,0-5.397-0.312-7.36-0.934c-2.347-0.755-4.438-2.066-6.271-3.934l4.288-4.467c1.194,1.29,2.603,2.2,4.224,2.733
		c1.621,0.533,3.328,0.8,5.12,0.8c2.09,0,3.797-0.388,5.12-1.166c1.322-0.777,1.984-1.944,1.984-3.5
		c0-1.244-0.342-2.222-1.024-2.934c-0.683-0.71-1.792-1.066-3.328-1.066l-5.185-0.467c-3.157-0.267-5.547-1.155-7.168-2.667
		c-1.621-1.51-2.432-3.733-2.432-6.666c0-3.244,1.141-5.777,3.424-7.601c2.282-1.821,5.217-2.733,8.801-2.733
		c2.517,0,4.777,0.3,6.783,0.9c2.006,0.6,3.754,1.566,5.248,2.899l-4.096,4.334c-0.939-0.844-2.123-1.467-3.552-1.867
		c-1.431-0.399-2.912-0.6-4.448-0.6c-1.92,0-3.382,0.39-4.384,1.167c-1.003,0.777-1.504,1.833-1.504,3.166
		c0,1.111,0.329,1.99,0.991,2.634c0.662,0.645,1.824,1.056,3.488,1.233l5.12,0.467c3.157,0.267,5.558,1.178,7.2,2.732
		C475.283,194.223,476.104,196.489,476.104,199.467z"/>
	<path fill="#FC00FF" d="M520.072,209.8h-6.399v-3.066c-1.238,1.289-2.476,2.189-3.712,2.7c-1.238,0.51-2.881,0.767-4.928,0.767
		c-3.84,0-6.742-1.022-8.705-3.067c-1.707-1.866-2.56-4.288-2.56-7.267c0-2.933,0.966-5.288,2.897-7.066
		c1.933-1.777,4.725-2.667,8.375-2.667h8.632v-2.399c0-2.178-0.56-3.777-1.679-4.8c-1.121-1.022-2.949-1.534-5.489-1.534
		c-1.767,0-3.177,0.233-4.229,0.7c-1.056,0.467-2.035,1.323-2.938,2.566l-4.288-4.199c1.492-1.777,3.125-3.033,4.896-3.767
		c1.77-0.733,4.021-1.101,6.752-1.101c8.916,0,13.375,3.867,13.375,11.601V209.8L520.072,209.8z M513.672,197.6v-2.733h-7.689
		c-3.92,0-5.879,1.623-5.879,4.867c0,3.2,2.003,4.8,6.01,4.8c1.549,0,2.744-0.11,3.584-0.333s1.713-0.789,2.617-1.7
		C513.22,201.59,513.672,199.956,513.672,197.6z"/>
	<path fill="#FC00FF" d="M584.136,176l-10.113,33.8l-5.577,0.003l-7.619-23.574l-7.547,23.568l-5.625,0.003L537.607,176l6.901,0.003
		l6.274,23.818L558.344,176h5.048l7.476,23.735l6.297-23.734L584.136,176z"/>
	<path fill="#FC00FF" d="M612.103,209.8h-6.398v-3.066c-1.238,1.289-2.477,2.189-3.713,2.7c-1.237,0.51-2.879,0.767-4.929,0.767
		c-3.84,0-6.741-1.022-8.704-3.067c-1.705-1.866-2.56-4.288-2.56-7.267c0-2.933,0.966-5.288,2.897-7.066
		c1.933-1.777,4.725-2.667,8.375-2.667h8.631v-2.399c0-2.178-0.561-3.777-1.68-4.8s-2.947-1.534-5.488-1.534
		c-1.767,0-3.177,0.233-4.229,0.7c-1.056,0.467-2.034,1.323-2.938,2.566l-4.287-4.199c1.492-1.777,3.125-3.033,4.896-3.767
		c1.771-0.734,4.021-1.101,6.752-1.101c8.917,0,13.376,3.867,13.376,11.601V209.8L612.103,209.8z M605.702,197.6v-2.733h-7.688
		c-3.92,0-5.879,1.623-5.879,4.867c0,3.2,2.003,4.8,6.009,4.8c1.551,0,2.745-0.11,3.585-0.333c0.841-0.223,1.712-0.789,2.617-1.7
		C605.249,201.59,605.702,199.956,605.702,197.6z"/>
	<path fill="#FC00FF" d="M645.079,176l-14.353,40.533c-0.599,1.777-1.354,3.144-2.272,4.1c-0.918,0.955-1.931,1.622-3.039,2
		c-1.109,0.377-2.348,0.567-3.713,0.567h-2.623v-6.067h1.664c1.363,0,2.355-0.246,2.975-0.738c0.619-0.492,1.184-1.455,1.695-2.889
		l1.791-5.305L615.879,176l6.948-0.014l7.72,23.689l7.558-23.67L645.079,176z"/>
	<path fill="#FC00FF" d="M688.197,192.866c0,3.067-0.276,5.667-0.832,7.8c-0.555,2.134-1.558,3.979-3.008,5.534
		c-1.151,1.244-2.527,2.223-4.128,2.933c-1.6,0.711-3.467,1.067-5.6,1.067c-2.092,0-3.938-0.356-5.536-1.067
		c-1.601-0.71-2.978-1.688-4.128-2.933c-1.451-1.601-2.454-3.444-3.008-5.534c-0.557-2.088-0.832-4.688-0.832-7.8
		c0-3.021,0.275-5.6,0.832-7.733c0.554-2.133,1.557-3.977,3.008-5.533c1.15-1.243,2.517-2.222,4.096-2.934
		c1.578-0.71,3.434-1.066,5.568-1.066c2.09,0,3.944,0.356,5.566,1.066c1.621,0.712,3.009,1.69,4.16,2.934
		c1.45,1.601,2.453,3.445,3.008,5.533C687.92,187.223,688.197,189.8,688.197,192.866z M681.67,192.866c0-2.354-0.107-4.088-0.32-5.2
		c-0.342-1.732-0.981-3.088-1.92-4.066c-1.238-1.288-2.838-1.934-4.8-1.934c-1.92,0-3.499,0.646-4.736,1.934
		c-0.896,0.934-1.494,2.167-1.792,3.7c-0.299,1.533-0.448,3.39-0.448,5.566c0,2.356,0.139,4.245,0.416,5.667
		c0.277,1.423,0.885,2.623,1.824,3.6c1.28,1.334,2.857,2,4.736,2c1.92,0,3.52-0.666,4.8-2c0.896-0.933,1.493-2.166,1.792-3.699
		C681.52,196.9,681.67,195.045,681.67,192.866z"/>
	<path fill="#FC00FF" d="M709.444,181.8h-6.464v28h-6.527v-28h-3.713v-5.2h3.713v-5.2c0-2.666,0.703-4.844,2.111-6.533
		c1.621-1.91,3.882-2.866,6.783-2.866h4.097v5.8h-2.88c-2.391,0-3.584,1.312-3.584,3.934v4.866h6.464V181.8z"/>
</g>
<g>
	<path fill="#FC00FF" d="M478.011,291.532h-6.4v-3.066c-1.238,1.289-2.475,2.189-3.712,2.7c-1.238,0.51-2.88,0.768-4.929,0.768
		c-3.84,0-6.742-1.022-8.703-3.067c-1.707-1.866-2.561-4.288-2.561-7.267c0-2.934,0.967-5.288,2.898-7.066
		c1.932-1.777,4.724-2.667,8.373-2.667h8.633v-2.399c0-2.178-0.561-3.776-1.68-4.8c-1.119-1.021-2.948-1.534-5.488-1.534
		c-1.766,0-3.176,0.233-4.23,0.7s-2.033,1.323-2.938,2.566l-4.288-4.199c1.493-1.777,3.125-3.033,4.896-3.767
		s4.021-1.102,6.752-1.102c8.918,0,13.377,3.867,13.377,11.602V291.532L478.011,291.532z M471.61,279.332V276.6h-7.689
		c-3.92,0-5.879,1.623-5.879,4.866c0,3.2,2.004,4.801,6.01,4.801c1.549,0,2.744-0.11,3.584-0.333c0.84-0.224,1.713-0.789,2.617-1.7
		S471.61,281.688,471.61,279.332z"/>
	<path fill="#FC00FF" d="M512.761,291.532h-6.527v-20.6c0-2.534-0.604-4.423-1.811-5.667c-1.205-1.244-2.8-1.867-4.781-1.867
		s-3.608,0.634-4.879,1.899c-1.271,1.268-1.905,3.146-1.905,5.635v20.6h-6.4v-33.8h6.4v3.398c2.261-2.532,5.141-3.8,8.64-3.8
		c1.664,0,3.168,0.257,4.512,0.768c1.344,0.512,2.506,1.277,3.488,2.3c1.194,1.2,2.037,2.578,2.528,4.134
		c0.489,1.557,0.735,3.356,0.735,5.4V291.532L512.761,291.532z"/>
	<path fill="#FC00FF" d="M560.505,274.599c0,3.066-0.277,5.667-0.832,7.8c-0.555,2.134-1.558,3.979-3.008,5.534
		c-1.152,1.243-2.527,2.223-4.128,2.933c-1.601,0.711-3.467,1.067-5.601,1.067c-2.09,0-3.936-0.356-5.535-1.067
		c-1.6-0.71-2.977-1.688-4.128-2.933c-1.451-1.602-2.454-3.444-3.009-5.534c-0.555-2.088-0.832-4.688-0.832-7.8
		c0-3.021,0.277-5.601,0.832-7.733s1.558-3.977,3.009-5.533c1.151-1.243,2.517-2.222,4.096-2.934
		c1.578-0.71,3.435-1.066,5.567-1.066c2.091,0,3.947,0.356,5.568,1.066c1.621,0.712,3.008,1.689,4.16,2.934
		c1.45,1.602,2.453,3.445,3.008,5.533C560.228,268.955,560.505,271.532,560.505,274.599z M553.978,274.599
		c0-2.354-0.107-4.089-0.32-5.2c-0.342-1.732-0.982-3.088-1.92-4.066c-1.238-1.288-2.838-1.934-4.801-1.934
		c-1.92,0-3.498,0.646-4.735,1.934c-0.896,0.935-1.494,2.167-1.792,3.7c-0.299,1.533-0.447,3.39-0.447,5.566
		c0,2.355,0.137,4.244,0.416,5.667c0.276,1.423,0.885,2.623,1.823,3.6c1.28,1.334,2.858,2,4.735,2c1.921,0,3.521-0.666,4.801-2
		c0.896-0.933,1.493-2.166,1.792-3.699C553.827,278.632,553.978,276.777,553.978,274.599z"/>
	<path fill="#FC00FF" d="M594.296,274.599c0,3.29-0.191,5.89-0.576,7.8c-0.555,2.801-1.578,4.979-3.071,6.534
		c-1.921,2-4.566,3-7.937,3c-1.877,0-3.478-0.29-4.8-0.867c-1.323-0.577-2.582-1.622-3.776-3.133v3.6h-6.399v-47.467h6.399v17.066
		c1.117-1.377,2.362-2.354,3.736-2.933c1.374-0.577,2.984-0.867,4.83-0.867c3.35,0,5.99,1,7.923,3
		c1.46,1.512,2.47,3.667,3.027,6.467C594.081,268.933,594.296,271.532,594.296,274.599z M587.769,274.599
		c0-3.556-0.389-6.178-1.163-7.866c-1.034-2.222-2.907-3.334-5.621-3.334s-4.587,1.111-5.62,3.334
		c-0.818,1.732-1.229,4.355-1.229,7.866c0,3.601,0.388,6.224,1.164,7.866c1.075,2.268,2.971,3.399,5.685,3.399
		s4.587-1.11,5.621-3.333C587.38,280.845,587.769,278.199,587.769,274.599z"/>
	<path fill="#FC00FF" d="M608.056,295.958c0,2.658-0.705,4.83-2.112,6.517c-1.579,1.859-3.841,2.792-6.784,2.792h-4.031v-5.801
		h2.879c1.28,0,2.187-0.321,2.721-0.964c0.533-0.643,0.8-1.628,0.8-2.957v-37.746h6.528V295.958z M608.247,251.132h-6.912v-7.199
		h6.912V251.132z"/>
	<path fill="#FC00FF" d="M642.68,276.599h-20.993c0,2.979,0.715,5.3,2.146,6.967c1.43,1.667,3.467,2.5,6.111,2.5
		c1.792,0,3.242-0.255,4.354-0.768c1.107-0.511,2.281-1.409,3.52-2.699l4.16,4.066c-1.75,1.822-3.531,3.156-5.344,4
		c-1.814,0.845-4.086,1.268-6.816,1.268c-4.479,0-7.943-1.268-10.39-3.802c-2.845-2.888-4.268-7.398-4.268-13.532
		c0-5.423,1.236-9.655,3.713-12.7c2.475-3.043,5.823-4.566,10.048-4.566c4.266,0,7.627,1.5,10.08,4.5s3.68,6.923,3.68,11.768
		V276.599L642.68,276.599z M636.217,271.865c0-1.644-0.277-3.144-0.83-4.5c-0.551-1.354-1.391-2.422-2.517-3.199
		c-1.127-0.776-2.433-1.167-3.919-1.167c-1.529,0-2.847,0.378-3.95,1.133c-1.104,0.758-1.934,1.802-2.484,3.135
		s-0.828,2.865-0.828,4.6L636.217,271.865L636.217,271.865z"/>
	<path fill="#FC00FF" d="M673.206,287.132c-2.901,3.2-6.464,4.802-10.688,4.802c-4.096,0-7.424-1.289-9.983-3.867
		c-2.987-3.021-4.479-7.511-4.479-13.467c0-5.91,1.492-10.377,4.479-13.399c2.56-2.577,5.888-3.867,9.983-3.867
		c2.305,0,4.267,0.356,5.889,1.066c1.621,0.712,3.221,1.934,4.8,3.667l-4.479,4.533c-1.877-2.134-3.946-3.2-6.207-3.2
		c-2.562,0-4.566,1-6.018,3c-1.279,1.689-1.92,4.424-1.92,8.2c0,3.822,0.641,6.577,1.92,8.267c1.45,2,3.456,3,6.018,3
		c1.32,0,2.408-0.222,3.264-0.666c0.854-0.444,1.834-1.289,2.943-2.533L673.206,287.132z"/>
	<path fill="#FC00FF" d="M692.725,291.532h-3.903c-2.858,0-5.099-0.955-6.72-2.866c-1.451-1.732-2.176-3.911-2.176-6.534v-18.6
		h-3.713v-5.2h3.713v-10.267h6.527v10.267h6.271v5.2h-6.271v18.267c0,2.623,1.193,3.935,3.584,3.935h2.688V291.532L692.725,291.532z
		"/>
</g>
<g>
	<path fill="#FC00FF" d="M195.07,376.166h-6.398V373.1c-1.238,1.289-2.477,2.189-3.713,2.7c-1.237,0.51-2.88,0.768-4.929,0.768
		c-3.84,0-6.741-1.022-8.704-3.067c-1.705-1.866-2.56-4.288-2.56-7.267c0-2.934,0.966-5.288,2.897-7.066
		c1.933-1.777,4.725-2.667,8.374-2.667h8.632v-2.399c0-2.178-0.561-3.776-1.68-4.8c-1.119-1.022-2.948-1.534-5.488-1.534
		c-1.767,0-3.177,0.233-4.229,0.7c-1.055,0.467-2.034,1.323-2.938,2.566l-4.287-4.199c1.492-1.777,3.125-3.033,4.896-3.767
		c1.771-0.734,4.021-1.102,6.752-1.102c8.917,0,13.376,3.867,13.376,11.602V376.166L195.07,376.166z M188.671,363.966v-2.732h-7.689
		c-3.92,0-5.879,1.623-5.879,4.866c0,3.2,2.003,4.801,6.009,4.801c1.551,0,2.745-0.11,3.585-0.333
		c0.841-0.224,1.712-0.789,2.617-1.7C188.217,367.956,188.671,366.322,188.671,363.966z"/>
	<path fill="#FC00FF" d="M227.517,365.833c0,3.423-1.248,6.066-3.743,7.933c-2.496,1.867-5.75,2.802-9.761,2.802
		c-2.943,0-5.397-0.312-7.359-0.935c-2.348-0.755-4.438-2.065-6.271-3.934l4.287-4.467c1.194,1.29,2.604,2.199,4.225,2.732
		s3.328,0.8,5.12,0.8c2.09,0,3.797-0.388,5.12-1.166c1.321-0.776,1.983-1.943,1.983-3.5c0-1.243-0.342-2.222-1.023-2.934
		c-0.684-0.71-1.792-1.066-3.328-1.066l-5.185-0.467c-3.157-0.267-5.547-1.155-7.168-2.667c-1.622-1.51-2.432-3.732-2.432-6.666
		c0-3.244,1.141-5.776,3.424-7.601c2.281-1.821,5.216-2.733,8.8-2.733c2.518,0,4.778,0.3,6.784,0.9
		c2.005,0.6,3.754,1.565,5.248,2.898l-4.097,4.334c-0.938-0.844-2.123-1.467-3.552-1.866c-1.431-0.399-2.912-0.601-4.448-0.601
		c-1.92,0-3.382,0.391-4.384,1.167c-1.004,0.777-1.505,1.833-1.505,3.166c0,1.111,0.33,1.99,0.992,2.634
		c0.661,0.646,1.824,1.057,3.488,1.233l5.119,0.467c3.157,0.268,5.558,1.178,7.2,2.732
		C226.696,360.589,227.517,362.855,227.517,365.833z"/>
</g>
<g>
	<path fill="#FC00FF" d="M270.469,376.299h-6.4v-3.066c-1.238,1.289-2.475,2.189-3.712,2.7c-1.238,0.51-2.88,0.768-4.928,0.768
		c-3.84,0-6.742-1.022-8.704-3.067c-1.707-1.866-2.56-4.288-2.56-7.267c0-2.934,0.966-5.288,2.898-7.066
		c1.932-1.777,4.724-2.667,8.374-2.667h8.632v-2.399c0-2.178-0.56-3.776-1.679-4.8c-1.12-1.021-2.949-1.534-5.489-1.534
		c-1.766,0-3.176,0.233-4.23,0.7c-1.055,0.468-2.034,1.323-2.938,2.566l-4.288-4.199c1.493-1.777,3.125-3.033,4.896-3.767
		c1.77-0.733,4.021-1.102,6.752-1.102c8.917,0,13.376,3.867,13.376,11.602V376.299L270.469,376.299z M264.069,364.099v-2.732h-7.689
		c-3.92,0-5.879,1.623-5.879,4.866c0,3.2,2.003,4.801,6.009,4.801c1.55,0,2.745-0.11,3.585-0.333c0.84-0.224,1.712-0.789,2.617-1.7
		C263.616,368.089,264.069,366.456,264.069,364.099z"/>
	<path fill="#FC00FF" d="M321.156,376.298l-8.118,0.037l-9.02-15.604l-4.758,5.683l-0.056,9.885h-6.528v-47.467h6.528v29.267
		l12.608-15.6l7.942,0.006l-11.285,13.237L321.156,376.298z"/>
	<path fill="#FC00FF" d="M332.867,335.899h-6.911v-7.198h6.911V335.899z M332.676,376.299h-6.527v-33.733h6.527V376.299z"/>
	<path fill="#FC00FF" d="M355.011,376.299h-3.903c-2.859,0-5.1-0.955-6.721-2.866c-1.451-1.732-2.176-3.911-2.176-6.534v-18.6
		h-3.712v-5.2h3.712v-10.267h6.527v10.267h6.272v5.2h-6.272v18.267c0,2.623,1.195,3.935,3.584,3.935h2.688V376.299z"/>
	<path fill="#FC00FF" d="M401.025,359.366c0,3.066-0.277,5.667-0.832,7.8c-0.555,2.134-1.558,3.979-3.008,5.534
		c-1.152,1.243-2.527,2.223-4.127,2.933c-1.601,0.711-3.468,1.067-5.601,1.067c-2.091,0-3.937-0.356-5.536-1.067
		c-1.6-0.71-2.977-1.688-4.128-2.933c-1.451-1.602-2.454-3.444-3.009-5.534c-0.555-2.088-0.831-4.688-0.831-7.8
		c0-3.021,0.276-5.601,0.831-7.733s1.558-3.977,3.009-5.533c1.151-1.243,2.517-2.222,4.097-2.934
		c1.577-0.71,3.434-1.066,5.567-1.066c2.09,0,3.946,0.356,5.567,1.066c1.621,0.712,3.008,1.689,4.16,2.934
		c1.45,1.602,2.453,3.445,3.008,5.533C400.748,353.722,401.025,356.299,401.025,359.366z M394.498,359.366
		c0-2.354-0.107-4.089-0.32-5.2c-0.342-1.732-0.982-3.088-1.92-4.066c-1.238-1.288-2.838-1.934-4.8-1.934
		c-1.92,0-3.499,0.646-4.736,1.934c-0.896,0.935-1.493,2.167-1.792,3.7s-0.447,3.39-0.447,5.566c0,2.355,0.138,4.244,0.416,5.667
		c0.276,1.423,0.885,2.623,1.823,3.6c1.28,1.334,2.858,2,4.736,2c1.92,0,3.521-0.666,4.8-2c0.896-0.933,1.493-2.166,1.792-3.699
		C394.348,363.399,394.498,361.544,394.498,359.366z"/>
	<path fill="#FC00FF" d="M422.273,348.299h-6.463v28h-6.529v-28h-3.713v-5.2h3.713v-5.2c0-2.666,0.703-4.844,2.111-6.532
		c1.623-1.91,3.883-2.866,6.784-2.866h4.097v5.8h-2.879c-2.392,0-3.584,1.312-3.584,3.934v4.866h6.463V348.299z"/>
	<path fill="#FC00FF" d="M467.969,359.366c0,3.29-0.195,5.89-0.58,7.8c-0.559,2.801-1.59,4.979-3.092,6.534
		c-1.934,2-4.574,3-7.922,3c-1.893,0-3.5-0.278-4.832-0.834c-1.33-0.556-2.576-1.566-3.734-3.033v17.2h-6.4V342.5h6.4v3.533
		c1.152-1.441,2.4-2.458,3.744-3.049c1.344-0.59,2.953-0.886,4.832-0.886c1.621,0,3.113,0.257,4.479,0.768
		c1.365,0.512,2.518,1.257,3.455,2.232c1.451,1.512,2.453,3.667,3.008,6.467C467.756,353.7,467.969,356.299,467.969,359.366z
		 M461.439,359.333c0-3.565-0.387-6.195-1.162-7.892c-1.035-2.228-2.906-3.343-5.621-3.343s-4.588,1.115-5.621,3.343
		c-0.816,1.739-1.227,4.37-1.227,7.892c0,3.609,0.387,6.241,1.162,7.89c1.076,2.274,2.971,3.41,5.686,3.41s4.586-1.113,5.621-3.343
		C461.053,365.596,461.439,362.943,461.439,359.333z"/>
	<path fill="#FC00FF" d="M499.07,376.299h-6.398v-3.066c-1.238,1.289-2.477,2.189-3.711,2.7c-1.238,0.51-2.881,0.768-4.93,0.768
		c-3.84,0-6.74-1.022-8.705-3.067c-1.705-1.866-2.559-4.288-2.559-7.267c0-2.934,0.965-5.288,2.898-7.066
		c1.932-1.777,4.723-2.667,8.373-2.667h8.633v-2.399c0-2.178-0.562-3.776-1.682-4.8c-1.117-1.022-2.947-1.534-5.486-1.534
		c-1.768,0-3.178,0.233-4.23,0.7c-1.055,0.468-2.035,1.323-2.938,2.566l-4.289-4.199c1.494-1.777,3.125-3.033,4.896-3.767
		c1.771-0.734,4.021-1.102,6.752-1.102c8.916,0,13.375,3.867,13.375,11.602V376.299L499.07,376.299z M492.672,364.099v-2.732h-7.689
		c-3.92,0-5.879,1.623-5.879,4.866c0,3.2,2.004,4.801,6.01,4.801c1.551,0,2.744-0.11,3.584-0.333c0.842-0.224,1.713-0.789,2.617-1.7
		S492.672,366.456,492.672,364.099z"/>
	<path fill="#FC00FF" d="M530.176,345.299l-4.93,5.134c-0.727-0.756-1.461-1.322-2.207-1.7c-0.748-0.377-1.633-0.566-2.656-0.566
		c-1.834,0-3.371,0.689-4.607,2.066c-1.238,1.378-1.855,3.224-1.855,5.533v20.533h-6.4v-33.8h6.4v3.666
		c0.768-1.199,1.93-2.177,3.488-2.934c1.557-0.756,3.23-1.134,5.023-1.134c1.705,0,3.125,0.224,4.256,0.667
		C527.818,343.209,528.98,344.055,530.176,345.299z"/>
	<path fill="#FC00FF" d="M547.584,376.299h-3.904c-2.857,0-5.1-0.955-6.721-2.866c-1.449-1.732-2.176-3.911-2.176-6.534v-18.6
		h-3.711v-5.2h3.711v-10.267h6.529v10.267h6.27v5.2h-6.27v18.267c0,2.623,1.193,3.935,3.584,3.935h2.688V376.299z"/>
	<path fill="#FC00FF" d="M578.303,365.966c0,3.423-1.248,6.066-3.744,7.933c-2.496,1.867-5.75,2.802-9.76,2.802
		c-2.943,0-5.398-0.312-7.359-0.935c-2.348-0.755-4.439-2.065-6.273-3.934l4.289-4.467c1.193,1.29,2.604,2.199,4.225,2.732
		s3.328,0.8,5.119,0.8c2.09,0,3.797-0.388,5.119-1.166c1.322-0.776,1.984-1.943,1.984-3.5c0-1.244-0.342-2.222-1.023-2.934
		c-0.684-0.71-1.793-1.066-3.328-1.066l-5.184-0.467c-3.158-0.267-5.547-1.155-7.168-2.667c-1.623-1.51-2.432-3.732-2.432-6.666
		c0-3.244,1.141-5.776,3.424-7.601c2.281-1.821,5.215-2.733,8.799-2.733c2.518,0,4.779,0.3,6.785,0.9
		c2.004,0.6,3.754,1.565,5.248,2.898l-4.098,4.334c-0.938-0.844-2.123-1.467-3.553-1.867c-1.43-0.398-2.912-0.6-4.447-0.6
		c-1.92,0-3.383,0.39-4.385,1.167s-1.504,1.833-1.504,3.166c0,1.111,0.33,1.99,0.992,2.634c0.662,0.646,1.824,1.057,3.488,1.233
		l5.119,0.467c3.156,0.267,5.559,1.178,7.199,2.732C577.48,360.722,578.303,362.988,578.303,365.966z"/>
</g>
<g>
	<path fill="#FC00FF" d="M590.4,376.2h-7.809v-8.134h7.809V376.2z"/>
</g>
</svg>
