<?xml version="1.0" encoding="utf-8"?>
<!-- Generator: Adobe Illustrator 20.1.0, SVG Export Plug-In . SVG Version: 6.00 Build 0)  -->
<svg version="1.1"
	 id="Bundesrepublik_Deutschland" inkscape:version="0.91 r13725" sodipodi:docname="Deutschland_Bundesl√§nder_mit_Informationsfreiheitsgesetzgebung.svg" xmlns:cc="http://creativecommons.org/ns#" xmlns:dc="http://purl.org/dc/elements/1.1/" xmlns:inkscape="http://www.inkscape.org/namespaces/inkscape" xmlns:rdf="http://www.w3.org/1999/02/22-rdf-syntax-ns#" xmlns:sodipodi="http://sodipodi.sourceforge.net/DTD/sodipodi-0.dtd" xmlns:svg="http://www.w3.org/2000/svg"
	 xmlns="http://www.w3.org/2000/svg" xmlns:xlink="http://www.w3.org/1999/xlink" x="0px" y="0px" viewBox="0 0 656.5 852.5"
	 style="enable-background:new 0 0 656.5 852.5;" xml:space="preserve">
<style type="text/css">
	.st0{fill:#CACACA;stroke:#FFFFFF;stroke-width:0.5;}
</style>
<sodipodi:namedview  bordercolor="#666666" borderopacity="1" gridtolerance="10" guidetolerance="10" id="namedview22" inkscape:current-layer="g3" inkscape:cx="119.08535" inkscape:cy="735.88221" inkscape:pageopacity="0" inkscape:pageshadow="2" inkscape:window-height="706" inkscape:window-maximized="1" inkscape:window-width="1366" inkscape:window-x="-8" inkscape:window-y="-8" inkscape:zoom="1.2" objecttolerance="10" pagecolor="#ffffff" showgrid="false">
	</sodipodi:namedview>
<defs>
	
	
		<inkscape:perspective  id="perspective24" inkscape:persp3d-origin="295.75201 : 266.83468 : 1" inkscape:vp_x="0 : 400.25201 : 1" inkscape:vp_y="0 : 1000 : 0" inkscape:vp_z="591.50403 : 400.25201 : 1" sodipodi:type="inkscape:persp3d">
		</inkscape:perspective>
</defs>
<g id="g3">
	<path id="Thüringen" class="st0" d="M344.5,377.7l1.8-0.4l3.4,0.3l1.9,0.2l2.9,0.7l0.4,0.3l2,1.8l1.3-0.5l-1.7,2.2l-0.5,1.6
		l1.2,2.9l2.1,3.3l1.7,2.6l1,1.2l-0.1,2.4l-0.1,2.7l0.8,0.5l0.9,1l0.8,0.1l0.8-0.1l1.2-0.4l0.6-0.3l6.4,2l0.5,0.1l6.4,0.1l1.4,0
		l0.7-0.1l2.8,0.1l4.2,1.6l0.2,0.3l0,0.3l-0.3,1.9l0.5,1l0,0.4l1.8,0.6l-0.5,0.5l-0.1,0.1l0,0.1l0.5,0.6l0.7,0.6l0.3,0.1l0.4,0.2
		l1.3,1.2l0.5,0.5l0,0.3l-0.1,0.1l-0.4,0.7l-0.7,1.1l-1.5,2.1l-0.8,1.2l-0.5,0.6l-0.3,0.2l-0.5,0.2l-0.1,0l-0.8-0.9l-0.2,0l-0.2,0.2
		l-0.3,0.5l-0.6,1l-0.1,0.8l1.6,1.2l1.6,0l0.9-0.4l0.2,0l0.9,0.4l1.6,1.6l1.1,2.5v0.3L395,427l-0.3,0.5l-1.3,0.2l0.8,3.4l0.5,0.4
		l0.9,0.4l0.1,0.3l3.9-0.1l0.8-0.7l0.3-0.2l0.3-0.8l0.2-0.2l6.3,1l1.6,1l0.3,1.2l0.2,1.3l0.1,0.6l4.8,1.5l1.8,0.5l2.8-0.6l2-0.5
		l0.8,0.3l3.5,2.2l2.2,1.6l0.3,0.2l2.3,3l0.2,0.5l0,0.2l0,0.9l1-0.4l0.3-0.1l3.2-0.5l0.2,0l3.6,1.2l1.1,0.5l-0.1-0.7l0.2-0.3
		l0.3-0.3l0.7-0.5l0.1,0.1l1.4,1.8l0.4,0.8l0.3,1.1l0,0l0.6-0.4l0.2-0.1l0.7-0.9l3.2-6.9l0.1-0.3l0-1l-0.5-0.6l-0.4-0.2l-1.3-1
		l-0.2-1.7l1.6-2.5l3-1.5l0.1,0l7.7,2.4l2.9,1.1l0.4,0.2l0.2,0.3l0.2,0.9l-0.1,0.7l-0.1,1.2l0.3,1.8l2.5,1.9l2.4,0.9l2.4,0.6
		l0.3,1.6l0.6,2.3l0.1,0.3l0.7,1.1l0.3,0.3l0.5,0.4l-0.8,1.2l-2.8,0.9l-1.4,0.3l-0.6-0.1l-1.9,0.3l-3.2,0.8l-0.3,0.1l-1.5,1.2l0,1.2
		l-0.9,2.6l-0.2,0.1l-1.3,0.4l0-0.1l-0.6-0.7l-0.6-0.2h-1.6l-0.3,0.1l-1.6,1.3l0,0.1l0,1.4l-4.4,1.6l-1.3-0.1l-0.6-0.7l-0.5,1
		l-0.8,5.4l-0.1,1l0,0.5l0,0.3l2.5,4.4l0.8,0.8l3,0.8l-0.2,1.3l-1.1,1.4l-0.1,0.1l-2,2.1l-1.9,0.4l-0.1,0l-3.6,1.6l-3.2,1.4
		l-0.5,0.2l-0.2,0.1l-0.3,0.8l2,0.6l0.4-0.3l0.7,0l0.1,0l0.2,0.4l-0.1,0.5l-0.1,0.1l-0.2,0.1l-0.8,0.1l-0.4-0.1L438,486l-2.5-0.3
		l-4,0.2l0.5-2.8l-0.4-3.1l-0.8-0.8l-0.4,0.1l-0.1,0.1l-1.3,1.2l-0.1,0.8l-2.2,2.3l-0.2,0.1l-0.7,0.3l-0.4,0.2l-3.1,4.4l-0.1,0.3
		l0,0.1l0.7,1.8l0.3,0.5l0.9,0l1.1-0.1l0.8,0.8l2,1.9l0.2,0.5l0,0.3l-0.3,0.5l-1.8,1.7l-1.6,0.9l-0.6,0.5l-0.4,0.7l0.1,0.2l0.5,0.5
		l1.6,1.1l-2.7,1.2l-4.1,1.5l-12.5,1.7h-0.2l-0.3-0.2l-0.6-0.5l-0.4-0.5l-0.3-0.2l-0.4-0.2l-1.3,0.3l-0.2,0.1l-0.2,0.3l-0.2,0.8
		l0,0.2l-0.4,0.4l-1.9,0.6l-0.6-0.3l-1.7-1.9l-0.7-1.2l-0.5-2.2l-1.8,0.2l-2-1.2l-0.1-0.2l-0.1-0.6l0-2.1l0.1-1.6l0.4-0.7l0.4,0
		l0.1-0.1l0.3-0.7v-0.1l-0.6-0.8l-0.3-0.5l-0.3-0.2l-3.5-0.7l-1.6,0.2l-0.2,0.1l-1.1,1.2l-0.2,0.8l-2.2,1.8l-1.5,0.7l-0.1-0.2
		L382,496l-0.4,0.1l-0.2,0.3l-0.1,0.6v0.2l0.1,2.1l0.7,0.5l0.4,0.2l0.3,0.8l1.2,7.6v0.1l-2,6.9l-3.1,0.5l-0.9,1.9l-0.1,0.1l-0.8,0
		l-2.2-2.1l-0.7-1l0-0.1l-0.1-0.5l0.1-0.6l0.4-0.5l0.3-0.3l0.6-0.4l0.4-0.1l0-0.6l-1.4-2.4l-1.6-1.4l-0.9,0l-0.7,0.2l-0.1,0.1
		l-0.4,1.2l-1.2,0.5l-1.4,0.5l-0.4-0.1l-3.6-0.6l-1.3-1.5l-1.1-2l-0.5-0.6l-0.2,0h-0.2l-6.6,0l-7.5,3.1l-0.2,0.9l0.2,3.1l0.1,0.4
		l0.4,0.3l5.5,3.9l0.2,0.1l0.6,0.1l1.3,0.4l0.6,0.3l0.4,0.5l0.1,1.4l-0.2,0.6l-0.1,0.2l-0.7,0.5l-0.7,0.2l-0.3,0l-2.8-0.6l-2.4-0.6
		l-0.6-0.1l-0.3,0.2l-0.1,0.2l0,1.7l0.1,0.1l0.1,1.8l-0.4,0.8l-0.2,0.1l-0.3,0l-5.2-1.9l-1.8-0.5l-0.2-0.4l-0.4-1.2l-0.7-2.9
		l0.3-3.6l0.3-2.8l-3-0.7l-4-1.5l-2.3-2.5l-0.3-1.2l-0.3-1l-0.9,0.4l-0.9,0.4l-1.9-0.2l-0.2,0l-0.5-0.8l0-0.6l-0.4-2.4l-2.4-5.2
		l-0.5-0.5l-0.5-0.4l-4.7-2l-1.5-2l-1.8-2.4l-0.5-0.1l-6.6,0.7l-1.8,2l-1,1l-0.4,0.2l-0.3,0.1l-0.2-9.7l0.2-0.4l0.4-0.6l0.2-0.2
		l1.8-1.5l-0.7-2.1l-0.8-1.4l-0.3-0.2l-1.3-0.1l-2.2-0.1l-0.5,0.1l-2.4,1l-0.2,0.3l0,0.6l1.2,1.5l-0.5,1.2l-0.9,0.2l-1.1-0.2
		l-3.3-0.6l-0.1-0.9l0.1-2.7l0.3-0.4l0.7-1l1.4-1.7l1.3-2.7l0.5-1.2v-0.3l-0.2-1.5l-0.9-1.1l1.3-0.4l0.3-0.1l0.1-0.1l0-0.5l-0.1-1
		l-0.4-0.7l0-0.6l0.4-1.8l0.1-0.3l1.1-0.9l0.5-0.3l1.6,0.2l1.4,0l0.7-1.2l1.6-4.1l0-0.8l-1-5.9l-1.5-4.8l0.6-1.3l0.1-0.3l0.1-0.1
		l0.3-0.1l0.9-0.1l1.4,0.1l2.3,0.3l1.3,0.7l0.3,0.4l0.3,0.2l0.5,0.1l0.4-0.1l1.7-0.2l0.2-0.2l0.2,0l0.5-0.2l0.3-0.2l0.5-0.7
		l-0.1-0.2l0.6-1.2l0.2-0.5l-0.5-0.9l-0.5-0.5l-0.2-0.2l-0.9-0.6l-1.8-0.7l-0.2-4.3l-0.6-1.2l-1.3-2.9l-0.1-0.3l0.5-0.6l2.6-0.6
		l1.1,1.1l0.4,1.3l0.3,0.4l0,0l0.4,0.7h0.6l0.2-0.2l0-0.8l0-1.8l-0.2,0l-0.4-0.5l0-0.3l0.4-1.3l0.3-0.3l0.4-0.2l0.6-0.4l0.3-0.8
		l-0.3-0.6l-1.2-0.3l-1.3-1.3l-0.6-0.5l-0.8-0.5l-1.7-0.6l-4.6-2.3l-0.9-2.9l-1.9-0.8l-3.4-1.2l-1.2-1.5l-1.4-3.4l-0.6-2.2l-0.1-1
		l0.2-0.9l0.2,0.1l0.2-0.1l0.5-0.2l3.1-2.1l6.7-3.9l5.3-1.1l8-5.4l2.6-2.1l0.1-0.1l1.5-2.3l0.1-0.3l0.2-0.8l0-0.1l-0.4-0.2l0.9-1.9
		l0.7-1.2l2.4-0.6l0.2,0l0.8,0.3l1.5,0.7l0.4,0.2l0.7,0.5l0.4,0.3l1.2,1.8l0.6,0.3l2.4-0.3l4.6-1.2l0.9-1.8l2.1-5.5l0.3,0l1.2-0.2
		L344.5,377.7L344.5,377.7z"/>
	<path id="Schleswig-Holstein" class="st0" d="M354.5,140l0.9,3l-0.9,2.1l-2.6-0.2l-5.2,3.7l-1.4,2.3l0,1.8l1,2.5l0.2,0.4l0.3,0.9
		l0.1,0.5l-0.2,1.5l-0.4,3.1l3.8,3.7l1.5,0.9l0.2,0.1l1.3-0.1l0.4-0.1l0-0.2l0.2-0.1l0.2,0l1.1,0.2l0.9,0.4l1.3,1.4l0.7,3.8
		l-1.4,1.9l-0.4,2.4l-6.6,8.7l-2.1,2.5l-1,1.1l-0.3,0.3l-3.8,2.9l-1.4-0.3l-0.6-0.3l-0.5,0l-1,0.6l-0.6,1.3l-1.8,8.1l0.1,0l-0.1,0.1
		l-0.4,0.3l-0.3,0.1l-0.5,0l-4.1-1.2l-0.6-0.2l-0.9-0.5l-0.8-0.6l-2.4-1.2l-5.9-2.7l-1.6-0.9l-0.5-1l-3.7-4l-0.2-0.8l0.1-0.6
		l-0.5,0.1l-0.4-0.1l-3.5-2.4l-0.2-0.2l-0.9-2.4l-0.1-2.1l0.3-1.2l0.6-0.6l2.1-1.7l1.3-2.7l0-0.1l0.2-0.7l-1.6-2.2l-0.8-0.9
		l-0.1-4.7l0.6-1.4l0.1-0.9l-1.3-0.7l-0.2-0.1l-0.3,0l-4.3,2.1l-1.4,0.9l0.5,0.6l-0.8,1.9l-4.9,3.8h-0.8l-0.5-0.1l-1-0.2l-0.2-0.2
		l-1.2,0l-1.1,0.1l-0.1,0.8l0,0.3l-0.3,0.6l-0.4,0.6l-3.5,4.4l-0.8,0.4l-0.5-0.2l-1.1-1l-1.7-2.1l-0.1-0.7l0.1-0.5l-0.4,0l-0.2,0.3
		l-0.7,2.1l-0.3,0.9l-0.4,1.6l-0.4,2.3l-1.7-0.2l-1.6-0.6l-5.4-3.5l-2.3-1.8l-0.4-0.6l-0.4-0.9l-0.4-1.2l-0.1-1.6l-0.1-0.5l-0.4-1
		l-0.8-1.9l-0.3-0.6l-1-1.1l-2.3-1.7l-0.9-0.8l-0.6-0.8l-0.7-1.3l-0.8-1.9l-1.8-3.9l-0.5-1l-2.4-3.4l-1.8-1.3l-3.5-1.5l-1.9-0.3
		l-2.1,0l-3.6-0.1l-3.2-0.2l-1,0l-0.8,0.1l-0.3-2.6l-0.2,0l-1.5,0.7l-0.3,0.1l-0.5,0l-0.4-0.1l-1-0.9l-1.9-1.6l-0.9-1.3l-0.6-1.7
		l-0.3-1.1l-1.3-3.2l-2.1-3.3l-0.4,0.1l-0.3-0.1l-0.1-0.2l1.5-1.2l1.2-0.7l1-0.2l2.5,0.6l0.5,0.3l0.4,0.5l0.7,0.1l0.8-0.2l0.5-0.2
		l0.2-0.2l0.3-0.3l0.2-0.4l0.1-0.6l0.2-0.7l0-0.3l0-0.3l-0.1-0.4l-3.2-6.7l-0.2-0.3l-0.7-0.2l-0.3-0.1l-1,0.2l-0.4,0.3l-1.3,0.8
		l-0.5-0.3l-1.1-0.7l-0.1-0.2l-0.5-1l-1-2.8l-0.1-0.5l0-0.2l0.2-0.6l1.1-2.2l0.6-1.4l0.1-0.4l0.3-3.5l0.1-0.7V108l-0.2-0.1l0.2-0.1
		v-0.3l-0.1-0.6l-0.1-0.4l-0.3-0.5l-0.4-0.5l-0.2-0.1l-0.3-0.1l-3.8,0l-0.8,0.1l-2.4,0.2l-1,1l-0.6,0.8l0.1,0.1l0.5,0.1l0.1,0
		l0.1-0.1l0,0l-0.1,0.1l-0.1,0.1l-0.2,0.1l-0.4,0l-0.4-0.1l-4.4-2.3L215,105l-0.5-1l-0.1-0.5l0.1-0.7l0.3-1.4l0.2-0.8l0.3-0.9
		l0.2-0.4l0.1-0.1l0.9-0.5l0.1,0.9l1.2,0.9l0.6-0.1l0.2-0.1l2.6-1.6l0.1-0.1l0.1-0.2v-0.9l0-0.2l-0.1-0.6l0.5-2.4l6.6-1.2l1.3,0.1
		l1.4,0.7l1.1-0.3l1.3-0.6l1.1-0.6l5.5-4.6l0.1-0.1l0.6-1.1l0.2-1.1l0-0.3l-0.2-0.8l-1.3-2.8l-6.4-9.1l-3-4.2l-1.2-0.7l-1.8-0.9
		l-1.2-1.2l-0.3-0.4l-2.2-5.7l-0.8-3.8l-0.9-1.8l-0.1-0.2l-2.3-2.7l-2.1-2.4l0-0.2l0.4-3.6l1.5-3.4l1.8,0l0.7,0.1l0.4,0.2l1.2,0.8
		l5.4-0.3l0.7-0.1l0.8-0.1l0.5,0l4.1,0.3l2.7,0.2l0.6,0.2l0.3,0.1l3.1,1.4l0.9,0.6l0,0.2l0.4,0.3l0.7,0.4l0.9,0.1l1.6,0.1l1.3-0.3
		l1.4,0l0.4,0.1l0.7,0.2l2.9,1.2l2.1,1l0.3,0.6l-0.4,0.5l-0.2,0.4l0,0.4l0.1,0.4l0.7,1.8l4.7,0.5l1-0.1l1.5-1.3l0.2-0.2l0.1-0.6
		l2.6-0.5l1.1,0.5l1.4-0.5l1.3-0.4l0.9-0.4l5.1-4.6l0.5-0.1l2.2,0.8l-0.4,0.7l-1,1.9l4.3,1.8l3.3,1.4l5.9,6.7l1,0.5l0.9,0.3l0.5,0.1
		h0.1l0.1-0.1L294,55l-0.1-0.2l0.2-0.5l0.2-0.3l0.1-0.1l1.1,0.7l1.7,1.2l1.1,2l3.4,10.6l-0.1,2.2l-0.2,3l0,5.4l0,0.4l-1.7,2.9
		l-0.2,0.3l-0.6,0.7l-1,0.9l-1.6,0.9l-2.6,1.3l-1.8,0.9l-0.4,0.1l-0.2-0.2l-0.2-0.2l-0.6,0l-0.3,0.1l-0.3,0.1l-0.1,0.1l0.7,1.4
		l0.3,0.5l0.4,0.4l0.5,0.3l0.3,0.1l2-0.3l0.7-0.1l0.3-0.2l1.9-0.8v-0.1l0.8-0.3l5.1-1.2l3.8-0.8l0.4-0.1l0.5,0l0.5,0.1l1.5,1
		l0.7,0.5l1.4,1.4l-0.5,0.8l-1,1.6L310,92l0.8,3.8l-1.2,1l-0.6,1.1l-0.1,0.6l1.3,1.8l0.3-1.2l2.3-5.1l0.5-0.5l4.6-2.3l1-0.2l0.6,0
		l0.6,0.1l1.2,0.3l1.7,0.5l12.4,6.2l0.7,0.4l1.5,1l0.4,0.3l0.5,0.7l0.2,0.5l-0.1,0.1l0.1,0.3l2,2.2l0.4,0.3l0.2,0.1l0.6,0.2l0.6,0
		l2.7-0.1l0.4-0.1l0.5-0.2l0.7-0.3l0.5-0.3l1.9-1.5l0.7-0.7l1.1-1.4l1.8-1.6l2.5-1.9l1.2-0.3l8.2-0.4l-0.3,3.6l-0.5,0.8l-0.1,0.3
		l0.1,2.3l0.6,6.7l0.7,5.7l0,0.1l-0.1,0.1l-2.6,2.1l-0.7,0.5l-3.2,2.3l-3,2.7l-2.6,3.3l-0.4,0.4l-0.5,0.3l-0.5,0.2l-2.2-0.4
		l-0.3-0.1l-0.5-0.3l-3.2,3.4l-0.3,0.3l-0.2,0.3l-0.2,0.6l-0.1,0.5l0,0.3l0.1,0.5l0.7,1.7l0.6,1.1l0.4,0.6l0.4,0.5l0.2,0.2l0.5,0.3
		l0.5,0.1h1.9l0.2,0l0.9-0.2l0.3,0l0.5,0.2l0.4,0.3l0.3,0.4l0.2,0.5l0,0.2l-0.1,1l0.1,0.8l0.5,0.2l0.3,0L354.5,140L354.5,140z
		 M200.8,36.3l-1.1,2.9l-0.9,2.6l-0.3,1.4l-0.2,2l-0.2,2.4l-0.6,9.2l0,0.7l0.6,1.3l0.3,0.4l0.1,0l0.1-0.2l0-0.4l0.2-7.8l-0.1-0.2
		l-0.1-0.5v-0.2l0.2-1.5l0.4-1.4l0.3-0.3l2.1-1.4l0.6,0.5l0.1,0.2l1.4,0.8l1.4,1l0.5,0.2h0.2l2.7-1.4l1.7-1.5l-0.1-0.1l-0.4-0.1
		l-0.5-0.1l-2.2,0.1l-0.5-0.1l-0.3-0.1l-1.8-1.6l0,0l-1.6-1.7l-0.4-6l1.1-2.3l0.5-0.6l1-0.8l0.1-0.1l1.2-0.3l1.3-0.8l1.6-3.1l0-0.1
		l-0.1-0.1l-2.1-0.9l-0.6-0.2l-0.3,0l-0.2,0.1l-0.5,0.3l-0.1,0.1l-0.4,0.7l-1.9,4.5l-0.4,0.9L200.8,36.3L200.8,36.3z M209.2,57.7
		l-0.5,0l-1.9,0.4l-0.6,0.2l-0.4,0.3l-0.5,0.6l-0.4,0.7l-0.5,1.3l-0.1,0.8l0.1,0.4l0.2,0.3l0.2,0.2l4,2l0.8,0.2l1,0.1l3.3,0.1l0.4,0
		l0.2-0.1l1.9-3.9l-0.6-2.4l-0.1-0.3l-0.9-0.6l-1.1-0.4l-0.5-0.1l-0.3-0.1l-0.7-0.1l-0.8,0.3l-0.3,0.1L209.2,57.7L209.2,57.7z
		 M198.2,66.8l0,0.2l0.3,0.8l1.2,2l0.6,1l0.7,1.1l0.2,0.1l0.4,0.1l1.1,0l0.1,0l1.2-0.6l0.1-0.1l0.3-0.8l0-0.1l-0.1,0l-1.2-0.6
		l-1-1.6l-1.3-3.5l-0.1-0.7l0.2-0.5l0.3-0.5l1-1l-0.1-0.1l-0.2-0.1l-0.4,0.2l-2.5,2.2l-0.3,0.4l-0.4,0.9l0,0.8L198.2,66.8
		L198.2,66.8z M215.4,70.4l3.7-0.9l0.5-0.3l0.3-0.4l0.2-0.6l0.2-1l-0.2-0.1l-6.3,2.5l-1.6,0.7l-0.1,0.4l0.1,0.1l1.1,0.9L215.4,70.4
		L215.4,70.4z M211.2,75.6l-0.3,0l-0.2,0.2l0.1,0.2l0.3,0.4l0.2,0.1l1.6,1.2l0.3,0.2l0.9,0l0.5-0.1l0.1-0.2l0-0.4l-0.8-1.2l-0.1-0.2
		l-0.1-0.1l-0.3-0.1l-0.7,0.2L211.2,75.6L211.2,75.6z M216.7,84.3l0.6,0.5l0.3,0.1l0.7,0l1-0.2l0.9-0.3l0.2-0.1l0.3-0.4l1.1-2.4
		l0.6-1.4l0.1-1.5l-0.2-0.1l-0.6-0.1l-0.6,0.1l-2.2,0.7l-0.3,0.1l-2.6,1.1l-0.4,0.2l-0.2,0.3l-0.1,0.3l0,1.1l0.1,0.5l0.1,0.3
		l0.2,0.3l0.1,0.1L216.7,84.3L216.7,84.3z M231.9,81.6l-3.1,2l-0.4,0.5v0.3l0,2.6l0.7,0.5l0.6,0.3l0.8,0.2l2.2,0.2l0.9,0l1.3-1.1
		l0.6-0.7l0.1-0.1l1.5-2.3l0-0.2l-0.2-1.3l-0.3-0.4l-0.9-0.2l-2.2-0.1L231.9,81.6z M364.3,80.9l-0.5-0.2l-0.2-0.2l-0.1-0.2l-0.2,0.1
		l-0.3,0.3l-0.8,0.9l-0.6,0.8l-0.4,0.6l-0.7,1.6l-0.3,1l-0.1,0.3l-0.3,3.4l0.1,0.6l0.1,0.2l1.6,1.1l0.2,0.1l0.4,0.1l0.1-0.1l-0.1,0
		l0,0h-0.1l-0.4-0.1l-1-0.6l0-0.6l0.2-0.2l2.3-0.8l1.1,0.3l0.4,0.2l0.4,0.2l0.1,0.3l0.3,0.8l-0.1,0.9l-0.1,1.3l5.1,0.9l7.8,0.1
		l0.1,0l0-0.1l0-0.6l-1.3-2.7l-1-2.2l-3.1-4.8l-3.2-1.7L364.3,80.9L364.3,80.9z M220.5,130.8l-0.2-0.1l-0.3-0.4l-0.5-0.6l0-0.4
		l0.1-0.5l0.2-0.4l0.2-0.2l0.2-0.2l0.2-0.1l0.3-0.1l0.2,0l0.3,0.3l0,0.1l-0.1,2.5l-0.3,0.2L220.5,130.8z M173.3,114.8l1.2-0.1
		l0.1,0.6l-0.9,1.5l-0.7-0.1l-0.3-0.1l-0.9-1.6l0-0.2l0.5-0.4l0.4-0.1L173.3,114.8L173.3,114.8z"/>
	<path id="Sachsen-Anhalt" class="st0" d="M398.5,233.8l1.4-0.6l0.3,0l0.5,0l0.2,0.1l0.2,0.1l0.2,0.2l0.1,0.2l0,0.2l-0.1,0.2
		l-0.9,1.2l-0.1,0.3l0.1,0.4l0.1,0.3l0.2,0.3l3.6,2.8l0.2,0.1l0.5,0.1l0.3-0.1l0.7-0.5l1-0.6l0.2,0l0.5,0.1l0.4,0.1l0.4,0.2l0.2,0.1
		l5.2,3l0.2,0.3l0.1,0.3l0,0.3l0,0.2l-0.1,0.3l-0.1,0.2l-0.5,0.5l-0.5,0.6l-0.2,0.4l-0.1,0.2l0.1,0.5l0.3,0.5l0.2,0.2l0.3,0.2
		l3.6,1.5l5.2,1.7l0.3,0.1l8.2-1l0.7-0.7l-0.1,0.2l-0.3,0.6l0,0.7l0.8,2l1.6-0.5l0.9-0.5l1.5-0.7l1.5,0.7l0.6,0.4l0.1,0.3l1.2,4.9
		l-0.2,1.8l-1.5,0.7l-0.7,1.3L437,261l-0.4,4.4l0,0.1l1.2,2l1.2,1.8l0.3,0.9l0,0.6l-0.4,3.7l-1.6,1.2l-0.4,0l-0.4-0.1l-0.9,1.6
		l-1.8,7.1l0,0.8l0,0l1.8,2.2l0.9,1l1.2-0.2l1.1-0.3l0.3-0.5l0-0.1l0.2-0.9l5.5,1.9l0.4,3.3l-0.3,0.9l-0.6,1l-0.9,2.2l0.2,1.6
		l0.4,2.9l0.7,3.4l-1.2,2.4l-0.2,0.1l-0.1,0.2l-1.2,2.6l-0.6,1.8l-0.1,0.5l-0.3,2.5l0.2,4l-1.8,4.1l2.9,3.8l2.1,3.2l2.6,3.4l1.7,1.9
		l4.6,2.9l7.2,2.8l4,0.6l0.8-0.1l1.8-1.3l0.2-1.4l0.4-0.6l0.9,0l2,0.9l0.7,0.4l1.6,0.9l1.8,0.9l0.3,0l0.5,1.4l4.9,2.8l2.4,0.6l0.5,0
		l1.1-0.4l4.9,2.6l3,3.1l0.3,0.2l0.2,0l2.4,0.2l2.1-0.8l0.3-0.2l-0.1-0.7l0.9,0l0.4,0.3l0.7,0.7l0.1,0.6l0,0.6l-1.7,0.3l0,0.2l0,0.3
		l3.3,11.7l0.5,0.4l0.3,0.3l0.5,0.9l0,0.5v0.1l-1.4,2.5l-0.5,0.6l-6.5,4.3l-2.2,0.3l-6.6,0.3h-0.1l-9.5,0.2l-0.9-0.3l-0.1-0.1
		l-0.7-0.5l-1-0.4l-0.3-0.1l-0.5-0.1h-1l-0.4,0.2l-0.3,0.3l-0.1,0.2l-0.1,0.6l-0.7,1.9l-0.2,0.2l-0.8,0.6l-0.8,0.6l-1.6,0.8l-2-1.4
		l-0.3,1.1l-2,1l-7.5,2.2l-2.3,0.2l-2.5,0.1l-0.7,0.1l-5.3,2.8l-3.5,3.1l-0.2,2.4l-2.4,5.3l0.4,1.4l1,3.4l0.1,0.1l0,0.1l0.2,0.7
		l1,5.5l0.2,1.6l-1.3,0.5l-1.6,0.9l1.7,4.5l1.3,1.8l0.4,1.9l0,0.3l0.4,2.4l0,7.2l2,0.4l0.3,0.2l0.5,0.6l-0.1,0.4l-0.7,0.6l2.3,2
		l1.4,1l-1.6,2.5l0.3,1.7l1.3,1l0.4,0.2l0.5,0.6l0,1l-0.1,0.3l-3.2,6.9l-0.7,0.9l-0.2,0.1l-0.6,0.4l0,0l-0.3-1.1l-0.4-0.8l-1.4-1.8
		L441,444l-0.7,0.5l-0.3,0.3l-0.2,0.3l0.1,0.7l-1.1-0.5l-3.6-1.2l-0.2,0l-3.2,0.5l-0.3,0.1l-1,0.4l0-0.9l0-0.2l-0.2-0.5l-2.3-3
		l-0.3-0.2l-2.2-1.6l-3.5-2.2l-0.8-0.3l-2,0.5l-2.8,0.6l-1.8-0.5l-4.8-1.5l-0.1-0.6l-0.2-1.3l-0.3-1.2l-1.6-1l-6.3-1l-0.2,0.2
		l-0.3,0.8l-0.3,0.2l-0.8,0.7l-3.9,0.1l-0.1-0.3l-0.9-0.4l-0.5-0.4l-0.8-3.4l1.3-0.2l0.3-0.5l0.5-1.2v-0.3l-1.1-2.5l-1.6-1.6
		l-0.9-0.4l-0.2,0l-0.9,0.4l-1.6,0l-1.6-1.2l0.1-0.8l0.6-1l0.3-0.5l0.2-0.2l0.2,0l0.8,0.9l0.1,0l0.5-0.2l0.3-0.2l0.5-0.6l0.8-1.2
		l1.5-2.1l0.7-1.1l0.4-0.7l0.1-0.1l0-0.3l-0.5-0.5l-1.3-1.2l-0.4-0.2l-0.3-0.1l-0.7-0.6l-0.5-0.6l0-0.1l0.1-0.1l0.5-0.5l-1.8-0.6
		l0-0.4l-0.6-1l0.3-1.9l0-0.3l-0.2-0.3l-4.2-1.6l-2.8-0.1l-0.7,0.1l-1.4,0l-6.4-0.1l-0.5-0.1l-6.4-2l-0.6,0.3l-1.2,0.4l-0.8,0.1
		l-0.8-0.1l-0.9-1l-0.8-0.5l0.1-2.7l0.1-2.4l-1-1.2l-1.7-2.6l-2.1-3.3l-1.2-2.9l0.5-1.6l1.7-2.2l-1.3,0.5l-2-1.8l-0.4-0.3l-2.9-0.7
		l-1.9-0.2l-3.4-0.3l-1.8,0.4l-0.4-0.1l-0.1-0.1l-0.3-0.4l-1.3-2l-0.1-0.4l-0.2-1.3l-0.1-0.9l0.2-0.5l-0.9-2.2l-3-4.5l-1-0.6
		l-0.7-1.5l-0.3-2.8l0-3.5l0.1-0.5l0.4-0.5l2.1-1.8l0.4-0.2l0.4,0l0.2-0.1l1-1.6l0.1-0.3v-0.7l-0.1-0.7l-0.1-0.3l-0.5-0.6l-0.8-0.3
		l-0.9-0.3l0-1.6l0-0.2l0.8-1.1l1.3-0.4l-3.7-2.8l-1.7-2.4l4.2-0.4l1.8-1.7l0.1-0.1l0-0.3l-0.2-0.4l0.1-1l1.9-0.6l1-0.2l5-0.1h0.3
		l0.9,0.2l1.8-0.1l1.4-0.3l0.4-0.1l0.9-0.7l0.5-0.1l3.4-0.1l1.7,0.2l0.1,0.1l0.3-3.1l0.4-1.9l2-1.4l1.9-1.5l1.2-1.8l0.2-0.3l0.1-1.5
		l-0.1-0.4l-0.1-0.1l-0.2,0l-0.9,0.1l-0.5,0l-0.7-0.4l-0.4-0.3l-0.2-0.2l-0.1-0.3l-0.1-0.4l0.1-0.8l0.4-1l0.3-0.5l0.3-0.2l1-0.5
		l0.7-0.2l1.1-0.2l0.6-0.8l0-0.1l0-0.1l-0.4-1l-1.4-2l-1.4-1.4l-1.4-1.6l-0.1-0.1l-0.4-4.1l1.2-1.7l0.6,0.1l0.2-0.1l1.1-0.5l0.8-0.6
		l0.1-0.2l0-1.4l-0.1-0.4l-0.6-0.6l-0.8-0.7l-0.2-0.1l-0.3-0.1l-1.3-0.8l-4.5-5.8l-0.9-1.8l0.6-1.6l2.2-1.2l1.7,0.1l-1.8-2.1
		l-1.3-1.7l-0.8-1.3l-0.3-0.8l-0.3-1.4l0.2-2.2l0,0l-2.8-5.4l-3.7-5.3l-2.6-1.9l-2.6-7.2l0.1-0.6l0.1-0.6l-0.2-2.3l0-0.2l0.5-2.2
		l2.1-0.6l2.7-0.6l6.1-0.2l2.9-3.1l0.2-0.4l0-0.2l-0.1-0.5l0-0.8l0.2-0.7l0.3-0.4l0.3-0.1l0.3,0l9.3,0.4l3.9,0.8l0.7,0.8l0.3,0.3
		l0.1,0.3v0.3l0,0.1l0.1,0.1l0.3,0.1l3.2,0.3l1.1-0.3l5.7-2.8l0.1-0.2l0.9-1.2l1.8-1.7l1.1-0.6l1.2-0.3l0.9,0l-0.8-1.9l0.6-3.2
		l0.2-1l0.3-0.7l0.8-0.2l0.1,0l0.4,0.5l0.6,0.4l0.7,0.1l0-0.1l2.5-3.6L398.5,233.8L398.5,233.8L398.5,233.8z"/>
	<path id="Sachsen" class="st0" d="M494.3,373.3l2.4,3.9l0.6,0.3l0.7-0.5l0.3-0.3l0.2-0.3l2.6,1.4l0.4,0.8l1.9,4.1l1.1,2.7l0.2,0.7
		l0.2,0.7l-0.2,5.2l-0.8,3.7l1.5,1.8l0.2,0.6l0.2,0.4l2.3,0.1l0.5-0.1l1.7-0.5l-0.1-1.1l0-0.1l2.6-2.3l4.5-2.4l0.6,0.5l2.3,2.1
		l2.1,1.7l4.9,3l2.9,0.9l0.3,0l2-0.1l3.3-0.1l0.5-0.7l0.3,0.4l0.8,0.5l0.5,0.1l3.1,0.4l0.8-0.6l2.1-1l1.6-0.6l2.8,0.1l0.3-0.1
		l7.5-1.5l2.7-3.5l1.4-5.5l1.5-4.4l2.1-3.1l0.4-0.1l1.3,0.2l3.1-0.1l4,0.5l2.9,1l4.3-2.5l3.4-0.4l0.3,0.2l-0.1-0.5l0-0.4l0.1-0.4
		l0.4-0.3l6.9-2.5l2.2,0.9l0.1,0.7l0.4,0.8l0.1,0.2l0.4,0.1l0.5,0.1l3.2-0.3l0.2-0.1l0.5-0.5l0.2-0.2l0.1-0.3l0.6-2.3l0.8-0.8l1,0.8
		l-1,2l0,0.2l1.3,3l0.4,0.5l1.1,0.4l0.9,0.2l0.9,0.1l0.9-0.1l0.2,0l8.2,3.1l0.2,0.1l1.7,0.9l0.1,0.1l0.4,0.7l1.3,2.1l0,0.4l-0.1,4
		l4.9,10.4l0.7,2l0,2.9l-1.2,2.7l-0.2,1.2l-2,14.3l-0.2,1.6l-0.9,1.2l-0.7,2.5l0.3,0.2l0,0.1l-0.2,1.1l-0.7,3.2l-1.2,3.7l-0.3,0.5
		l-1.5,2l-1.4,1.7l-1.4,2.7l-0.3,2.4l-0.4,2.4l-0.1,0.7l-0.3,0.2l-1.4,0.1l-0.5,0l-2.1-0.4l-5.5-2.1l-2.1-0.8l-0.1-0.8l0.8-2.4
		l-0.8-3.8l-2.1-6.2l-1.3-1.3l-5.3-4.5l-0.5,0.4l0.2,0.7l-0.1,1.4l-4.8,0.7l-0.5,0.1l-0.2,0l-4.6-1.7l-0.2-0.1l-0.2-0.2l-1-1.1
		l-0.2-0.2l-0.1,0l-0.7,0.1l-0.4,0.5l-0.3,0.6l-1.9,5.8l0.1,0.2l3.6,3.2l0.2,0.2l0.4,0.2l3.5,0.9l0.7-0.2l0.4,0.2l0.3,0.2l0.3,0.4
		l0.1,0.9l-0.7,2.5l-5.3,1.9l-11.2,5.7l-2,1.1l-1.1,1.4l-0.6,0.2l-8.4,2.7l-0.8,0.1l-1.8,0.1l0.3,0.5l0.2,3.2l-0.1,0.4l-0.3,0.8
		l-2.5,1.7l-0.6,0.2l-1.2,0.2l-0.1,0l-0.4-0.1l-0.6-0.4l-0.3-0.1l-1.9-0.4l-0.2,0l-7,0.9l-1,0.1l-7.2,4.3l0.2,0.5l0.2,0.9l0,0.1
		l-1.8,4.2l-0.9,0.6l-1.9,2.4l-3.9-1.9l-2.1-0.2l-5.9,4.5l-3.4,3.7l0.1,0.7l-1.9,4.5l-1.5,0.3l-3.1-1l-5.5,0.5l-0.6,0.2l-0.2,0.1
		l0,0.2l-0.4,2.1l-0.1,2.1l0.1,0.7l0.2,0.4l0,0.5l0,0l-0.1,0.4l-0.2,0.4l-2,2.5l-0.4,0.3l-2.1,1.3l-0.7-0.3l-2.9-1.9l-4.2-2.7
		l-0.7-0.4l-0.1,0l-5.3,3.2l-3.7,2.1l-1.1,0.1l-5,0.6l-4.5,1.2l-7.4,9.3l-2.1,3.1l-1.9,3.8l-0.2,0.8l-0.3,2.8l0.2,0.5l0.1,0.1
		l0.2,0.1l0.2,0.2l0.4,0.7l-0.2,1.9l-0.3,0.2h-0.8l-0.8-0.1l-1-0.2l-0.2-0.1l-0.1-0.1l-0.8-1.3l-0.3-0.6l0-0.3l0.5-0.2l0.2-0.1
		l0.2-0.8l-0.2-1.6l-5.8-8.4l-1.1-1.3l-0.5,0l-2,0l-2.7,0.1l-0.4,0.3l-0.5-0.6l-2-0.8l-4.5-1.3l-1.2-0.2l-0.4-0.3l0.3-1.8l0.2-1.7
		l0-0.4l-2.6-2.6l-0.7-0.6l-0.9-0.2l-1.6-1.1l-0.5-0.5l-0.1-0.2l0.4-0.7l0.6-0.5l1.6-0.9l1.8-1.7l0.3-0.5l0-0.3l-0.2-0.5l-2-1.9
		l-0.8-0.8l-1.1,0.1l-0.9,0l-0.3-0.5l-0.7-1.8l0-0.1l0.1-0.3l3.1-4.4l0.4-0.2l0.7-0.3l0.2-0.1l2.2-2.3l0.1-0.8l1.3-1.2l0.1-0.1
		l0.4-0.1l0.8,0.8l0.4,3.1l-0.5,2.8l4-0.2l2.5,0.3l1.2-0.8l0.4,0.1l0.8-0.1l0.2-0.1l0.1-0.1l0.1-0.5l-0.2-0.4l-0.1,0l-0.7,0
		l-0.4,0.3l-2-0.6l0.3-0.8l0.2-0.1l0.5-0.2l3.2-1.4l3.6-1.6l0.1,0l1.9-0.4l2-2.1l0.1-0.1l1.1-1.4l0.2-1.3l-3-0.8l-0.8-0.8l-2.5-4.4
		l0-0.3l0-0.5l0.1-1l0.8-5.4l0.5-1l0.6,0.7l1.3,0.1l4.4-1.6l0-1.4l0-0.1l1.6-1.3l0.3-0.1h1.6l0.6,0.2l0.6,0.7l0,0.1l1.3-0.4l0.2-0.1
		l0.9-2.6l0-1.2l1.5-1.2l0.3-0.1l3.2-0.8l1.9-0.3l0.6,0.1l1.4-0.3l2.8-0.9l0.8-1.2l-0.5-0.4l-0.3-0.3l-0.7-1.1l-0.1-0.3l-0.6-2.3
		l-0.3-1.6l-2.4-0.6l-2.4-0.9l-2.5-1.9l-0.3-1.8l0.1-1.2l0.1-0.7l-0.2-0.9l-0.2-0.3l-0.4-0.2l-2.9-1.1l-7.7-2.4l-0.1,0l-3,1.5
		l-1.4-1l-2.3-2l0.7-0.6l0.1-0.4l-0.5-0.6l-0.3-0.2l-2-0.4l0-7.2l-0.4-2.4l0-0.3l-0.4-1.9l-1.3-1.8l-1.7-4.5l1.6-0.9l1.3-0.5
		l-0.2-1.6l-1-5.5l-0.2-0.7l0-0.1l-0.1-0.1l-1-3.4l-0.4-1.4l2.4-5.3l0.2-2.4l3.5-3.1l5.3-2.8l0.7-0.1l2.5-0.1l2.3-0.2l7.5-2.2l2-1
		l0.3-1.1l2,1.4l1.6-0.8l0.8-0.6l0.8-0.6l0.2-0.2l0.7-1.9l0.1-0.6l0.1-0.2l0.3-0.3l0.4-0.2h1l0.5,0.1l0.3,0.1l1,0.4l0.7,0.5l0.1,0.1
		l0.9,0.4l9.5-0.2h0.1l6.6-0.3L494.3,373.3L494.3,373.3z"/>
	<path id="Saarland" class="st0" d="M58.4,586.3l0.5,0.3l7,2.2l1.3,0.2l4.4,0.3l7.1-1.2l4.3-1.2l0.6-0.3l1.3-0.8l0.2-0.1l0.5-0.5
		l0.2-0.3l0.6-0.6l0.3-0.2l0.8-0.4l3-1.2l1.9-0.7h0.4l0-0.1l0.1-0.1l0.1-0.1l3-1.8l0.4-0.1l2,0.3l0.9,0.2l-0.1,0.3l-0.2,0.7l0,0.2
		l0.1,0l1.6-0.6l0.5-0.5l0.6-0.6l2.6,1.7l3.3,3l6.1,3.3l0.8,0.1l0.8-0.3l1.1-0.6l0.4-0.4l0.2,0.3l0.4,0.7l0.5,1l0,0.2l0.1,0.8
		l0.1,4.4l-0.5,5.2l-1.7,0.5l-0.4,0.3l0,0.1l0.2,1l0.1,0.4l2.5,1.7l0.1,0.8l-0.3,1.5l0,0.4l5,2.9l0.7-0.2l1.2-0.6l0.4,0.4l-0.6,0.4
		l-0.7,4.3l0,0.1l0.6,0.4l-0.5,2.3l-0.6,0.8l-0.4,0.4L123,617l-1.4,0.7l-2.9,1.9l-1,1.3l0,0.2l0,0.6l1,3.1l0.9,1.2l1.8,2.6l0.2,0.2
		l0.3,0.2l1,0l-0.5,0.9l-4.4,3.5l-0.4,0.2l-0.7-0.2l-1-0.7l-1.5-0.6l-4.1-0.4l-0.4,0.1l-0.7,0.3l-0.6,0.7l-0.2-0.1l-0.8-0.5
		l-0.5-0.3l-1.3-1.2l-1-1.7l-0.8,2.5l-1.6,1.6l-0.7,0.2l-0.3-0.1l-0.3-0.3l-0.2-0.5l-0.7-3.8l-0.2-1.4l0.1-0.5l-1.2-1.9l-2.2-1.7
		l-2.3-0.8l-1.4-0.4l-4-0.5l-1.4,0.9l-0.1,0.2l0.4,0.4l0.6,0.8l0.6,1.9l0,0.3l-0.2,0.4l-0.9,1.5l-1.7,0.3l-5.5-1l-1.2-1.3l-0.6-1.4
		l1.4-1.8l-0.5-1.4l-2.1-1.2l0.1-1.8l0-0.2l-1.3-3.2l-1.9-1.7l-1.6-0.9l-0.3-0.3l-0.9-1.2l-0.3-0.5l-1.4-2.5l-0.1-0.2l-1.5-6
		l-0.1-0.4l0.1-0.3l0.7-0.5l0.6-0.1l-0.4-0.6l-0.5-0.6l-0.5-0.4l-4.3-3.3l-2.3-0.9l-1.7,0.3l-0.3,0.2l-0.7,0.2l-1.3-0.1l-0.5-0.6
		l-0.4-6.2l0.1-0.2l0.3-0.4L58.4,586.3L58.4,586.3z"/>
	<path id="Rheinland-Pfalz" class="st0" d="M177.7,474.3l-0.9,1l-0.1,0.4l-0.1,0.5l0,0.9l0.9,4.9l0.1,0.3l0.4,0.2l1.2,0.7l0,0.6
		l-0.4,1.2l-0.7,1.8l-0.3,0.7l-0.8,1.9l-0.2,0.4l-0.8,0.1l-1.1-0.2l-1-0.3l-0.5-1l-1.2-0.5l-0.3,0l-0.6,0.2L171,488l-2.4,2.8
		l-0.5,1.1l-0.5,2.4l0,0.3l0.5,1.3l0.7,1l-1.8,4.9l-0.3,0.8l0.5,0l5.3,3.5l2.7,4.9l0.2,0.4l0.1,0.2l0.7,2.2l0.1,0.4l0,1.9l-2,1.2
		l-2.1-0.9l-0.7-0.1l-0.9,0.3l-1,1.3l0.2,0.5l1.7,1.6l0.4,0.3l0.1,0.2l-1.7,1.9l-0.3,0l-1-0.2l-1.8-1.1L163,523l-0.3,0.2l-0.6,0.4
		l-1.5,2l-0.1,0.1l0.1,1.3l0.4,0.5l0.5,0.3l0.8,0.6l1,0.9l0.1,0.4l-0.4,3l-0.3,0.4l-2.3-0.6l-0.4-0.1l-4.2,3.5l-2,1.1l-0.9,0.2
		l0.7,1.9l5.4,7.6l0.5,0.3l0.3,0.1l0.4,0l3.3-0.1l2-0.3l0.3-0.1l7-2.7l4.1-1.9l2.5-0.8l0.9-0.1l1.1,0.1l1.9,0.4l0.6,0.2l1.2,1.1
		l0.7,0.7l0.4,0.6l0.8,1.2l1.3,1.2l0.7,0.8l0.4,0.6l0.5,0.8l0.5,1.2l0,1l0.6,1.9l0.1,0.6l0,0.5l-0.1,0.3l-0.3,0.6l-0.3,0.6l-0.1,0.4
		l-0.1,0.5v0.4l0.2,0.8l2.2,5.6l0.3,0.5l1,1.4l0.5,1l2.8,2.9l0.3,2.3l-0.6,1l-0.1,0.3l-0.1,0.2l-0.4,0.6l-0.5,0.4l-0.4,0.2l-0.4,0.2
		l-1.5,0.3l-0.7,0.3l-0.5,0.2l-0.5,0.3l-0.6,0.5l-0.1,0.1l-0.2,0.4l-0.1,0.2l-0.2,1l0.1,0.5l1.6,5.1l0.5,0.9l1.6,2.4l0.5,1.2
		l-0.1,1.1l-0.4,0.7l-0.1,0.5l0,0.4l0,0.4l0.1,0.3l0.4,0.8l1.1,4.4l0.1,0.6l0.4,3.2l-0.2,0.2l-0.2,0.2l-0.1,0.3l0,0.4l0.1,0.2
		l0.2,0.2l0.3,0.2l0.2,0.1l0.6,0.1l0.7,0l1,0l0.6,0.1l0.4,0.2l0.3,0.4l0.1,0.3l0,0.3l-0.8,2.1l0.2,2.3l0.1,0.9l0,0.6l-0.2,0.9
		l-0.4,0.8l-0.6,0.9l-0.5,0.5l-0.4,0.3l-0.4,0.3l-0.5,0.5l-0.2,0.3l-0.1,0.3l0,0.2l0,0.4l0.1,0.4l0.2,0.2l0.2,0.1l1,0.3l0.2,0.1
		l0.4,0.3l0.2,0.4l0.1,0.5l0,0.4l-0.1,0.2l-1.4,0.7l-1.8,2l-0.5,0.4l-1.4,0.9l-0.6,0.3l-0.5,0.4l-0.4,0.4l-0.3,0.5l-0.2,0.6
		l-0.1,0.7l0,0h0.1l0.2,0l0.2,1.8l-2.4,10.3l-0.2,0.5l-0.4,0.7l-0.7,0.8l0,0l-1,1.1l-0.7,1.1l-0.4,0.7l-0.5,1.2l-0.2,0.9l-0.2,1.4
		l-0.1,0.3l-0.1,0.3l-0.4,0.9l-0.3,0.5l-0.3,0.5l-0.4,0.4l-1.1,0.8l-1.6,1.2l-0.4,0.2l-0.3-0.6l-0.2-0.3l-0.1-0.1l-3.5-0.4l-0.3,0.1
		l-1,0l-0.9-0.2l-3-1.2l-1.6-0.7l-0.1-0.3l-0.7-0.8l-0.7-0.7l-5-2.4l-3.3-0.9l-1.3-0.1l-1-0.5l-4.9-0.7l-3.4,0.8l-0.3,0.1l-1.9,0.1
		l-3.9-0.2l-2.9-1.1l-4.5-2.7l-0.9-0.6l-1.4-1.2l-2.1-4l0-0.8l0.2-1.2l-0.2-1.4l-3.2-1.6l-2.4,0.4l-2,0.4l-1.1,0.3l0,0.5l0.1,0.3
		l0.2,0.3l-1,0l-0.3-0.2l-0.2-0.2l-1.8-2.6l-0.9-1.2l-1-3l0-0.6l0-0.2l1-1.3l2.9-1.9l1.4-0.7l0.6-0.3l0.4-0.4l0.6-0.8l0.5-2.3
		l-0.5-0.5l0-0.1l0.7-4.3l0.6-0.4l-0.4-0.4l-1.2,0.6l-0.7,0.2l-5-2.9l0-0.4l0.3-1.5l-0.1-0.8l-2.5-1.7l-0.1-0.4l-0.2-1l0-0.1
		l0.4-0.3l1.7-0.5l0.5-5.2l-0.1-4.4l-0.1-0.8l0-0.2l-0.5-1l-0.4-0.7L117,586l-0.4,0.4l-1.1,0.6l-0.8,0.3l-0.8-0.1l-6.1-3.3l-3.3-3
		l-2.6-1.7l-0.5,0.6l-0.5,0.5l-1.6,0.6l-0.1,0l0-0.2l0.2-0.7l0.1-0.3l-0.9-0.2l-2-0.3l-0.4,0.1l-3.1,1.8l-0.1,0.1l-0.1,0.1l0,0.1
		h-0.4l-1.9,0.7l-3,1.2l-0.8,0.4l-0.3,0.2l-0.6,0.6l-0.2,0.3l-0.5,0.5l-0.2,0.1l-1.3,0.8l-0.6,0.3l-4.3,1.2l-7.1,1.2l-4.4-0.3
		l-1.3-0.2l-7-2.2l-0.5-0.3l-1.4-2.2V584l0.1-0.2l1.3-2l0.4-0.5l0.2-0.1l0.5,0l0.3-0.1l0.2-0.3l1.2-1.3l5.8-9.4l1.5-5.1l0-0.6
		l-0.6-4.2l-2-1.3l-1.5,0.9l-1.5,0l-0.1,0l-1.8-1l-0.2-0.2l-3.1-3.1l-5.6-3.4l-1.8-2.1l-3.3-5.6l-0.4-1l-0.3-0.8l-1.2-2.9l-1.5-6.1
		l0.3-3l2-7.2l2.5-2.1l-0.3-4.2l0.2-1.3l0-0.1l0.2-0.2l7.5-4.8l0.4-0.9l1.2-2.5l0.4-0.2l1-0.2L61,508l2.8-0.7l1.4,0.1l-0.7-1.1
		l-0.5-0.8l-0.2-0.5l-0.7-2.7l-0.3-1.3l1.9-0.4l2.2,1.9l0.1,0.1l0.7,1.1l4.8-0.7l4.7-1.6l1.3,1.4l0.1,0.2l3.8,1.6l3.2,0.9l3-0.9
		l0.8,0.1l0.6,0.1l-0.9-1.5l-1-1.8l-0.1-6l3.2-2.1l0.4,0.3l2.4,1.6l0.7-0.2l2.4-1.1l1.9-7.8l0.2-1.4l2.2,0.3l0.7,0.1l1.7-0.8
		l0.2-0.1l1.1-1.1l0.9-1.1l2.6-0.4l5.3-1.2l1.6-0.5l1-1l0.1-0.1l0.4-1.4l0.1-0.5l0.3-0.6l0.3-0.1l0.5,0l0.1,0.3v0.5l-0.1,1.6l0,0.4
		l3,0l1.6-0.4l0.8-0.2l2.8-0.9l1.3-0.7l0.2-0.3l0.5-2.1l0-1.6l-0.1-1.5l0.5-1l0.5-0.5l1.9-0.1l2.1,0.7l0.3-0.2l0.9-0.4l13.1-4.7
		l0.5-0.4l1.1-1.4l0.4-0.9l-0.2-1.6l-0.3-0.3l-1-0.8l0.6,0.1h0.3l1.6-0.6l0.1,0l2.4-2.1l1.3-1.8l-0.6-5l0.5-0.5l2.4-2.1l0.4-0.2
		l1.3,0.3l2.3,1.7l-0.5,0.8l-0.4,0.9l-0.5,1.6l-0.1,0.4l0,0.3l0.1,0.5l2.3,0.6l1.1,0.3l4.9,2.8l0.3,0.2l0.3,0.3l0.5,1.4l0,0.6
		l-0.2,2.1l-0.1,0.2l-0.4,0.4l-0.1,0.7l-0.1,0.9l0.2,1l0.3,0.5l0.6,0.8l0.3,0.3l1.5,1.4l1.5,1.5l0.4,0.4l0.1,1.6l-0.3,1.5l2.6-0.9
		l1.3,0.3l0.7,0.6L177.7,474.3L177.7,474.3z"/>
	<path id="Nordrhein-Westfalen" class="st0" d="M264,376.8l-1.3,2.2l-3.8,4.6l-3.2,5.3l-4.5,3.5l-4.3,3.5l-0.7,1l-0.6,1L245,398
		l-2.8-0.2l-0.6-0.2l-0.3-0.2l-0.2-0.2l-0.6-1.6l0.7-1.8l-1.2-2l-2.9-1.2l-1.2,0.1l-2.2,0.5l-1.6,0.5l-2.9,1.2l-0.7,0.7v0.4l0.2,0.7
		l2.5,4.1l0.5,0.1l0.3,0.2l0,0.2l0.2,1.4l-0.8,2.5l-0.1,0.1l-3.4-0.2l-4.2,0.1l-3.8,1l-5,1.5l-3,1.9l-1.1,0.7l-1.1,1.4l-2.6,3.8
		l-0.6,0.9l2.1,2.9l0.2,0.2l0.3,0.1l0.8,0l0.1,0l1-0.7l4.6-2.1l0.7-0.1l0.9,0l0.9,1.2l0.1,0.3l0.7,6.4l0.2,2l-0.1,0.4l-0.3,0.7
		l-2.8,6.2l-3.2,1.2l-0.4,0l-1.1-0.3l-0.8-0.3l-1.7-0.3l-2.8-0.2l-0.1,0.1l-1.3,0.5l-0.1,0.1l-0.8,0.6l-0.5,0.5l-0.4,0.6v0.2
		l0.1,0.3l1.1,3.3l0.7,1.5l0.4,0.9l-0.5,0.7l-0.4,0.4l-1,0.9l-1.4,1.6l-0.9,0.9l-0.1,0.2l0,0.2l0.3,0.4l-0.2-0.1l-0.6,0l-0.1,0.1
		l-0.4,0.2l-0.1,0.1l-0.6,2.6l-4.3,6.5l-1.1,1.2l-0.1,0.1l-0.5,0.1l-0.2-0.1l-4.1-2.2l-0.2-0.1l-1,0l-0.2,0l-0.2,0.2l-9.5,9.3l0.4,1
		l0.4,0.8l0.8,1.5l0.8,1.1l0.2,1l-0.1,0.4l-2,3.7l-0.7,1l-1-1.2l-0.7-0.6l-1.3-0.3L172,473l0.3-1.5l-0.1-1.6l-0.4-0.4l-1.5-1.5
		l-1.5-1.4l-0.3-0.3l-0.6-0.8l-0.3-0.5l-0.2-1l0.1-0.9l0-0.7l0.4-0.4l0.1-0.2l0.2-2.1l0-0.6l-0.6-1.4l-0.3-0.3l-0.3-0.2l-4.9-2.8
		l-1.1-0.3l-2.3-0.6l-0.1-0.5l0-0.3l0.1-0.4l0.5-1.6l0.4-0.9l0.5-0.8l-2.3-1.7l-1.3-0.3l-0.4,0.2l-2.4,2.1l-0.5,0.5l0.6,5l-1.3,1.8
		l-2.4,2.1l-0.1,0l-1.6,0.6h-0.3l-0.6-0.1l1,0.8l0.3,0.3l0.2,1.6l-0.3,0.9l-1.1,1.4l-0.5,0.4l-13.1,4.7l-0.9,0.4l-0.3,0.2l-2.1-0.7
		l-1.9,0.1l-0.5,0.5l-0.5,1l0.1,1.5l0,1.6l-0.5,2.1l-0.2,0.3l-1.3,0.7l-2.8,0.9l-0.8,0.2l-1.6,0.4l-3,0l0-0.4l0.1-1.6v-0.5l-0.1-0.3
		l-0.5,0l-0.3,0.1l-0.3,0.6l-0.1,0.5l-0.4,1.4l-0.1,0.1l-1,1l-1.6,0.5l-5.3,1.2l-2.6,0.4l-0.9,1.1l-1.1,1.1l-0.2,0.1l-1.7,0.8
		l-0.7-0.1l-2.2-0.3l-0.2,1.4l-1.9,7.8l-2.4,1.1l-0.7,0.2l-2.4-1.6l-0.4-0.3l-3.2,2.1l0.1,6l1,1.8l0.9,1.5l-0.6-0.1l-0.8-0.1l-3,0.9
		l-3.2-0.9l-3.8-1.6l-0.1-0.2l-1.3-1.4l-4.7,1.6l-4.8,0.7l-0.7-1.1l-0.1-0.1l-2.2-1.9l-1.9,0.4l0.3,1.3l0.7,2.7l0.2,0.5l0.5,0.8
		l0.7,1.1l-1.4-0.1l0.3-1.2l0-0.1l-0.5-0.9l-2.4-2.9l-0.1-2l0.6-1l0.3-0.8l0.5-2.5l0.1-0.7l-0.1-1.1l-0.2-0.5l-1.7-2.9l-0.5-0.7
		l-1.1-0.7l-0.2-0.3l-0.2-0.2l-2.5-0.4l-1.2,0l-0.1,0l-0.5,0.4l-1,0.4l-0.1,0l-0.1,0l-2-2.8l-0.3-0.6l-0.5-1.6l-0.1-1.5l0.1-0.3
		l3.3-3.1l0.8-3.6l-3.5-0.9l-0.9-1.1l0.2-0.1l1.1-0.4l-0.8-0.7l-0.5-0.7l-1-1.6l-0.3-0.5l-0.1-0.5l-1.3-3.4l-0.3-0.3l-0.2-0.1
		l-4.5-2.5l-2.7-4.5l1.6-5.2l0.2-0.7l1-0.4l1-0.3l0.4,0l0.1,0.3l1,0.5l1.1-2.6l-0.1-0.7l-0.3-0.4l-0.3-0.5l-0.1-0.5l0.4-1.5l0.1-0.2
		l0.4-0.4l0.1-0.3l0.1-0.4l-0.8-0.3l-1.3-0.6l-2.4-0.9l-0.1-1.4l0.1-1.4l0.6-1.2l0.3-0.9l0-0.1l-0.5-0.1l-3.9-0.3l-2.5,0.6l-0.9-1
		l-1.4-3.1l-0.6-3l0-0.5l0.1-0.1l3-1.3l6.2-2l7.9-5.3l1-2.9l2.4-1l0.4-0.2l-1-0.8l-1.1,0.4l-1.7,0.8l-0.5,0.3l-0.1,0.2l-0.2,0.2
		l-0.4,0.2l-0.3,0.1l-0.4,0l-0.2,0l-0.5-0.1l-0.5-1.1l-0.1-3.2l1.2-3.4l7.2-9.1l2.3-2.5l-1-3.6l0.6-3.2l0.5-1.6l0.3-2.3l0-0.7
		l-0.5-4l-0.7-1.4l-2.6-4.2l-0.7-0.5l-3.3-3.8l0.2-1.1l-0.2-4.5l-3.2-1.5l-0.4-0.5l-0.1-0.1l-1.9-6.2l-1.5-7l1.5-2.5l4.4-2l2.2,0.1
		l4.9-0.7l2-1.3l4.9,0.2l0.2,0.1l0.7,0.3l0.7,0.4l3,1.9l1.9,1.7l1.3,0.7l0.4,0.1l-1.1-3.5l0-0.3l0.3-0.9l0.2,0l2.1,0.9l4.9,0.1
		l0.9-0.5l1.5-0.8l2.9-1.1l5.8-2l0.6-0.1l0.5,0.3l0.3,0.5l1.4,1.4l0,0l0.7-0.2l1.2-0.8l1.2-0.9l1.3-1.3l2.7-3.4l0.3-0.6l0-0.2
		l-0.1-1.4l-0.2-0.8l-4.5-3.8l-2.4-1.3l1.5-3.5l1.5-2.5l5.7-1.8l0.6-0.1l0.8-0.7l0.4-0.4l0.4-1.6l0.2-0.8l1.8-2l7.7-4.8l2.5-1.5
		l2.1-0.1l0.7-1l0.2-0.3l0.6-0.6l2.1-0.5l2.6,0.3l1.3,0.1l5,0.3l0.9-1l0.4-0.6l0.8-0.1l1-0.1l1-0.5l0.3-0.5l0.3-0.7l0.6-0.5l3.7-2.7
		l4.2-2.6l1.7-1l0.3,0l0.3,0l2.3-1.2l1.8-3.2l0.1-0.7l-1.4-0.7l-0.7-0.5l0.5-1.5l0.4-0.8l0.6-1l0.8-1l0.2,0.1l4.6,1.8l0.2,0.2
		l0.2,0.3l0.5,1.1l1.6,4.5l5.1,3.1l2.2,0.3l1.3-0.6l0.3-0.2l1.6-0.4l2.8,1.7l1,1.7l0.7,2.5l-2.1,2.2l-0.1,0.4l0,0.5l0.1,0.6l0.2,0.2
		l1.4,1.4l-1.1,0.7l-2.7,5.8l0,0.1l0.2,0.8l0.3,1l0.3,0.5l1.2,0.9l0.1,0l2.3,0.5l2,1.8l0.2,4.1l-3.2,1l-3.7,1.2l-0.9,0.7l0,0.1h0.3
		l1.4,2.3l0.2,1l1,0.5l1.8,0.8l1.1,0.4l0.6-0.9l0.4-0.5l2.3-1.7l0.2,0l1.5,0.1l1,0.1l1.1,0.3l0.3,0.6l2.3-1.4l1.6-0.4l4-2.9l1.7-1.6
		l1.4-1l0.6,0.1l2.9,0.6l2.4,0.9l3,0.3l-0.2-0.7l-0.1-0.6l0.1-0.3l0.3-0.5l0.4-0.4l2.2-1.5l0.2-0.1l0.6,0l0.4-0.1l0.5-0.3l0.2-0.2
		l1-1.1l0.5-0.6l0.6-0.8l-1.2-0.6l-1.2-0.4l-0.4,0L203,320l-0.8-0.7l-0.5-1l-0.1-0.2l1.1-4.5l0.5-1l-0.2-3.3l0.1-1.8l-1.6-4.6
		l-2.2-1.7l-5.2-3.9l-0.6-3.2l-0.5-1.1l0.4-0.3l0.4,0.1l2.4,0.6l0.3,0.3l0,0.2l0.5,0.5l3.4-0.3l1-0.1l1.5-1.3l0.1-0.3l0.2-1.3
		l0.1-1.4l3.1-2.4l3.1,1.5l5.9-3.1l2.1,1.7l0.7,0.7l0.2,0.6l0,0.3l-0.3,1.3l0.2,7.6l0.2,1.5l0.5,0.4l1.8,0.8l6.7-0.1l5.1-1.1
		l0.2-0.1l2.9-3.8l2.1-2.8l0.8-1.4l1.6-2.1l2.3,0.5l2.7,1.2l0.2,0.7l0.1,0.2l-1.8,4.1l0.9,2.3l-0.1,0.7l-0.2,0.5l-1.5,3.1l-0.8,1.5
		l-0.1,0.1l-0.7,0.7l-0.8,0.5l-1.2,0.2l-1,0.5l-1,0.7l-0.7,0.5l-2.3,4.8l0.5,1.6l0.2,0.1l0.3,0.1l1.6,0.4l2,0.8l2.5,1.7l-0.1,0.2
		l-2,4.9l-1.5,0l-2.3-1.2l1.9,2.5l3.5,2.7l3.5,0.7l0.9,0.3l0.2,0.1l0.5,0.6l0.3,1l-0.3,2.2l1.3,1.2l0.9,1.6l-0.1,0.1L248,334
		l-0.5,0.7l0,0.2l0,1.8l0.3,6.2l0.6,1.5l5.7,4.1l0.9,0.5l1-0.2l0.1,0l0.3,0.1l1.1,0.6l0.1,0.1l0.5,0.8l0.3,1.3l0,0.6l-0.1,1
		l-0.5,2.4l-0.2,0.1l1-0.6l0.3-0.2l0.6-0.2l0.2,0l0.4,0.1l1.5,0.6l0.6,0.3l1.8,1.8l0,3.4l-1.2,3l-1.8,5.6l-0.9,7.2l0.5,0.3l0.3,0.1
		h0.2l1.6,0l0.1,0l0.5-0.2l0.1,0l0.6-0.2l0.2,0L264,376.8L264,376.8z"/>
	<path id="Niedersachsen" class="st0" d="M209.4,175.4l-0.9-2.2l-1.2-3l0-2v-1.3l0.1-0.7l3.8-11.4l0.5-1.4l1-2.6l2.2-2.9l0.8-0.8
		l1.8-0.5l1.3-0.3l1.1-0.1l0,0.5l0.1,0.3l0.1,0.3l1.5,1.8l2.8,2.1l1,0.7l0.6,0.3l0.7,0.2l1.6,0.2l5.1,0.4l1.6-0.3l0.3-0.1l0.1-0.1
		l0-0.1l0.3-0.1l2.1-0.4l0.5,0l2.1,0.5l-0.5-0.6l-0.8-2l-0.4-1.2l0.8-0.4l0.9-0.3l0.8-0.1l1,0l3.2,0.2l3.6,0.1l2.1,0l1.9,0.3
		l3.5,1.5l1.8,1.3l2.4,3.4l0.5,1l1.8,3.9l0.8,1.9l0.7,1.3l0.6,0.8l0.9,0.8l2.3,1.7l1,1.1l0.3,0.6l0.8,1.9l0.4,1l0.1,0.5l0.1,1.6
		l0.3,1.3l0.4,0.9l0.4,0.6l2.3,1.8l5.4,3.5l1.6,0.6l1.7,0.2l2.7,0.4v2.8l-0.3,2.2l0.8,0.9l1,2.2l0.1,0.6l3.4,3.5l0.3-0.1l0.8-0.6
		l1.3-1.4l0.3-0.2l0.3,0.2l0.7,0.9l2.1,2l1.6,1.3l0.4,0l2.8-2.1l0.2-0.9l0.6-1.3l0.6-0.7l1.8,1l0.5,0.6l0.4,0.5l1.8,2l2.5,2.4
		l0.4,0.3l0.4,0.1l3.2,0.1l0.4-0.1l0.2-0.1l0.2-0.3l0.6-1.5l0.2-0.3l0.2-0.3l0.4-0.2l2.2-1.2l0.2-0.1l0.1,0l1.6,0.9l5.9,2.7l2.4,1.2
		l0.8,0.6l0.9,0.5l0.6,0.2l4.1,1.2l0.5,0l0.3-0.1l0.4-0.3l0.1-0.1l-0.1,0l0.7-0.4l0.7-0.2l1.1-0.1l4,0l0.2,0.1l0.2,0.1l1,0.8
		l0.6,0.6l1.2,1.5l0.5,0.7l0.3,0.6l1.1,1l0.7,0.4l2.7,1l0.9-0.5l1.1-0.7l1.1-0.7l0-0.3l0-0.1l0.4-0.8l1.4-1.1l2.6,0.7l1.8,0.5
		l2.4,5.6l2.3,4.4l1.1,1.6l0.7,0.7l2.9,2.1l1.2,0.3l0.9,0.2l0.6,0.1l0.8,0.4l0.1,0.2l0,0.4l-0.3,0.9l-0.1,0.2l-0.5,0.6l-0.5,0.2
		l3.6,1.4l0.6,0.3l0.6,0.4l0.9,1l0.2,0.3l0.2,0.4l0,1.4l0,0.3l0.1,0.2l1.1,1.4l3,3.1l0.3,0.2l0.2,0l0.5,0l1.7-0.9l1-0.8l0.3-0.2
		l0.4-0.1l2-0.6l0.4,0l0.5,0l0.4,0.2l0.4,0.3l0.7,0.8l1.2,1.2l0.6,0.4l0.6,0.2l4.4,1.1l0.6,0l0.1,0.1l0,0.1l-2.5,3.6l0,0.1l-0.7-0.1
		l-0.6-0.4l-0.4-0.5l-0.1,0l-0.8,0.2l-0.3,0.7l-0.2,1l-0.6,3.2l0.8,1.9l-0.9,0L391,244l-1.1,0.6l-1.8,1.7l-0.9,1.2l-0.1,0.2
		l-5.7,2.8l-1.1,0.3l-3.2-0.3l-0.3-0.1l-0.1-0.1l0-0.1v-0.3l-0.1-0.3l-0.3-0.3l-0.7-0.8l-3.9-0.8l-9.3-0.4l-0.3,0l-0.3,0.1l-0.3,0.4
		l-0.2,0.7l0,0.8l0.1,0.5l0,0.2l-0.2,0.4l-2.8,3.1l-6.1,0.2l-2.7,0.5l-2.1,0.6l-0.5,2.2l0,0.2l0.2,2.3l-0.1,0.6l-0.1,0.6l2.6,7.2
		l2.6,1.9l3.7,5.3l2.8,5.4l0,0l-0.2,2.2l0.3,1.3l0.3,0.8l0.8,1.3l1.3,1.7l1.8,2.1l-1.7-0.1l-2.2,1.2l-0.6,1.6l0.9,1.8l4.5,5.8
		l1.3,0.8l0.3,0.1l0.2,0.1l0.8,0.7l0.6,0.6l0.1,0.4l0,1.4l-0.1,0.2l-0.8,0.6l-1.1,0.5l-0.2,0.1l-0.6-0.1L363,307l0.4,4.1l0.1,0.1
		l1.4,1.6l1.4,1.4l1.4,2l0.4,1l0,0.1l0,0.1l-0.6,0.8l-1.1,0.2l-0.7,0.2l-1,0.5l-0.3,0.2l-0.3,0.5l-0.4,1l-0.1,0.8l0.1,0.4l0.1,0.3
		l0.2,0.2l0.4,0.3l0.7,0.4l0.5,0l0.9-0.1l0.2,0l0.1,0.1l0.1,0.4l-0.1,1.5l-0.2,0.3l-1.2,1.8l-1.9,1.5l-2,1.4l-0.4,1.9l-0.3,3.1
		l-0.1-0.1l-1.7-0.2l-3.4,0.1l-0.5,0.1l-0.9,0.7l-0.4,0.1l-1.4,0.3l-1.8,0.1l-0.9-0.2h-0.3l-5,0.1l-1,0.2l-1.9,0.6l-0.1,1l0.2,0.4
		l0,0.3l-0.1,0.1l-1.8,1.7l-4.2,0.4l1.7,2.4l3.7,2.8l-1.3,0.4l-0.8,1.1l0,0.2l0,1.6l0.9,0.3l0.8,0.3l0.5,0.6l0.1,0.3l0.1,0.7v0.7
		l-0.1,0.3l-1,1.6l-0.2,0.1l-0.4,0l-0.4,0.2l-2.1,1.8l-0.4,0.5l-0.1,0.5l0,3.5l0.3,2.8l0.7,1.5l1,0.6l3,4.5l0.9,2.2l-0.2,0.5
		l0.1,0.9l0.2,1.3l0.1,0.4l1.3,2l0.3,0.4l0.1,0.1l0.4,0.1l-0.1,0.2l-1.2,0.2l-0.3,0l-2.1,5.5l-0.9,1.8l-4.6,1.2l-2.4,0.3l-0.6-0.3
		l-1.2-1.8l-0.4-0.3l-0.7-0.5l-0.4-0.2l-1.5-0.7l-0.8-0.3l-0.2,0l-2.4,0.6l-0.7,1.2l-0.9,1.9l0.4,0.2l0,0.1l-0.2,0.8l-0.1,0.3
		l-1.5,2.3l-0.1,0.1l-2.6,2.1l-8,5.4l-5.3,1.1L299,403l-3.1,2.1l-0.5,0.2l-0.2,0.1l-0.2-0.1l0.4-0.2l0-0.1l0-1.2L295,403l-1.3-2
		l-0.3-0.2l-3.1,0.4l-3.2,0.5l-0.2,0l-0.4,0.3l-4.4,3.7l-1.1,1.5l1.8,2.8l1.7-0.8l0.5,0l0.1,0.1l0.1,1.4l-0.1,0.5l-0.3,1.2l-2.3,1.2
		l-0.1-0.2l-3.4-1.7l-5.3-2.2l-1.7-0.6l-0.7-1.2l-0.5-0.8l0.1-0.3l0.5-2l0.2-0.4l1.1-1.7l0.5-0.1l1.6-0.3l1.3,0.1l0.7-1.1l0.1-0.2
		l-0.8-4.3l-0.3-1.6l-0.5-0.6l-2.1-3.5l-0.1-0.2l0-0.1l0.1-0.3l2.4-2.7l1.5-0.3l0.2-0.4l0.6-0.8l0.7-0.6l0.7,0.2h0.1l0.1-0.2
		l0.3-0.8l-0.2-0.4l-0.2-0.2l-0.8-0.5l-0.7-0.6l-1.4-1.6l-0.1-0.1l-3.4-1.7l-1,0l-3.2-0.1l-0.7-0.1l-0.7-0.4l-0.3-0.4l0-0.3l0.2-0.8
		l0.2-0.5l0-0.4l-0.1-0.2l-0.3-0.1L264,377l-0.1-0.1l-0.2,0l-0.6,0.2l-0.1,0l-0.5,0.2l-0.1,0l-1.6,0h-0.2l-0.3-0.1l-0.5-0.3l0.9-7.2
		l1.8-5.6l1.2-3l0-3.4L262,356l-0.6-0.3l-1.5-0.6l-0.4-0.1l-0.2,0l-0.6,0.2l-0.3,0.2l-1,0.6l0.2-0.1l0.5-2.4l0.1-1l0-0.6l-0.3-1.3
		l-0.5-0.8l-0.1-0.1l-1.1-0.6L256,349l-0.1,0l-1,0.2l-0.9-0.5l-5.7-4.1l-0.6-1.5l-0.3-6.2l0-1.8l0-0.2l0.5-0.7l0.5-0.3l0.1-0.1
		l-0.9-1.6l-1.3-1.2l0.3-2.2l-0.3-1l-0.5-0.6l-0.2-0.1l-0.9-0.3l-3.5-0.7l-3.5-2.7l-1.9-2.5l2.3,1.2l1.5,0l2-4.9l0.1-0.2l-2.5-1.7
		l-2-0.8l-1.6-0.4l-0.3-0.1l-0.2-0.1l-0.5-1.6l2.3-4.8l0.7-0.5l1-0.7l1-0.5l1.2-0.2l0.8-0.5l0.8-0.7l0.1-0.1l0.8-1.5l1.5-3l0.2-0.5
		l0.1-0.7l-0.9-2.3l1.8-4.1l-0.1-0.2l-0.2-0.7l-2.7-1.2l-2.3-0.5l-1.6,2.1l-0.8,1.4l-2.1,2.8l-2.9,3.8l-0.2,0.1l-5.1,1.1l-6.7,0.1
		l-1.8-0.8l-0.5-0.4l-0.2-1.5l-0.2-7.6l0.3-1.3l0-0.3l-0.2-0.6l-0.7-0.7l-2.1-1.7l-5.9,3.1l-3.1-1.5l-3.1,2.4l-0.1,1.4l-0.2,1.3
		l-0.1,0.3l-1.5,1.3l-1,0.1l-3.4,0.3l-0.5-0.5l0-0.2l-0.3-0.3l-2.4-0.6l-0.4-0.1l-0.4,0.3l0.5,1.1l0.7,3.2l5.2,3.9l2.2,1.7l1.6,4.6
		l-0.1,1.8l0.2,3.3l-0.5,1l-1.1,4.5l0.1,0.2l0.5,1l0.8,0.7l0.3,0.1l0.4,0l1.2,0.4l1.2,0.6l-0.6,0.8l-0.5,0.6l-1,1.1l-0.2,0.2
		l-0.5,0.3l-0.4,0.1l-0.6,0l-0.2,0.1l-2.2,1.5l-0.4,0.4l-0.3,0.5l-0.1,0.3l0.1,0.6l0.2,0.7l-3-0.3l-2.4-0.9l-2.9-0.6l-0.6-0.1
		l-1.4,1l-1.7,1.6l-4,2.9l-1.6,0.4l-2.3,1.4l-0.3-0.6l-1.1-0.3l-1-0.1l-1.5-0.1l-0.2,0l-2.3,1.7l-0.4,0.5l-0.6,0.9l-1.1-0.4
		l-1.8-0.8l-1-0.5l-0.2-1l-1.4-2.3h-0.3l0-0.1l0.9-0.7l3.7-1.2l3.2-1l-0.2-4.1l-2-1.8l-2.3-0.4l-0.1,0l-1.2-0.9l-0.3-0.5l-0.3-1
		l-0.2-0.8l0-0.1l2.7-5.8l1.1-0.7l-1.4-1.4l-0.2-0.2l-0.1-0.6l0-0.5l0.1-0.4l2.1-2.2l-0.7-2.5l-1-1.7l-2.8-1.7l-1.6,0.4l-0.3,0.2
		l-1.3,0.6l-2.2-0.3L157,298l-1.6-4.5l-0.5-1.1l-0.2-0.3l-0.2-0.2l-4.6-1.8l-0.2-0.1l-0.8,1l-0.6,1l-0.4,0.8l-0.5,1.5l0.7,0.5
		l1.4,0.7l-0.1,0.7l-1.8,3.2l-2.3,1.2l-0.3,0l-0.3,0l-1.7,1l-4.2,2.6l-3.7,2.7l-0.6,0.5l-0.3,0.7l-0.3,0.5l-1,0.5l-1,0.1l-0.8,0.1
		l-0.4,0.6l-0.9,1l-5-0.4l-1.3-0.1l-2.6-0.3l-2.1,0.5l-0.6,0.6l-0.2,0.3l-0.7,1l-2.1,0.1l-1.4-1.6l-0.6-1.6l-0.1-0.8l-0.1-0.8
		l0.1-0.5l1.4-3.1l0.7-1.5l1.1-1.4l0.1-2.1l-0.5-1.9l-4.1-7.8l-0.1-0.1l-0.3-0.2l-0.6,0.4l-0.6,1l-0.5,1.1l-1,0.7l-0.3,0.1
		l-10.4-2.9l-1.3-0.5l-3.4-2.5l0-0.3l0.4-2l0.2-1.2l0.8-2.9l0.4-4.1l-0.4-4l2.1-1.7l1.1-0.3l1.6-0.3l0.4,0l6.5,0.4l5.3,0.9l1.3,0.4
		l0.2,0.2l0,0.1l0.4,0.2l1.8,0.5l0.1,0l0.2-0.2l0.6-0.8l0.8-7.2l0.4-4.1l0.6-5.8l1.1-4l2.1-2.9l4.1-6.2l1.4-4.2l0.6-1.8l0.2-1.1
		l-0.5-6.9l0.3-3.4l-1.2-0.9l-0.1-0.8l0-0.8l0.9-2.4l0.8-1.4l0.9-2.1l0.4-5.5l1.1-4.7l0.7-2.1l0.1-0.3l0.1-0.1l0.5-0.2h2.9l-0.4-0.1
		l-2.3-0.6l-1.2-0.3l-0.9-0.1l-3.1-0.3l-7-0.2l-2-0.3l-0.4-0.2l-0.3-0.4l-0.7-1.4l-0.2-0.5l0.1-0.3l1-1.7l0.1-2.6l1.6-12.8l3.4,1.5
		l1,1.4l1.9-1.9l1.1-1.1l-1-1.8l-0.7-0.4l-1.6-1.1l-0.5-0.7l0.3-0.9l4.6-4.8l1.2-1.2l2.7-2l1.1-0.8l2.8-1l1.3-0.3l1.2-0.1l1.7-0.1
		l7.5,0.6l0.4,0.1l0.6,0.4l0.1,0.2l0.5,0.4l0.7,0.4l0.5,0l1.8-0.3l3.9-1.3l4.2-1.2l0.4-0.1l0.6-0.1l0.4,0l0,0.2l0.6,0.1l1.1,0
		l1.2-0.1l3.2-1l6.2-0.6l3.2,0.4l2.9,0.5l1,0.5l0.2,0.3l0,0.5l-0.1,0.2l-0.4,0.6l-0.1,0.7l0.3,2.3l0.2,0.9l0.5,1.4l2.9,0.4l0.3,0.3
		l0.5,0.8l0.6,1.1l3.4,7.9v0.1l-0.1,0.3l-0.1,0.4l-0.3,0.9l-0.3,0.6l-0.9,0.5l-0.9,0.3l-2.1,0.8l-0.4,0.1l-0.9,0l-1-0.8l0.1,2.1
		l0.1,0.9l0.1,0.5l0.2,0.7l0.3,0.7l0.6,0.8l0.8,0.9l0.4-0.2l0.8-0.6l0.2,0l0.9,0l0.7,0.2l1,1.3l1.2,1.8l0.6,1l0.1,0.1l0,0.2l0.2,0.4
		l0.1,0.1l0.6,0.3l1.1,0.3l0.8,0.1l0.4,0l0.6-0.3l0.5-0.4l0.2-0.2l0.7-0.8l0.6-0.8l0.5-0.8l0.7-1.7l0.3-0.8l0.1-0.8l0.2-3.7
		l-0.1-1.6l-0.1-0.2l-0.2-0.5l-0.1-0.2l-0.4-0.3l-1.6,0.6l-0.5,0.2l-2.1-0.4l0.5-4.2l0.3-1.7l0.1-0.3l0.4-0.9l0.3-0.5l0.9-0.9
		l0.9-0.7l1.3-0.5l1.2,0.1l1.4,0.9l0.4,0.6l0.7,1.4l0.9,1.4l1.1,0.6l3.7,1.7l0.2,0l0.4-0.1l0.5,0l1.4,0.2l0.8,0.1l1.9,1.2l0.1,0.1
		l0.1,0.3l0.2,1l0,0.1l-0.2,0.2l-0.3,0.3l0.3,0.5l1.4,1.8v0.2l-0.1,0.2l-0.4,0.5l0.2,0.2l0.3,0.2l1.8,0.2l0.2,0l2.6-2.7l0.1-0.5
		l-0.9-3.9l1.1-5l-0.1-0.1l-1.7-0.3l-5.4-0.3L209.4,175.4L209.4,175.4z M237,225.2l-0.3-0.6l-1.4-1.7l-0.7-0.5l-0.3,0l-1.1,0.7
		l-4.7-0.1l-3.8-1.9l-4.2-2.1l-6.5-0.8l-7.5-4.1l-0.3-0.9l0-0.7l0,0.7l0.2,1.3l0.4,0.9l0.3,0.6l0.7,1.1l1.5,1.2l2.4,1.1l0.8,0.3
		l0.9,0.1l0.8,0.2l0.4,0.3l0.3,0.5l1.6,4.2l0.1,1.3l0.9,0.6l2,2.1l0.5,0.7l0.1,0.6l0.1,2.6l0.5,0.5l0.5,0.5l0.3,0.1l1.1-0.4l0.4-0.1
		l1.3,0l5.3,1.9l3.1,1.2l3.3-2.8l0.1-2l-0.4-4.8l-0.8-1.2l0.1-0.1l0.1-0.1l1-0.4L237,225.2L237,225.2z M170.1,157.3l-1-1.3l-0.1-0.1
		v-0.2l0.4-0.4l0.4-0.2l1.3-0.1l0.7,0l0.7,0.1l1.8,0.4l0.6,0.2l0.2,0.1l1.2,0.9l0.1,0.5l-0.2,0l-1.6-0.6l-3.8-1l-0.1,0l-0.1,0.1
		l-0.3,0.4L170.1,157.3z M179.3,160.5l-0.1,0l-0.3-0.1l-0.3-0.2l-0.2-0.2l-0.1-0.2l-0.4-1.7l0-0.4l0.7-0.9l0.4,0.4l0.4,2.1l0,1.1
		L179.3,160.5L179.3,160.5z M158.7,159.2l-0.5-0.1L158,159l-0.2-0.4l0-0.4l0.3-0.6l0.6-0.8l0.3-0.3l0.3-0.2l0.6-0.2l1.1,0l1.5,0
		l2.4,0.2l0.4,0.1l1.4,0.4l0.4,0.4l0.1,0.1l-0.1,0l-3.7,0.7l-3.7-0.2L158.7,159.2L158.7,159.2z M146,162l-0.2,0l-0.4-0.3l-0.1-0.9
		l0-0.7l0.1-0.3l0.7-1l0.2-0.2l0.6-0.3l0.4-0.1l3.4,0l2.7,0.1l1,0.1l0.2,0.1l0.4,0.1l0.4,0.2l0.1,0.2l0,0.5l0,0.1l0,0l-0.8,0.1
		l0-0.1l0.1-0.1l0-0.1l-0.1,0l-2.1-0.1h-0.2l-1.6,0.1l-2.3,0.2l-0.3,0.1L146,162L146,162z M143.7,162.1l-1.4-0.1l-1.6-0.2l-1.4-0.3
		l-0.3-0.5l0-0.1l0.1-0.1l1.5-0.6l0.3-0.1h0.3l2.1,0.5l0.1,0.1l0.3,1.1L143.7,162.1L143.7,162.1L143.7,162.1z M126.3,163.7l-0.6-0.5
		l-0.3-0.4l-0.1-0.2l0.1-0.2l0.3-0.2l0.4-0.2l1.4-0.6l0.9-0.2l0.5-0.1l7.1,0l1.1,0l0.5,0.1l0.2,0.1l0.2,0.5l0,0.1l-0.9,0.3l-0.6,0.2
		l-7.7,1l-2,0.2L126.3,163.7L126.3,163.7z M110.8,166.4l-0.6,0l-0.1,0l-0.3-0.1l-0.5-0.3l-0.1-0.2l0.1-0.1l0.3-0.1l2.1-0.2l6.9-0.7
		h3.1l0.9,0.2l0.1,0.2l0.1,0.1l0,0.3l-0.2,0.2l-0.1-0.2l-0.1,0l-1.5-0.1l-0.6,0l-0.7,0l-3.5,0.1l-4.7,0.7L110.8,166.4L110.8,166.4
		L110.8,166.4z M101.1,176.9l-0.5-1.1l-0.3-0.2l-0.5,0l-0.4,0.2l-0.1,0.1v0.3l0.1,0.3l0.1,0.1l0,0l-0.1,0l-0.6-0.1l-2.6-2.1
		l-0.4-0.7l-0.2-0.9l0.1-0.4l0.2-0.3l0.1-0.1l0.3-0.1l5.2-1.6l0.3,0l0.6,0.1l0.7,0.3l1.8,1.3l0.5,0.6l0.1,0.2l-5.3,1.5l1.3,1.1
		l0.7,0.8l-0.1,0.1l-0.6,0.4L101.1,176.9L101.1,176.9z"/>
	<path id="Mecklenburg-Vorpommern" class="st0" d="M354.5,140l4.6-3.1l3-1.8l1-0.4l0.4-0.1l2.2-0.5l0.7-0.1l4.9-0.2l0.3,0.2l0.4,0.4
		l3.4,3.8L375,140l0,0.5l0.3,0.8l0.6,0.6l0.6,0.3l0.5,0.2l0.5-0.1l0.1-0.1l1.2-0.8l0.5-0.3l0.2-0.3l1.6-0.4l2.4,1l1.3,0.6l-0.1,0.9
		l0.1,0.2l0.6,0.5l1.3,0.8l0.8,0.4l1.5-2.5l0.3-1l0.6-5.6l0.9-1.8l0.1-0.2l0.4-0.4l1.8-1l0.9-0.3l0.3-0.2l0.5-0.4l0.2-0.2l2.8-4.3
		l0.1-1.2l-0.1-0.3l-0.6-1l-0.2-0.2h-0.2l-0.3,0.3l-1.3,1.3l-0.6,1l-0.8,1l-0.8,0.9l-1.7,2.1l-0.1,0l-0.1-0.1l-0.1-0.9l0-0.5
		l0.1-0.5l0.6-1.2l1.7-2.4l7.6-6.2l0.2-0.1l0.5-0.1l0.6,0l3.4-0.1l0.2,0l0.6,0.3l0.7,0.2l1,0.2l1.2,0.1l1,0l0.9-0.1l0.6-0.1l1.3-0.4
		l7-2.8l4.1,0.6l2.9,0.4l1.5-3.4l2-3.8l0.3-0.5l1-0.9l1.6-1.1l3.5-2.2l1.1-0.7l0.5-0.4l0.5-0.4l0.6-0.6l0.5-0.6l0.6-0.9l4.2-7.9
		l2.7-5.4l2.2-3.8l1.8,1.4l0.8,0.4l0.5,0.1l4.1,0.5l3.6,0.4l7.3-0.2l4.3-0.3l1.3-0.2l1.8,0l1.3,0.1l0.1,0.1l0.1,0.1l0,0.2l-0.1,0.1
		l-2.6,1.7l-0.4,0.2l-1.9,0.5l-4.2,0.3l-2.9,0.1l-1-0.1l-0.1,0l-0.2-0.2l-0.4-0.7l-0.3-0.7l-0.3-0.1h-0.1l-1.5,0.1l-3.3,0.8
		l-3.1,1.9l-8.9,3.3l-0.9,0.8l-2.7,6.4l-0.3,1.9l0,2.5l0,0.1l2.2,1.5l1.1,0.4l1.2,0.1l1-0.2l0.4-0.2l0-0.2l-0.3-0.2l-0.3-0.2
		l-1.2-0.3h-0.5l-0.2-0.1l-0.6-1.2l-0.1-0.9l0.4-1l3.2-3.6l4.7-3.6l6-2.9l5.1,1l4.7,2.1l2-0.4l0.4-0.2l1.4-1.2l0.2-0.2l0.2-0.4
		l0.1-0.5l0-1l0.6-1.5l0.1-0.1l1.4-1.2l0.2-0.2l3.8-1.4l2.2,0.2l4.1,6l-0.8,1.8l0.2,0.8l1.7,5.6l2.5,2.8l1.7-1l0.7-0.3h0.2l6.1,2.9
		l0.1,0.1l0.4,0.7l1.6,3.3l0.3,0.6l0.2,0.4l0.2,0.1l0.2,0l0.3,0.6l2.2,0l2.2,0.8l0,0.1l-1.7,1.5l0.1,0.7l0.2,0.2l0.3,0l0.5-0.3
		l0.2-0.2l0.2,0l1.2,0.8l0.1,0.1l0.1,0.3l0.7,1.4l0,0.9l0.1,0.3l1.1,1.8l0.4,0.3l0.4,0.2l1.5,0.3l0.2-0.1l0.2-0.2l0-0.1l-0.1-0.2
		l-0.4-0.6l-0.5-0.7l-0.7-1.6l0-0.2l0.9-0.8l0.3-0.1l8.8-2.9l3.5-1.1l3.9,3.9l0.6,0.7l0.5,0.9l0.2,0.7l0,0.4l0,4.2l3.3,6.8l3.9,4.1
		l0.7,1l0.4,0.7l0.1,0.3l0,0.2l-0.4,0.6l-0.3,0.3l-0.1,0.1l-0.2-0.1l-0.4,0l-0.4,0.2l-0.3,0.3l-0.8,0.9l-1.8,2.1l-1.5,2.1l0.1,0.4
		l0.6,1.2l0.2,0.2l5.8,3.6l2.1,1.5l1.6,1.4l0.4,0.2l6.8,2.4l1.3,0.4l1,0.2l3.4,0.1l0.3,0l0.2-0.1l1.1-0.9l0.8-0.9l0.4-0.6l0.1-0.1
		l0.4,0l0.7,0.2l0.4,0.2l0.8,0.7l0.4,1.1l1.1,5.7l2,6.4l0.4,3.8l-0.4,2.8l0,0.1l0.3,1l0.7,2l0.8,2.1l0.2,0.1l1.6,2.3l0.4,2.2
		l1.2,4.9l2.5,7.3l0.3,0.7l-0.4-0.1l-0.3,0l-5,2.1l-0.2,0.9l-0.6,1.8l-2,2.8l-0.8,0.3l-2.5,0.4l-5.8-0.2l-1.1-0.1l0.2-1.2l0.1-0.5
		l0.5-0.8l1.6-1.9l0.7-0.7l1-1.1l1.1-1.3l0.8-1l1-1.6l0.4-1l0.1-0.5l0.5-2l0-0.5l-0.2-2.8l-0.4-0.7l-0.7-0.5l-6.3-0.4l-0.7,1.4
		l-3.9,0.1l-2.7-0.4l-3.4,0.6l-0.6,0.3l-1.6-0.7l-1.5-3.2l-1-3.3l-5-5.8l-0.5,0.1l-0.4,0.6l-0.1,0.3l-0.3,1.9l0,0.3l0.2,1.4l1.4,1.2
		l-2.7,2.4l-2.7,0.2l-1.7,1.4l-1,0.9l-6.6,6.3l-0.2,0.5l-1.2,2.8l-0.5,1.6l0.2,1.3l0.3,1.8l0,0.1l-0.1,0.1l-2.1,2.9l-4.7,5l-0.7,0.3
		l-0.4-0.1l-1.1-1.6l-0.1-0.9L507,206l-0.4-0.5l-0.2-0.1l-3.5-0.1l-1.1,0.5l-1.8,1.6l-0.4,0.5l-0.2,0.8l-0.1,1.2l0,0.5l-0.1,0.7
		l-0.5,0.9l-1.5-0.2l-0.2-0.2l-0.8-1.8l-0.2-0.6l-0.3-0.6l-1.9,0.3l-0.2,0l-2.3,1.1l-0.4,0.4l-7,7.6l-0.3,0.2l-0.2,0l-2.1-0.9
		l-0.1-0.1l0-0.1l0.3-0.4l0.9-0.7l1-0.6l0-0.2l-0.2-0.5l0,0l-0.7-0.2l-7.3,0.2l-1.8,0.6l-0.1,0.1l0,0.1l-1.2,0.4l-0.8,0.3l-1.2-0.1
		l-0.4-0.7l-2.5-2.6l-3.4-3.2l-0.8-0.1l-7.7-0.7l-1.8,0.4l0,0.5l-0.2,0.2l-3.3,0.4l-2.5-2.8l-0.5-1.4l-1-0.8l-1.9-1l-0.7-0.4
		l-0.6-0.2l-0.6-0.4l-2-0.6l-3.9-3l-0.3,0l-5.5,1.1l-1.5,0.5l-1.7-0.2l-1.5-0.3l-2.1,3l0.2,1.8l-0.4,0.5l-3.7,2.7l-0.4,0.2l-5,1.8
		l-3.2,0.2l1.1,1.9l0.1,0.3l0,0.1l-0.2,0.2l-5.5,1.2l-0.6,0.1l-0.7-1.5l-1.7-1l-1-0.1l-2.7,0l-0.6,0.4l-3.9,3.5l0.7,4.1l-0.6,2.5
		l-0.3,1l-0.9,0.6l-1.5-0.1l-1.6-0.3l-0.6-0.3l0-0.3l-0.8-0.6l-3.4,0.4l-2.8,2.2l-5.6-0.3l-0.2-0.3l-0.2-0.3l-0.9-1l-0.6-0.4
		l-0.6-0.3l-3.6-1.4l0.5-0.2l0.6-0.6l0.1-0.2l0.3-0.9l0-0.4l-0.1-0.2l-0.8-0.4l-0.6-0.1l-0.9-0.2l-1.2-0.3l-2.9-2.1l-0.7-0.7
		l-1.1-1.6l-2.3-4.4l-2.4-5.6l-1.8-0.5l-2.6-0.7l-1.4,1.1l-0.4,0.8l0,0.1l0,0.3l-1.1,0.7l-1.1,0.7l-0.9,0.5l-2.7-1l-0.7-0.4l-1.1-1
		l-0.3-0.6l-0.5-0.7l-1.2-1.5l-0.6-0.6l-1-0.8l-0.2-0.1l-0.2-0.1l-4,0l-1.1,0.1l-0.7,0.2l-0.7,0.4l1.8-8.1l0.6-1.3l1-0.6l0.5,0
		l0.6,0.3l1.4,0.3l3.8-2.9l0.3-0.3l1-1.1l2.1-2.5l6.6-8.7l0.4-2.4l1.4-1.9l-0.7-3.8l-1.3-1.4l-0.9-0.4l-1.1-0.2l-0.2,0l-0.2,0.1
		l0,0.2l-0.4,0.1l-1.3,0.1l-0.2-0.1l-1.5-0.9l-3.8-3.7l0.4-3.1l0.2-1.5l-0.1-0.5l-0.3-0.9l-0.2-0.4l-1-2.5l0-1.8l1.4-2.3l5.2-3.7
		l2.6,0.2l0.9-2.1L354.5,140L354.5,140z M495.5,62.3l-0.6,0.4l-1.8,1.4l-1.3,1.5l-0.2,0.3l-3,7.5l-0.1,0.2l-0.1,0.9l0.1,0l0.5-0.2
		l0.2-0.2l3-2.9l0.7-1.7l-0.2-0.6l-0.3-0.9l0-0.1l0.1-0.1l1.7-2.3l1-0.3l0.1,0l0.2,0.4l0.2,1.2l0,0.3l-0.1,0.6l-0.3,1l-0.7,1.3
		l-0.3,0.4L494,71l-0.4,2l0,1l2.8-1.3l2.1-1.2l6.8,2.8l0.2,0l0.1,0l1.9-0.2l1.9-0.8l0.1,5.2l-0.1,2.8l-0.1,0.1l-0.4,0l-1.7,0
		l-2.7-0.9l-0.7-0.3l-4-2.3l-0.2-0.3l0-0.3l0.3-3.1l-3.1,0.1l-3.3,0.1l-1.1,0.3l-3.3,0.9l-0.9,0.5l0.6,2.7l0.5,0.9l2-0.1l1.6,0.1
		l2.5,2.3l-0.9,1.6l-0.2,0.1l-2.2,0.8l-1.2,0.2l-1.3,0.3l-1.2,2.6l0,0.5l0,0.1l0.3,0.2l5.3,1.2l0.7,0.1l-1.4,0.9l-5.9,2.9l-0.2,0.2
		l-0.1,0.4l-0.4,2.5l0,1l1.7,5l0.1,0.2l15.5,5.2l1.3-1l0.3-0.3l0.1-0.3l0-0.1l-0.1-0.6l-0.4-0.9l-0.9-1l-0.1,0h-0.6l-0.2,0.2
		l-0.1,0.2l0.1,0.2l0,0.1l-0.6,0.6l-0.8,0.4l-0.4,0l-0.4-0.4l0-1.2l4.2-4.4l3.3-3.2l1.1-0.8l0.3-0.1l10-1.2l0.4,0.1l1.4,2.3l0,0.1
		l0,0.5l-0.2,0.4l-0.1,0.1l-0.8,0.6l-0.1,0L520,99l0,1.5l2.1-0.6l0.9-1.8l1.2-2.5l-0.7-1.7l-1.8-2.9l-1.3-1l-1.3-0.9l-0.1,0.1
		l-0.2,0.1l-0.6,0.1l-1.2,0.1l-0.2,0l-0.3-0.2l-0.4-0.4l-1-1.2l-1.1-2.1l-0.3-0.7l-0.3-1.1l-0.1-1.5l0.1-0.6l0.2-0.3l0.2-0.2
		l0.1-0.1l1.6-1.8l2.1-1.8l0.6-0.3l0.2,0l0.6-0.4l0.6-1.2l0.1-1.1l-0.2-2.1l-0.4-0.5l-0.7-0.6l-1.4-0.9l-0.3-0.1h-0.5l-1.8,0.2
		l-0.4,0l-2.3,0.5l-0.3,0.1l-2,0.6l-2.9,0.5l-0.6,0l-1-0.3l-0.4-0.1l-0.5-0.3l-0.3-0.2l-0.8-0.8l-0.7-1l-0.5-1.1l-0.4-1.5l-0.1-0.9
		l0-0.3l0.3-1l0.3-0.5l0.2-0.1l0.5-0.3l0.4-0.1l0.4,0l0.3-0.1l0.4-0.4l0.2-0.5l0.4-1.4l0-0.1l-0.4-0.5l-0.2-0.3l-3,0.3l-4.5,1.3
		L495.5,62.3L495.5,62.3z M483.1,84.5l0.1,0.3h0.1l0.2-0.3l0.2-0.7l1.1-6.1l0.8-3.9l2.3-1.2l-3-1.1L483,82l-0.1,1l0,0.5l0.1,0.3
		L483.1,84.5L483.1,84.5z M487.9,86l4.3-2.3l0.5-0.4l0.1-0.1l-0.3-0.9l-0.3-0.3l-1.3-0.6l-0.2-0.1l-0.7-0.1l-0.7,0.2l-0.7,0.4
		l-0.8,1.1l-0.2,0.4l-1.1,2.5l0,0.7l0.1,0.2l0.1,0.1L487.9,86L487.9,86z M478.3,86.9l-0.1,0l-0.2,0l-0.2,0.1l-0.2,0.1l-0.1,0.1
		l0,0.1l0.3,0.3l0.2,0.2l0.7,0l3.2-1.1l0.7-0.6l0.4-0.4l-0.5-0.5l-0.2,0.1l-2.8,1.1l-0.4,0.4l-0.5,0.6L478.3,86.9L478.3,86.9z
		 M529.6,112.9l-0.5-0.6l-0.2-0.2l-0.5-0.1l-0.3,0l-0.7,0.2l-0.7,0.4l-0.5,0.4l-0.1,0.2l-0.2,0.4l0,1.3l0.3,1.1l0.2,0.3l2,2.2
		l0.2,0.1l0.5,5l3.7,5.8l0.1,0.2l0.2,0.1l0.2,0l3.8-1.8l0,0l0.4-1.1l0-0.1l-1.3-1.9l-0.4-1.6l0-0.1l0.1-0.1l3.5,0.3l1.5,1.3l2.7,3
		l0.3,0.3l0.2,0.4l0.4,1.1l-0.1,5.1l-3.6-0.6l-0.7-1.5l-0.6-2l-0.2-0.1l-0.5-0.2l-0.7-0.1l-1.9,0.5l-0.1,0.1l-0.1,0.1l-0.4,0.8
		l-0.2,1.4l0,0.2l0.2,0.4l0.3,0.3l1.2,1.5l0.4,0.9l0.8,2.3l0,0.5l-0.4,1.1l-0.3,0.8l-0.2,0.2l-1.1,0.6l-1.3,0.7l-1.3,0.6l-0.4,0.1
		l-0.4,0l-0.3,0l-0.8,1.5l0.7,0.7l1.2,0.5l1.4,0.4l1-0.1l2.6-0.5l2.7-0.8l0.3-0.1l4.2-2.1l7.5-0.8l0.3,0l0.2,0l1.3-6l-3.9-3.2
		l-4.3-3.9l-5.1-4.8l-1.1-0.6l-1.5-0.8l-0.4-0.2l-0.3-0.1l-1-0.2l-1-0.4l-1.8-1l-0.5-0.3l-1.1-0.9l-1.1-1.1l-0.8-0.9l-0.2-0.4
		L529.6,112.9L529.6,112.9z M389.4,137l0.7-2.2l0.2-1.2l-0.1-0.5l-0.1-0.2l-0.3-0.1l-0.9-0.2l-1.1,0.2l-0.3,0.1l-0.5,0.2l-2.3,1.2
		l-1.5,1.1l-0.3,0.6l0.1,1l0.1,0.7l0.2,0.5l0.2,0.3l0.4,0.3l0.4,0.1l3.5,0.7L389.4,137L389.4,137z"/>
	<path id="Hessen" class="st0" d="M295,405.1l-0.2,0.9l0.1,1l0.6,2.2l1.4,3.4l1.2,1.5l3.4,1.2l1.9,0.8l0.9,2.9l4.6,2.3l1.7,0.6
		l0.8,0.5l0.6,0.5l1.3,1.3l1.2,0.3l0.3,0.6l-0.3,0.8l-0.6,0.4l-0.4,0.2l-0.3,0.3l-0.4,1.3l0,0.3l0.4,0.5l0.2,0l0,1.8l0,0.8l-0.2,0.2
		h-0.6l-0.4-0.7l0,0l-0.3-0.4l-0.4-1.3l-1.1-1.1l-2.6,0.6l-0.5,0.6l0.1,0.3l1.3,2.9l0.6,1.2l0.2,4.3l1.8,0.7l0.9,0.6l0.2,0.2
		l0.5,0.5l0.5,0.9l-0.2,0.5l-0.6,1.2l0.1,0.2l-0.5,0.7l-0.3,0.2l-0.5,0.2l-0.2,0l-0.2,0.2l-1.7,0.2l-0.4,0.1l-0.5-0.1l-0.3-0.2
		l-0.3-0.4l-1.3-0.7l-2.3-0.3l-1.4-0.1l-0.9,0.1l-0.3,0.1l-0.1,0.1l-0.1,0.3l-0.6,1.3l1.5,4.8l1,5.9l0,0.8l-1.6,4.1l-0.7,1.2l-1.4,0
		l-1.6-0.2l-0.5,0.3l-1.1,0.9l-0.1,0.3l-0.4,1.8l0,0.6l0.4,0.7l0.1,1l0,0.5l-0.1,0.1l-0.3,0.1l-1.3,0.4l0.9,1.1l0.2,1.5v0.3
		l-0.5,1.2l-1.2,2.7l-1.4,1.7l-0.7,1l-0.3,0.4l-0.1,2.7l0.1,0.9l3.3,0.6l1.1,0.2l0.9-0.2l0.5-1.2l-1.2-1.5l0-0.6l0.2-0.3l2.4-1
		l0.5-0.1l2.2,0.1l1.3,0.1l0.3,0.2l0.8,1.4l0.7,2.1l-1.8,1.5l-0.2,0.2l-0.4,0.6l-0.2,0.4l0.2,9.7l0,0.8l-0.3,1.6l-0.5,1.3l-0.9,1.4
		l-3.5,3.8l-1.6,0.9l-1.2,1l-1.2,0.7l-1.2,0.5l-1.5,0.2l-2.2-0.9l-0.8-0.6l-3.6,1l-0.3,1.6l-0.6,2.1l-0.2,0.3l-0.7,0.6l0.7,1
		l0.3,0.6l0.1,1.6l-0.1,1.1l-0.1,0.4l-0.4,0.8l-0.8,0.8l-1.6,1.5l-0.7,0.3l-0.1,0h-0.7l-1.7,0.6l-0.1,0.2l-0.3,0.5l-0.7,1.3
		l-0.9,2.4l-0.1,0.4l-0.1,0.1l-1.6,0.1l-0.8,0l-3.1-0.8l-1.1-0.4l-1.2,2.5l-0.4,3.4l0.7,4.1l0.2,1.2l0.4,1v0.8l-0.4,1.2l-5.1,0.9
		l-1.3,0.1H261l-0.5-0.4l-1.9-4.3l-0.1-0.1l-0.3-0.1l-9.7-1.9l-13.5,3.7l-0.1,0.1l-0.5,0.6l-0.7,1.2l-0.5,2.5l-0.6,1.3l1.3,1.1
		l0.3-0.1l0.6,0l0.5,0.2l0.1,0.1l0.3,0.3l0.1,0.3l0.4,3.9l-1.6,0.9l0.3,0.5l0,0.2l0.4,3l0.1,2.9l0.1,2.1l0.4,3l0.1,0.2l0.7,1
		l-0.9-0.1l-0.2,0.1l0,0.6l0.1,1.4l0.1,0.4l0.3,0.3l4.4,4.4l0.4,0l0.8,0.2l0.2,0.1l0.2,0.1l1.2,5.3l-1.6,4.3l-0.5,0.2l-1.4,3.7
		l-0.8,7l0.9,1.6l-0.2,1.6l0.1,0.1l-0.4,1l-0.1,0.2l-0.5,0.4l1.6,0.9l0.3,0.3l0.6,1.4l0,0.4l-0.3,0.4l-0.9,0.2l-1.5-1.7l-1.1-0.3
		l-5.6,1.8l-0.2,0.1l-1,0.7l-1.6,1.8l-0.4,0.7l-0.2,0.6l0.7,0.7l0.6,0.8l-6.5,5.9l-0.3,0.2l-0.1,0l-1.9-0.1l-0.5-0.1l-0.6-0.6
		l-0.3-0.9l0.4-0.9l1.8-3.7l2.3-0.8l2.3-2.1l-0.2-1.2l0.2-0.6h-2.4l-6.5-1.3l-0.5-0.2l-2.3-1l-1.5-1l-1.9-7.6l0.4-0.2l0.1,0.2
		l0.4,0.2l0.1-0.1l0.5-1l-0.1-0.5l-1-0.2l-3.9,1l-1.7,0.5l-0.3,0.6l0,0.8l0.2,0.4l0.6-0.1l0.9,4.1v0.5l-0.1,0.5l-0.7,1.1l-1.7,1.4
		l-0.9,0l-0.3-0.1l-0.5-0.2l-0.9-0.7l-0.6-0.9l-0.4-1.2l-2-2.6l-1.5-1.3l-0.6-0.5l-1-0.1l-0.3,0l-0.3,0.1l-1,0.5l-0.2,0.1l-0.5-1.2
		l-1.6-2.4l-0.5-0.9l-1.6-5.1l-0.1-0.5l0.2-1l0.1-0.2l0.2-0.4l0.1-0.1l0.6-0.5l0.6-0.3l0.5-0.2l0.7-0.3l1.5-0.3l0.4-0.2l0.4-0.2
		l0.5-0.4l0.4-0.6l0.1-0.2l0.1-0.3l0.6-1l-0.3-2.3l-2.8-2.9l-0.5-1l-1-1.4l-0.3-0.5l-2.2-5.6l-0.2-0.8v-0.4l0.1-0.5l0.1-0.3l0.3-0.6
		l0.3-0.6l0.1-0.3l0-0.5l-0.1-0.5l-0.6-1.9l0-1l-0.5-1.2l-0.5-0.8l-0.4-0.6l-0.7-0.8l-1.3-1.2l-0.8-1.2l-0.4-0.6l-0.7-0.8l-1.2-1.1
		l-0.6-0.2l-1.9-0.4l-1.1-0.1l-0.9,0.1l-2.5,0.8l-4.1,1.9l-7,2.7l-0.3,0.1l-2,0.3l-3.3,0.1l-0.4,0l-0.3-0.1l-0.5-0.3l-5.4-7.6
		l-0.7-1.9l0.9-0.2l2-1.1l4.2-3.5l0.4,0.1l2.3,0.6l0.3-0.4l0.4-3l-0.1-0.4l-1-0.9l-0.8-0.6l-0.5-0.3l-0.4-0.5l-0.1-1.3l0.1-0.1
		l1.5-2l0.6-0.4l0.3-0.2l4.3-1.9l1.8,1.1l1,0.2l0.3,0l1.7-1.9l-0.1-0.2l-0.4-0.3l-1.7-1.6l-0.2-0.5l1-1.3l0.9-0.3l0.7,0.1l2.1,0.9
		l2-1.2l0-1.9l-0.1-0.4l-0.7-2.2l-0.1-0.2l-0.2-0.4l-2.7-4.9l-5.3-3.5l-0.5,0l0.3-0.8l1.8-4.9l-0.7-1l-0.5-1.3l0-0.3l0.5-2.4
		l0.5-1.1l2.4-2.8l0.4-0.1l0.6-0.2l0.3,0l1.2,0.5l0.5,1l1,0.3l1.1,0.2l0.8-0.1l0.2-0.4l0.8-1.9l0.3-0.7l0.7-1.8l0.4-1.2l0-0.6
		l-1.2-0.7l-0.4-0.2l-0.1-0.3l-0.9-4.9l0-0.9l0.1-0.5l0.1-0.4l0.9-1l0.7-1l2-3.7l0.1-0.3l-0.2-1l-0.8-1.1l-0.8-1.5l-0.4-0.8l-0.4-1
		l9.5-9.3l0.2-0.2l0.2,0l1,0l0.2,0.1l4.1,2.2l0.2,0.1l0.5-0.1l0.1-0.1l1.1-1.2l4.3-6.5l0.6-2.6l0.1-0.1l0.4-0.2l0.1-0.1l0.6,0
		l0.2,0.1l-0.3-0.4l0-0.2l0.1-0.2l0.9-0.9l1.4-1.6l1-0.9l0.4-0.4l0.5-0.7l-0.4-0.9l-0.7-1.5l-1.1-3.3l-0.1-0.3v-0.2l0.4-0.6l0.5-0.5
		l0.8-0.6l0.1-0.1l1.3-0.5l0.1-0.1l2.8,0.2l1.7,0.3l0.8,0.3l1.1,0.3l0.4,0l3.2-1.2l2.8-6.2l0.3-0.7l0.1-0.4l-0.2-2l-0.8-6.4
		l-0.1-0.3l-0.9-1.2l-0.9,0l-0.7,0.1l-4.6,2.1l-1,0.7l-0.1,0l-0.8,0l-0.3-0.1l-0.2-0.2l-2.1-2.9l0.6-0.9l2.6-3.8l1.1-1.4l1.1-0.7
		l3-1.9l5-1.5l3.8-1l4.2-0.1l3.4,0.2l0.1-0.1l0.8-2.5l-0.2-1.4l0-0.2l-0.3-0.2l-0.5-0.1l-2.5-4.1l-0.2-0.7v-0.4l0.7-0.7l2.9-1.2
		l1.6-0.5l2.2-0.5l1.2-0.1l2.9,1.2l1.2,2l-0.7,1.8l0.6,1.6l0.2,0.2l0.3,0.2l0.6,0.2l2.8,0.2l0.6-0.1l0.6-1l0.6-1l4.3-3.5l4.5-3.5
		l3.2-5.3l3.8-4.6l1.3-2.2l3.3-0.7l0.3,0.1l0.1,0.2l0,0.4l-0.2,0.5l-0.2,0.8l0,0.3l0.3,0.4l0.7,0.4l0.7,0.1l3.2,0.1l1,0l3.4,1.7
		l0.1,0.1l1.4,1.6l0.7,0.6l0.8,0.5l0.2,0.2l0.2,0.4l-0.3,0.8l-0.1,0.2h-0.1l-0.7-0.2l-0.7,0.6l-0.6,0.8l-0.2,0.4l-1.5,0.3l-2.4,2.7
		l-0.1,0.3l0,0.1l0.1,0.2l2.1,3.5l0.6,0.6l0.3,1.6l0.8,4.3l-0.1,0.2l-0.7,1.1l-1.3-0.1l-1.6,0.3l-0.5,0.1l-1.1,1.7l-0.2,0.4l-0.5,2
		l-0.1,0.3l0.5,0.8l0.7,1.2l1.7,0.6l5.3,2.2l3.4,1.7l0.1,0.2l2.3-1.2l0.3-1.2l0.1-0.5l-0.1-1.4l-0.1-0.1l-0.5,0l-1.7,0.8l-1.8-2.8
		l1.1-1.5l4.4-3.7l0.4-0.3l0.2,0l3.2-0.5l3.1-0.4l0.3,0.2l1.3,2l0.3,0.6l0,1.2l0,0.1L295,405.1L295,405.1z"/>
	<path id="Hamburg" class="st0" d="M283.3,181.3l0.4-2.3l0.4-1.6l0.3-0.9l0.7-2.1l0.2-0.3l0.4,0l-0.1,0.5l0.1,0.7l1.7,2.1l1.1,1
		l0.5,0.2l0.8-0.4l3.5-4.4l0.4-0.6l0.3-0.6l0-0.3l0.1-0.8l1.1-0.1l1.2,0l0.2,0.2l1,0.2l0.5,0.1h0.8l4.9-3.8l0.8-1.9l-0.5-0.6
		l1.4-0.9l4.3-2.1l0.3,0l0.2,0.1l1.3,0.7l-0.1,0.9l-0.6,1.4l0.1,4.7l0.8,0.9l1.6,2.2l-0.2,0.7l0,0.1l-1.3,2.7l-2.1,1.7l-0.7,0.6
		l-0.3,1.2l0.1,2.1l0.9,2.4l0.2,0.2l3.5,2.4l0.4,0.1l0.5-0.1l-0.1,0.6l0.2,0.8l3.7,4l0.5,1l-0.1,0l-0.2,0.1l-2.2,1.2l-0.4,0.2
		l-0.2,0.3l-0.2,0.3l-0.6,1.5l-0.2,0.3l-0.2,0.1l-0.4,0.1l-3.2-0.1l-0.4-0.1l-0.4-0.3l-2.5-2.4l-1.8-2l-0.4-0.5l-0.5-0.6l-1.8-1
		l-0.6,0.7l-0.6,1.3l-0.2,0.9l-2.8,2.1l-0.4,0l-1.6-1.3l-2.1-2l-0.7-0.9l-0.3-0.2l-0.3,0.2l-1.3,1.4l-0.8,0.6l-0.3,0.1l-3.4-3.5
		l-0.1-0.6l-1-2.2l-0.8-0.9l0.3-2.2v-2.8L283.3,181.3L283.3,181.3z"/>
	<path id="Bremen" class="st0" d="M210.9,184.2l0.6-0.4l0.2-0.5l0.1-0.3l0-0.8l-0.1-0.3l-0.1-0.3l-2.1-3.8l-0.9-1.3l1-1.2l0.9-0.1
		l5.4,0.3l1.7,0.3l0.1,0.1l-1.1,5l0.9,3.9l-0.1,0.5l-2.6,2.7l-0.2,0l-1.8-0.2l-0.3-0.2l-0.2-0.2l0.4-0.5l0.1-0.2v-0.2l-1.4-1.8
		L210.9,184.2L210.9,184.2z M236.7,224.6l-1.4-1.7l-0.7-0.5l-0.3,0l-1.1,0.7l-4.7-0.1l-3.8-1.9l-4.2-2.1l-6.5-0.8l-7.5-4.1l-0.3-0.9
		l0-0.7l0,0.7l0.2,1.3l0.4,0.9l0.3,0.6l0.7,1.1l1.6,1.2l2.4,1.1l0.8,0.3l0.9,0.1l0.8,0.2l0.4,0.3l0.3,0.5l1.6,4.2l0.1,1.3l0.9,0.6
		l2,2.1l0.5,0.7l0.1,0.6l0.1,2.6l0.5,0.5l0.5,0.5l0.3,0.1l1.1-0.4l0.4-0.1l1.3,0l5.3,1.9l3.1,1.2l3.3-2.8l0.1-2l-0.4-4.8l-0.8-1.2
		l0.1-0.1l0.1-0.1l1-0.4l1-0.4L236.7,224.6L236.7,224.6z"/>
	<path id="Brandenburg" class="st0" d="M570.7,196.7l-0.2,2.1l1.1,3.3l0.8,0l0.6,0.1l0.3,0.9l0.1,0.5l-1,2.2l-2.4,3.7l-0.5,0.2
		l-0.2,0.1l-0.3,2.1l-0.1,1l0,0.2l0.3,1.1l0.1,0.4l1,1.4l-0.3,2.6L570,219l-0.5,3.2l-0.7,2.3l-0.6,1l-0.3,0.3l-3.3,3.4l-1.2,1.2
		l-1.7,1.4l-0.9,0.5l-0.8,0.3l-2.1,1.4l-1.5,1.4l-0.3,0.9l0,0.2l0.3,1.7l1.1,3.9l0.3,0.7l-0.1,1.3l-0.7,1.2l-0.8,1.1l-0.5,1.1l0,0.6
		l0.1,0.2l0.4,0.6l0.2,0.2l0.7,0.3l1.8,0.1l3.7,1.5l7.8,5.1l1.5,1.5l1.6,1.9l1.7,2l0.1,0.1l0.2,0.4l0.2,0.7l2.1,2l1,0.7l1.8,1.2
		l0.8,0.4l1.4,0.7l0.9,0.4l0.3,0.1l0.5,0.1l0.3,0.2l1.7,1.2l0.4,0.5l2.3,3l0.2,0.3l0.2,7.8l-0.1,0.7l-0.1,0.3l-1.7,3l-0.8,1
		l-1.6,1.1l-0.3,0.2l-0.3,0.4l-0.2,0.5l-0.1,0.5l-0.4,2.3l-0.1,0.8l1,1.6l0.3,0.6l0.3,2.7l1.5,5.6l0.1,0.3l0.2,0.2l0.9,1.1l0.2,0.2
		l0.4,0.2l0.7,0l0.3,0.1l4.7,1.2l0.1,0l0.3,0.2l0.2,0.3l1,1.4l0.1,0.2l0,0.2l-0.2,6.4l-0.1,0.4l-0.5,0.9l-0.8,1l-0.1,0.3l0,0.3
		l0.3,2.6l0.4,0.8l0.3,0.4l0.5,0.5l0.2,0.1l0.7,0.1l0.6,0.2l0.4,0.2l0.6,0.4l0.4,0.4l0.9,1.5l0,0.3l-0.4,3.3l-0.1,0.1l-0.4,0.7
		l-1.4,2.4l0.1,0.1l0.3,0.6l-0.2,6l-1,3.4l-2.9,4l-1.2,1l-1.7,1.8l-0.4,0.4v0.1l0,1.2l0.1,0.5l0.8,1.3l0.2,0.3l0.2,0.1l1,0.3
		l2.9,6.3l0.5,1.1l1.5,1.7l2.3,1.7l0.3,0.2l0.7,0.6l0.6,0.7l0.7,1.4l0.5,4.2l-0.8,2.7l-0.9,1.4l-1-0.8l-0.8,0.8l-0.7,2.3l-0.1,0.3
		l-0.2,0.2l-0.5,0.5l-0.2,0.1l-3.2,0.3l-0.5-0.1l-0.4-0.1l-0.1-0.2l-0.4-0.8l-0.1-0.7l-2.2-0.9l-6.9,2.5l-0.4,0.3l-0.1,0.4l0,0.4
		l0.1,0.5l-0.3-0.2l-3.4,0.4l-4.3,2.5l-2.9-1l-4-0.5l-3.1,0.1l-1.3-0.2l-0.4,0.1l-2.1,3.1l-1.5,4.4l-1.4,5.5l-2.7,3.5l-7.5,1.5
		l-0.3,0.1l-2.8-0.1l-1.6,0.6l-2.1,1l-0.8,0.6l-3.1-0.4l-0.5-0.1l-0.8-0.5l-0.3-0.4l-0.5,0.7l-3.3,0.1l-2,0.1l-0.4,0l-2.9-0.9
		l-4.9-3l-2.1-1.7l-2.3-2.1l-0.6-0.5l-4.5,2.4l-2.6,2.3l0,0.1l0.1,1.1l-1.7,0.5l-0.5,0.1l-2.3-0.1l-0.2-0.4l-0.2-0.6l-1.5-1.8
		l0.8-3.7l0.2-5.2l-0.2-0.7l-0.2-0.7l-1.1-2.7l-1.9-4.1l-0.4-0.8l-2.6-1.4l-0.2,0.3l-0.3,0.3l-0.7,0.5l-0.6-0.3l-2.4-3.9l6.5-4.3
		l0.5-0.6l1.4-2.5v-0.1l0-0.5l-0.5-0.9l-0.3-0.3l-0.5-0.4l-3.3-11.7l0-0.3l0-0.2l1.7-0.3l0-0.6l-0.1-0.6l-0.7-0.7l-0.4-0.3l-0.9,0
		l0.1,0.7l-0.3,0.2l-2.1,0.8l-2.4-0.2l-0.2,0l-0.3-0.2l-3-3.1l-4.9-2.6l-1.1,0.4l-0.5,0l-2.4-0.6l-4.9-2.8l-0.5-1.4l-0.3,0l-1.8-0.9
		l-1.6-0.9l-0.7-0.4l-2-0.9l-0.9,0l-0.4,0.6l-0.2,1.4l-1.8,1.3l-0.8,0.1l-4-0.6l-7.2-2.8l-4.6-2.9l-1.7-1.9l-2.6-3.4l-2.1-3.2
		l-2.9-3.8l1.8-4.1l-0.2-4l0.3-2.5l0.1-0.5l0.6-1.8l1.2-2.6l0.1-0.2l0.2-0.1l1.2-2.4l-0.6-3.4l-0.4-2.9l-0.2-1.6l0.9-2.2l0.6-1
		l0.3-0.9l-0.4-3.3l-5.5-1.9l-0.2,0.9l0,0.1l-0.3,0.5l-1.1,0.3l-1.2,0.2l-0.9-1l-1.8-2.2l0,0l0-0.8l1.8-7.1l0.9-1.6l0.4,0.1l0.4,0
		l1.6-1.2l0.4-3.7l0-0.6l-0.3-0.9l-1.2-1.8l-1.2-2l0-0.1l0.4-4.4l0.3-1.1l0.7-1.3l1.5-0.7l0.2-1.8l-1.2-4.9l-0.1-0.3l-0.6-0.4
		l-1.5-0.7l-1.5,0.7l-0.9,0.5l-1.6,0.5l-0.8-2l0-0.7l0.2-0.6l0.1-0.2l-0.7,0.7l-8.2,1l-0.3-0.1l-5.2-1.7l-3.6-1.5l-0.4-0.2l-0.2-0.2
		l-0.3-0.5l-0.1-0.5l0.1-0.2l0.2-0.4l0.5-0.6l0.5-0.5l0.1-0.2l0.1-0.3l0-0.2l0-0.3l-0.1-0.3l-0.2-0.3l-5.2-3l-0.2-0.1l-0.4-0.2
		l-0.4-0.1l-0.5-0.1l-0.2,0l-1,0.6l-0.7,0.5l-0.3,0.1l-0.5-0.1l-0.2-0.1l-3.6-2.8l-0.2-0.3l-0.1-0.3l-0.1-0.4l0.1-0.3l0.9-1.2
		l0.1-0.2l0-0.2l-0.1-0.2l-0.2-0.2l-0.2-0.1l-0.2-0.1l-0.5,0l-0.3,0l-1.4,0.6l-0.6,0l-4.4-1.1l-0.6-0.2l-0.6-0.4l-1.2-1.2l-0.7-0.8
		l-0.4-0.3l-0.4-0.2l-0.5,0l-0.4,0l-2,0.6l-0.4,0.1l-0.3,0.2l-1,0.8l-1.7,0.9l-0.5,0l-0.2,0l-0.3-0.2l-3-3.1l-1.1-1.4l-0.1-0.2
		l0-0.3l0-1.5l5.6,0.3l2.8-2.2l3.4-0.4l0.8,0.6l0,0.3l0.6,0.3l1.6,0.3l1.5,0.1l0.9-0.6l0.3-1l0.6-2.5l-0.7-4.1l3.9-3.5l0.6-0.4
		l2.7,0l1,0.1l1.7,1l0.7,1.5l0.6-0.1l5.5-1.2l0.2-0.2l0-0.1l-0.1-0.3l-1.1-1.9l3.2-0.2l5-1.8l0.4-0.2l3.7-2.7l0.4-0.5l-0.2-1.8
		l2.1-3l1.5,0.3l1.7,0.2l1.5-0.5l5.5-1.1l0.3,0l3.9,3l2,0.6l0.5,0.4l0.6,0.2l0.7,0.3l1.9,1l1,0.8l0.5,1.4l2.5,2.8l3.3-0.4l0.2-0.2
		l0-0.5l1.8-0.4l7.7,0.7l0.8,0.1l3.4,3.2l2.5,2.6l0.4,0.7l1.2,0.1l0.8-0.3l1.2-0.4l0-0.1l0.1-0.1l1.8-0.6l7.3-0.2l0.7,0.2l0,0
		l0.2,0.5l0,0.2l-1,0.6l-0.9,0.7l-0.3,0.4l0,0.1l0.1,0.1l2.1,0.9l0.2,0l0.3-0.2l7-7.6l0.4-0.4l2.3-1.1l0.2,0l1.9-0.3l0.3,0.6
		l0.2,0.6l0.8,1.8l0.2,0.2l1.5,0.2l0.5-0.9l0.1-0.7l0-0.5l0.1-1.2l0.2-0.8l0.4-0.5l1.8-1.6l1.1-0.5l3.5,0.1l0.2,0.1l0.4,0.5l0.1,0.2
		l0.1,0.9l1.1,1.6l0.4,0.1l0.7-0.3l4.7-5l2.1-2.9l0.1-0.1l0-0.1l-0.3-1.8l-0.2-1.3l0.5-1.6l1.2-2.8l0.2-0.5l6.6-6.3l1-0.9l1.7-1.4
		l2.7-0.2l2.8-2.4l-1.4-1.2l-0.2-1.4l0-0.3l0.3-1.9l0.1-0.3l0.4-0.6l0.5-0.1l5,5.8l1,3.3l1.5,3.1l1.6,0.7l0.6-0.3l3.4-0.6l2.7,0.4
		l3.9-0.1l0.7-1.4l6.3,0.4l0.7,0.5l0.4,0.7l0.2,2.8l0,0.5l-0.5,2l-0.1,0.5l-0.4,1l-1,1.6l-0.8,1l-1.1,1.3l-1,1.1l-0.7,0.7l-1.6,1.9
		l-0.5,0.8l-0.1,0.5l-0.2,1.2l1.1,0.1l5.8,0.2l2.5-0.4l0.8-0.3l2-2.8l0.6-1.8l0.2-0.9l5-2.1l0.3,0L570.7,196.7L570.7,196.7z
		 M511.7,269.8l-0.6,1.1l-0.7,0.9l-0.5,0.4l-0.4,0.2l-0.4,0.1l-0.7,0l-0.9-0.1l-1.1-0.2l-5.6,0.2l-1.1,2.2l0,0.1l0.1,0.3l0.5,0.6
		l0.4,0.3l0.1,0.1l0,0.1l-0.1,0.4l-1.1-0.1l-0.5-0.1l-1.2-0.5l-0.5-0.3l-0.5,0.1l-1.7,1.1l0,0.4l-0.4,6.2l0.1,0.6l1.6-0.3l1.6,1.1
		l-2.2,2.9l-0.4,0.3l-0.5,0.7l-0.3,0.5v1.5l0.5,0.5l0.4,0.7l-0.6,1l-0.5,0.5l-1,0.5l0.2,0.8l0.2,0.2l2.1,1.3l2,0.1l0.6-0.1l-0.5-0.1
		l0.1-0.6l2.2-1.4l1.6-0.6l0.2-0.1l1.2-0.1l3.4,0.7l1,1.3l1.9-1l2.9,2.9l2,0.1l-0.2-3.2l0-0.2l0.1-0.1l1.6-0.8l0.7-0.3l0.5-0.2
		l0.8,1.9l3.8,1.2l7.1,2l1.3,0.3l1.6-0.5l0.4-0.7l0.1-0.4l-0.1-0.3l-0.2,0l-0.5-0.2l0-0.3l1.8-1.5l0.7-1.7l0.8-2.5l-1.5-1.6
		l-0.9-0.1l-2.5-1.7l-1.6-0.5l-0.8-3.2l-1.6-3.5l-3.6-3.8l-4.7-8.7l-0.9-0.5l-0.8,0.6l-0.6,0.8l-0.6,1.4l-0.4,1.2l-0.6,0.2l-1.1-0.6
		L511.7,269.8L511.7,269.8z"/>
	<path id="Berlin" class="st0" d="M511.7,269.8l0.5,0.5l1.1,0.6l0.6-0.2l0.4-1.2l0.6-1.4l0.6-0.8l0.8-0.6l0.9,0.5l4.7,8.7l3.6,3.8
		l1.6,3.5l0.8,3.2l1.6,0.5l2.5,1.7l0.9,0.1l1.5,1.6l-0.8,2.5l-0.7,1.7l-1.8,1.5l0,0.3l0.5,0.2l0.2,0l0.1,0.4l-0.1,0.4l-0.4,0.7
		l-1.6,0.5l-1.3-0.3l-7.1-2l-3.8-1.2l-0.8-1.9l-0.5,0.2l-0.7,0.3l-1.6,0.8l-0.1,0.1l0,0.2l0.2,3.2l-2-0.1l-2.9-2.9l-1.9,1l-1-1.3
		l-3.4-0.7l-1.2,0.1l-0.2,0.1l-1.6,0.6l-2.2,1.4l-0.1,0.6l0.5,0.1l-0.6,0.1l-2-0.1l-2.1-1.3l-0.2-0.2l-0.2-0.8l1-0.5l0.5-0.5l0.6-1
		l-0.4-0.7l-0.5-0.5v-1.5l0.3-0.5l0.5-0.7l0.4-0.3l2.2-2.9l-1.6-1.1l-1.6,0.3l-0.1-0.6l0.4-6.2l0-0.4l1.7-1.1l0.5-0.1l0.5,0.3
		l1.2,0.5l0.5,0.1l1.1,0.1l0.1-0.4l0-0.1l-0.1-0.1l-0.4-0.3l-0.5-0.6l-0.1-0.3l0-0.1l1.1-2.2l5.6-0.2l1.1,0.2l0.9,0.1l0.7,0l0.4-0.1
		l0.4-0.2l0.5-0.4l0.7-0.9L511.7,269.8L511.7,269.8z"/>
	<path id="Bayern" class="st0" d="M425.6,501l0.9,0.2l0.7,0.6l2.6,2.6l0,0.4l-0.2,1.7l-0.3,1.8l0.4,0.3l1.2,0.2l4.5,1.3l2,0.8
		l0.5,0.6l1.5,1.5l1.2,2.7l-0.1,0.2l-0.1,0.1l-0.7,0.6l-0.9,0.2l-0.4,0.4l-1,1.2l0.1,0.3l1.3,1.1l3.3,1.7l0.3,0.2l1.1,1.2l1.4,1.7
		l1,2.1l-0.1,0.4l-0.2,0.6l-0.7,0.7l-0.3,1l0,0.5l0.2,1.6l0.2,1.2l0.1,0.2l0.5,0.6l0.1,0.1l0.7-0.2l0.5,0.1l1,0.8l1.5,1.6l-0.3,2.1
		l3.9,0.6l3.3,3.4l4.1,2.4l1.7,0l1,0.2l1.4,0.8l0.6,0.9l2.8,4.8l-0.1,3.5l-0.3,0.3l-0.6,0.7l-2.2,4.2l-0.6,1.7l-0.3,3.4l-0.2,0.7
		l-4.3,3l0,0.3l0,0.2l0.4,1.4l0.5,0.8l1.9,2.7l0.2,0.2l0.2,0.1l0.5,0.1l4.5,1.3l0.2,0.1l0.4,1.6l0.8,5.3l2.7,5.9l1,1.4l0.4,0.3
		l-0.3,0.4l0.9,0.6l1.2,0.4l0.5,0.1l0.1-0.4l0.1-0.1l0.3,0l0.3,0.5l0.1,0.2l0.1,1.4l0.1,2.1v0.6l0,0.1l-0.6,0.8l1.7,2.6l6.8,5.4
		l0.3,1.3l-0.2,0.7l1.5,2.8l0.5,0.3l1.1,0.4l5,0.7l0.7,0l0.1-0.1l-0.2-0.6l-0.4-0.5l-0.1-0.7l0.6-0.1l0.8,0.1l3,0.5l0.3,0.1l1.5,0.9
		l2.1,1.9l2,2.6l5.8,7.8l0.9,1.2l1.7,1.5l0.9,0.7l0.3,0.1l0.4,0l0.1,3l0.9,0.9l1.1,0.7l0.9,0.5l1.7,0.7l0.6-0.2l0.7-0.3l1.4-0.3
		l0.4,0l0.5,0.2l2.5,1.8l1.4,1.1l3.2,3.6l0.6,0.9l0.7,2.3l1,4.3l1.1,0.7l4.4,2.9l0.2,0l0.6-0.1l0-0.9l-0.1-0.4l-0.1-0.5l0-0.9
		l1.5-0.6l3.4,0.1l0.3,0.2l0.2,0.2l2.5,2.8l1.1,1.3l0.8,1.7l0.7,1.5l1.1,1.3l0.3,0.1l0.9,0l1.9-0.1l0.3-0.2l0.4-0.4l0.6,0l5.8,8.5
		l1.3,2.7l-0.6,2.2l-0.7,2.1l-0.9,1.6l1.3,2.3l1.2,5.7l0,1.6l-1.3,4.5l-4.6,6.5l-0.2,0.2l-1.4-0.4l-2.9-1.5l-0.3-0.2l-5-3.2l-5.4-2
		l-0.4,1.6l-0.2,0.3l-0.8,0.9l-1.1,0.9l-0.5,0.2l-2,0.6l0.8,0.9l0.1,0.1l0.7,2.7l0,0.2l-1.3,3.9l-0.3,0.5l-0.3,1l0,0.4l0,0.2
		l0.8,1.2l0.1,0.5l0,0.3l-0.1,0.4l-1.3,5l-0.2,0.5l-0.2,0.3l-0.3,0.3l-5.1,5.2l-0.5,0.4l-3.9,2.6l-0.4,0.2l-0.5,0.1l-5,0.1l-2.8,1.6
		l-0.5,0.2l-0.7,0.1l-1.2,0l-0.6,0l-0.6,0.1l-3.9,2.1l-0.3,0.2l-0.3,0.3l-0.2,0.3l-0.3,0.7l-0.2,0.4l-2.3,2.7l-0.4,0.3l-0.4,0.2
		L502,726l-0.3,0.1l-1.9,0.1l-2.9,0.5l-0.2,0.1l-0.3,0.2l-0.2,0.3l0,0.2l0,0.7l-0.1,0.3l-1,2.1l-0.9,1.1l-0.2,0.2l-2.2,1.7l-2.6,2.1
		l-0.5,0.6l-0.1,0.2l0,0.3l0.3,1.8l0.2,0.8l0.3,0.7l0.6,0.8l2.9,2.4l2,1.6l0.8,0.8l0.4,0.5l0.3,0.5l0.1,0.3l0.9,3.6l0.2,0.5l0.3,0.3
		l2.4,0.4l0.5,0.2l0.2,0.2l0.9,1.3l2.3,3.5l2.8,5.1l0.2,0.5l0.1,0.5l-0.1,0.3l-2.6,4.6l-3.7,7.5l0,0.2l0.1,0.2l0.5,0.6l0.9,0.6
		l3.3,0.3l1-0.1l0.3-0.1l0.7-0.5l0.2-0.2l0.1-0.2l-0.1-0.1l0.2-0.4l0.2-0.1l0.5,0l2,1l0.3,0.2l1.5,1.9l2.1,5.3l0.1,0.5l-0.2,0.8
		l-0.3,0.3l-1.3,1.5l-1.8,2.9l-0.1,0.7l-0.6,4.5l0,0.1l0.1,0.2l0.3,0.3l0.3,0.1l0.3,0.2l0.1,0.3l0.1,2.3l0,0.7l-2.7,3l-0.2,0.1
		l-0.2-0.1L506,801l-0.8-0.4l-2.9-1.6l-7.7-5.2l-0.7-0.7l-0.8-1.2l-0.3-1l0.1-0.4l0.7-1.9l1-1l-2.7-5.6l-1.5-0.4l-3.9-1.1h-0.8
		l-0.4,0l-0.8,0.2l-3.9,0.9l-0.3,0.1l-0.5,0.7l-0.9,1.9l-4.8,2.5l-0.9,0.1l-2.4-2.5l-1.8-2.4l-0.1-0.3l-5.2-0.6l-1.8-0.7l-0.2-0.2
		l0.2-0.5l-4.8,1.8l-1.2-3.6l0.4-0.6l0.4-1.1l-0.1-0.5l-0.4-0.6l-0.5,0.2l-4.3,4.2l-0.1,3.5l1.2,2.5l0.3,1l0.5,1.9l0,0.2l-0.1,0.3
		l-0.1,0.2l-0.2,0.1l-1.4,0.3l-3.7-0.1l-3.3-0.3l-1.5-0.9l-2.8,0.8l-3.6-0.4l-3.9,0.5l-3.2,1.2l-1.2,2l-0.2,0.1l-1-0.1l-2.8-0.5
		l-9.7,0l-1.2-0.2l-1.8,1.1l-0.1,0.1l-1.1,2.5l-0.1,1.1l0,0.2l0,0.2l0.1,0.3l0.1,1.4L409,800l-0.2,0.1l-4.4,1l-3.5-0.3l-0.7-0.2
		l-0.5-0.6l-0.2,0.1l-0.2,0.2l-1.4,1.6l-0.2,0.4l-1.7,2l-5.5,4.9l-0.6,1l-0.2,0.4l-0.3,1l-0.4,0.5l-0.8,0.5l-0.2,0.1l-2.9,0.3
		l-0.2,0l-0.2-0.2l0.1-0.4l1.1-1.9l0.9-0.8l-0.2-0.4l-0.1-0.1l-3-0.1l-3.4,1.3l-0.4,0.2l-1.3,0.7l-3.5,1.7l-5.3,0.3l-0.7,0l-1.2-0.2
		l-0.6-0.3l-0.1-1.2l0.1-0.5l0.1-0.1l0.6-0.1l0.3-0.3l-0.1-0.9l-1.6-1.9l-2.3-2.4l-3.3-0.7l-0.2,0l-0.5-0.2l-0.1-0.4l0.1-1.4
		l0.4-0.4l2-1.5l-1.4-2l-2.2,0.3l-3.9,1.5l-2.4-0.5l-4.9-2l-0.2-0.6l0-0.3l0.1-0.2l-0.1-0.3l-5.1-0.8l-1.2-0.1l-0.8,0.9l-0.5,0.9
		l0,0.2l-0.6,1.5l-0.3,0l-3.1-0.1l-2.5-0.5l-2-1.3l-0.5-0.3l0.4-0.6l0.6-0.8l0.2-1l0-0.8h-0.3L330,794l-0.1,0l-0.4,0.7l0.1,7.6
		l0.7,1.8l0.2,0.2l0.2,0.1l0.4-0.2l0.7,0.3l0.5,0.5l0.1,0.8l0.3,3.9l-4,5.4l-4.8,6.2l-1.5,1.4l-3,1.8l-2.8,1l-4.5,0.8l-0.3,0
		l-0.1-0.4l0-0.5l0.2-0.9l0.2-0.8l2.6-6.1l0.6-0.8l0.7-1l0-0.1l-0.1-0.9l-0.5-0.7l-0.2-0.1l-3.2-0.3l-0.9,0.7l0,1.1l0,0.4l-0.3,0.3
		l-4.6,1.5l-1.6-5l0.5-1.1l0.6-0.3l0.1-0.1l0.7-1.1l-0.9-1.6l-0.9-1.2l-1.9-2.2l-2.1-0.8l-0.9,0.2l-0.5,0l-0.1-0.1l-0.4-0.4
		l-2.1-3.6l0-1.1l0-0.7l0.2-0.8l-0.2,0.2l-2.2,1.2l-0.8,0.3l-3.4,0.1l-4.1-1.9l0-0.2l0.1-0.4l0.1-0.1l0.1,0l0.2-0.2l0.2-0.3l0.1-1.9
		l-0.3-0.8l-1.5-0.9l-0.1,0l-1.6,0.1l-0.8,0.6l-0.6,0.9l-2.5,3.4l-3.8-1.2l-3.2-1.3l-0.9-0.6L272,794l2.7-2l1.2-0.8l2.4,0.2l0.1,0.4
		l0.1,0.2l0.3,0.2l0.4,0.1l3.1-0.1l5.5-5.6l0.1-0.1l4.8-0.3l5.5-0.1l0.3-0.5l1.1-1.3l0.2-0.2l0.2-0.1l1.3-0.2l2.6,0.5l0,0l0.3,0.6
		l0,0.1l0.9,3.6l-0.1-0.3l0.4-1.2l0.4-0.4l0.6-0.8l0.4-0.3l0.7,0.1h0.2l1.1-1l0.7-2.2l0-0.6l-2.5-6.2l-0.1-3.7l1,0l1.3-1.2l-0.3-0.8
		l-0.4-0.3l-0.5-0.6l-0.5-1.1l-0.5-2.5l-0.1-3.5l0-0.4l0-0.3l0.2-1.8l0.4-1.4l-0.8-0.5l-0.3-0.3l-0.2-0.3l-0.2-0.4l-0.1-0.6l0-0.6
		l0.1-0.5l0.1-0.2l0.2-0.2l0.3-0.2l0.7-0.2l0.7-0.1l0.1-1l0.2-1.9l0.4-0.7l0.6-0.6l0.2-0.7l0.3-2.4l-0.1-3l-0.2-3.4l-0.8-0.7
		l-0.9-0.9l-0.1-0.1l-0.2-0.6l-0.9-2.8v-0.5l-0.3-0.7l-0.3-1.8l-0.1-0.8l-1.2-8.8l-1-0.9l-2.9-4.5l-0.8-1.5l-0.4-2l1.5-3.5l0.1-0.2
		l1.2-2.2l0.3-1.7l-0.2-0.7l-0.3-0.5l1.6-0.1l3.3-1.9l0.9,0.7l1.1,1.4l2.3-0.5l4.7-4.2l-0.2-0.6l-0.2-0.5l1.6-0.8l0.2-0.1l0.5-0.1
		l0.9,0.4h0.6l0.7-0.1l1.1-0.6l0.1-3.9l-0.1-0.6l-1-5.7l-1.3-1.8l-1.2-1.6l-0.6-0.8l0.1-1.3l0.1-0.2l0.9-2.4l4,1.3l0.6,0.2l4.8-1
		l1.6-0.1l0.3,0.3l0.1,0.2l0.1,0.3l-1,2.2l-0.4,0.3l-0.1,0.2l0.1,0.2l0,0l1,0l2.2-0.7l1.5-1.6l0.3-0.4l-0.3-0.6l-0.2,0l-0.6-0.6
		l-0.7-2.6l-0.1-0.9l-2.5-0.8l-0.2,0l-0.3-3.3l0.7-0.3l1.2-3.1l0-0.1l0.3-5.1l0.1-6.2l-0.4-1.9l-0.5-0.6l-0.1-0.1l-1.3-1.3l-0.7-2
		l-0.1-0.3l-6.1-4.5l-4.2-1.8l-0.2-1l0-0.7h0.1l0.4-0.2l-1.3-6.7l-2.1-3.8l-1.7-0.7l-1.5-0.8l-2.6-1.8l-0.3-0.3l0-0.2l0.2-6.2l1-2.7
		l-0.5-0.9l-2-4.3l-0.1-0.3l0-0.3l0.3-3.5l0.3-0.6l2.3-0.1l0.7-0.3l0.3-0.5l0.1-0.2l-0.6-1.7l-1.1-2.3l-1.2-3.9l-0.1-0.1l-1-1.3
		l-0.1-0.6l0-0.2l0.2-0.5l0.4-0.4l-0.3-1.4l-0.8-1.8l-0.7-1.1l-1.1-0.2l-0.3,0.1l-1.5,1.4l-0.1,0.1l0.2,0.3l0.7,0.6l0.6,0.1
		l-0.5,0.9l-0.2,0.2l-2.2,2.4l-0.4,0.1l-4.1,0.3L295,599l-0.2-0.1l-0.8-0.8l0.1-0.7l0.4-0.4l0.2-0.4l0-0.1l0.2-4.2l-0.2-1.1l0-0.1
		l-0.7-2.2l-0.1-0.3l-0.3-0.1l-0.5,0l-0.3,0.1l-1.7-2.7l-0.2-1l-2.4-8.4l-0.7-0.7l-1.7-1.7l-1.1,0.4l-4.2,1.4l-2.7,1.5l-0.9,0.4
		l-0.5,0.1l-1.4-0.8l-0.5-0.7l0.4-1.4l0.1-0.1l0.6-0.3l0.1-0.3l0.6-6l-0.1-1l-1.2,0.6l-4.3,4.1l-0.1,0.1l-0.2,0l-0.3-0.1l-2.6-1.7
		l-0.3-0.2l-0.2-0.4l-0.1-0.2l0-0.4l0.2-0.6l0-0.3l-0.1-0.2l-0.3-0.3l-0.2-0.2l-0.2-0.1l-1.3,0.1l-0.2,0.2l-0.4,0.5l-0.7,1l-1.2-0.5
		l-5.6,0.3l-2.3,0.3l-0.4,0.1l-0.3,0.1l-0.1,0.2v0.6l0.5,1.9l1.5,2.5l0.9,1.3l0.6,0.1l0.7-0.1l0.3-0.1l0-1.6l-0.1-0.5l0.4-0.6
		l0.9,0.2l1,1.8l0.4,1.7l-0.8,3.3l0.5,0.5l-0.2,0.5l-0.7,0.8l-1.5,0.3l-2.3-0.7l-3-0.4l-1.3,1.8l-0.7,1.1l0.6,0.8l0.1,0.2l-2.4,3.1
		l-0.6,0.3l-1.2,0.4l-0.6,0.1l-1.3,0.2l-4.9,0l-0.2,0l-1-0.4l-0.9-1.6l0.8-7l1.4-3.7l0.5-0.2l1.6-4.3l-1.2-5.3l-0.2-0.1l-0.2-0.1
		l-0.8-0.2l-0.4,0l-4.4-4.4l-0.3-0.3l-0.1-0.4l-0.1-1.4l0-0.6l0.2-0.1l0.9,0.1l-0.7-0.9l-0.1-0.2l-0.4-3l-0.1-2.1l-0.1-2.9l-0.4-3
		l0-0.2l-0.3-0.5l1.6-0.9l-0.4-3.9l-0.1-0.3l-0.3-0.3l-0.1-0.1l-0.5-0.2l-0.6,0l-0.3,0.1l-1.3-1.1l0.6-1.3l0.5-2.5l0.7-1.2l0.5-0.6
		l0.1-0.1l13.5-3.7l9.7,1.9l0.3,0.1l0.1,0.1l1.9,4.3l0.5,0.4h0.2l1.3-0.1l5.1-0.9l0.4-1.2v-0.8l-0.4-1l-0.2-1.2l-0.7-4.1l0.4-3.4
		l1.2-2.5l1.1,0.4l3.1,0.8l0.8,0l1.6-0.1l0.1-0.1l0.1-0.4l0.9-2.4l0.7-1.3l0.3-0.5l0.1-0.2l1.7-0.6h0.7l0.1,0l0.7-0.3l1.6-1.5
		l0.8-0.8l0.4-0.8l0.1-0.4l0.1-1.1l-0.1-1.6l-0.3-0.6l-0.7-1l0.7-0.6l0.2-0.3l0.6-2.1l0.4-1.6l3.6-1l0.8,0.6l2.2,0.9l1.5-0.2
		l1.2-0.5l1.2-0.7l1.2-1l1.6-0.9l3.5-3.8l0.9-1.4l0.5-1.3l0.3-1.6l0-0.8l0.3-0.1l0.4-0.2l1-1l1.8-2l6.6-0.7l0.5,0.1l1.8,2.4l1.5,2
		l4.7,2l0.5,0.4l0.5,0.5l2.4,5.1l0.4,2.4l0,0.6l0.5,0.8l0.2,0l1.9,0.2l0.9-0.4l0.9-0.4l0.3,1l0.3,1.2l2.3,2.5l4,1.5l3,0.7l-0.3,2.8
		l-0.3,3.6l0.7,2.9l0.4,1.2l0.2,0.4l1.8,0.4l5.2,1.9l0.3,0l0.2-0.1l0.4-0.8l-0.1-1.8l-0.1-0.1l0-1.7l0.1-0.2l0.3-0.2l0.6,0.1
		l2.4,0.6l2.8,0.6l0.3,0l0.7-0.2l0.7-0.5l0.1-0.2l0.2-0.6l-0.1-1.4l-0.4-0.5l-0.6-0.3l-1.3-0.4l-0.6-0.1l-0.2-0.1l-5.5-3.9l-0.4-0.3
		l-0.1-0.4l-0.2-3.1l0.2-0.9l7.5-3.1l6.6,0h0.2l0.2,0l0.6,0.6l1.1,2l1.3,1.5l3.6,0.6l0.4,0.1l1.4-0.5l1.2-0.5l0.4-1.2l0.1-0.1
		l0.8-0.2l0.9,0l1.6,1.4l1.4,2.4l0,0.6l-0.4,0.1l-0.6,0.4l-0.3,0.3l-0.4,0.5l-0.1,0.6l0.1,0.5l0,0.1l0.7,1l2.2,2.1l0.8,0l0.1-0.1
		l0.9-1.9l3.1-0.5l2-6.9v-0.1l-1.2-7.6l-0.3-0.8l-0.4-0.2l-0.7-0.5l-0.1-2.1v-0.2l0.1-0.6l0.2-0.3l0.4-0.1l0.5,0.1l0.1,0.2l1.5-0.7
		l2.2-1.8l0.2-0.8l1.1-1.2l0.2-0.1l1.6-0.2l3.5,0.7l0.3,0.2l0.3,0.5l0.6,0.8v0.1l-0.3,0.7l-0.1,0.1l-0.4,0l-0.4,0.7l-0.1,1.6l0,2.1
		l0.1,0.6l0.1,0.2l2,1.2l1.8-0.2l0.6,2.2l0.7,1.2l1.7,1.9l0.6,0.3l1.9-0.6l0.4-0.4l0-0.2l0.2-0.8l0.2-0.3l0.2-0.1l1.3-0.3l0.4,0.2
		l0.3,0.2l0.4,0.5l0.6,0.5l0.3,0.2h0.2l12.5-1.7l4.1-1.5L425.6,501L425.6,501z"/>
	<path id="Baden__x26__Württemberg" class="st0" d="M239.9,589.1l1,0.4l0.2,0l4.9,0l1.3-0.2l0.6-0.1l1.2-0.4l0.6-0.3l2.4-3.1
		l-0.1-0.2l-0.6-0.8l0.7-1.1l1.3-1.8l3,0.4l2.3,0.7l1.5-0.3l0.7-0.8l0.2-0.5l-0.5-0.5l0.8-3.3l-0.4-1.7l-1-1.8l-0.9-0.2l-0.4,0.6
		l0.1,0.5l0,1.6l-0.3,0.1l-0.7,0.1l-0.6-0.1l-0.9-1.3l-1.5-2.5l-0.5-1.9V570l0.1-0.2l0.3-0.1l0.4-0.1l2.3-0.3l5.6-0.3l1.2,0.5l0.7-1
		l0.4-0.5l0.2-0.2l1.3-0.1l0.2,0.1l0.2,0.2l0.3,0.3l0.1,0.2l0,0.3l-0.2,0.6l0,0.4l0.1,0.2l0.2,0.4l0.3,0.2l2.6,1.7l0.3,0.1l0.2,0
		l0.1-0.1l4.3-4.1l1.2-0.6l0.1,1l-0.6,6l-0.1,0.3l-0.6,0.3l-0.1,0.1l-0.4,1.4l0.5,0.7l1.4,0.8l0.5-0.1l0.9-0.4l2.7-1.5l4.2-1.4
		l1.1-0.4l1.7,1.7l0.7,0.7l2.4,8.4l0.2,1l1.7,2.7l0.3-0.1l0.5,0l0.3,0.1l0.1,0.3l0.7,2.2l0,0.1l0.2,1.1l-0.2,4.2l0,0.1l-0.2,0.4
		l-0.4,0.4l-0.1,0.7l0.8,0.8l0.2,0.1l1.5,0.4l4.1-0.3l0.4-0.1l2.2-2.4l0.2-0.2l0.5-0.9l-0.6-0.2l-0.7-0.6l-0.2-0.3l0.1-0.1l1.5-1.4
		l0.3-0.1l1.1,0.2l0.7,1.1l0.8,1.8l0.3,1.4l-0.4,0.4l-0.2,0.5l0,0.2l0.1,0.6l1,1.3l0.1,0.1l1.2,3.9l1.1,2.3l0.6,1.7l-0.1,0.2
		l-0.3,0.5l-0.7,0.3l-2.3,0.1l-0.3,0.6l-0.3,3.5l0,0.3l0.1,0.3l2,4.3l0.5,0.9l-1,2.7l-0.2,6.2l0,0.2l0.3,0.3l2.6,1.8l1.5,0.8
		l1.7,0.7l2.1,3.7l1.3,6.7l-0.4,0.2h-0.1l0,0.7l0.2,1l4.2,1.8l6.1,4.5l0.1,0.4l0.7,2l1.3,1.3l0.1,0.1l0.5,0.6l0.4,1.9l-0.1,6.2
		l-0.3,5.1l0,0.1l-1.2,3.1l-0.7,0.3l0.3,3.3l0.2,0l2.5,0.8l0.1,0.9l0.7,2.6l0.6,0.6l0.2,0l0.3,0.6l-0.3,0.4l-1.5,1.6l-2.2,0.7l-1,0
		l0,0l-0.1-0.2l0.1-0.2l0.4-0.3l1-2.2l-0.1-0.3l-0.1-0.2l-0.3-0.3l-1.6,0.1l-4.8,1l-0.6-0.2l-4-1.3l-0.9,2.4l-0.1,0.2l-0.1,1.3
		l0.6,0.8l1.2,1.7l1.3,1.8l1,5.7l0.1,0.6l-0.1,3.9l-1.1,0.6l-0.7,0.1h-0.6l-0.9-0.4l-0.5,0.1l-0.2,0.1l-1.6,0.8l0.2,0.5l0.2,0.6
		l-4.7,4.2l-2.3,0.5l-1.1-1.4l-0.9-0.7l-3.3,1.9l-1.6,0.1l0.3,0.5l0.2,0.7l-0.3,1.7l-1.2,2.2l-0.1,0.2l-1.5,3.5l0.4,2l0.8,1.5
		l2.9,4.5l1,0.9l1.2,8.9l0.1,0.8l0.3,1.8l0.3,0.7v0.5l0.9,2.8l0.2,0.6l0.1,0.1l0.9,0.9l0.8,0.7l0.2,3.4l0.1,3l-0.3,2.4l-0.2,0.7
		l-0.6,0.6l-0.4,0.7l-0.2,1.9l-0.1,1l-0.7,0.1l-0.7,0.2l-0.3,0.2l-0.2,0.2l-0.1,0.2l-0.1,0.5l0,0.6l0.1,0.6l0.2,0.4l0.2,0.3l0.3,0.3
		l0.8,0.5l-0.4,1.4l-0.2,1.8l0,0.3l0,0.4l0.1,3.5l0.5,2.5l0.5,1.1l0.5,0.6l0.4,0.3l0.3,0.8l-1.3,1.2l-1,0l0.1,3.7l2.5,6.2l0,0.6
		l-0.7,2.2l-1.1,1h-0.2l-0.7-0.1l-0.4,0.3l-0.6,0.8l-0.2,0.4L305,788l0.1,0.3l-0.9-3.5l0-0.1l-0.3-0.6l0,0l-2.6-0.5l-1.3,0.2
		l-0.2,0.1l-0.2,0.2l-1.1,1.3l-0.3,0.5l-5.5,0.1l-4.8,0.3l-0.1,0.1l-5.5,5.6l-3.1,0.1l-0.4-0.1l-0.3-0.2l-0.1-0.2l-0.1-0.4l-2.4-0.2
		l-1.2,0.8l-2.7,2h-2.1l-0.8-0.1l-0.3-0.2l-0.3-0.2l-1.4-1.6l-0.8-1.9l-0.1-0.9l-0.4-0.8l-0.7-0.9l-0.6-0.5l-4.9-1.6l-1-0.3l-0.6,0
		l-0.4,0.1l-1.3,0.2l-0.2,0l-0.5,0.3l-0.5,0.2l-0.4,0l-0.3-0.1l-0.9-0.5l-2-1.1l-2.7-1.8l-1-0.9l-0.8-0.8l-0.5-0.9l-0.2-0.5
		l-0.1-0.9l0.1-0.2l0-0.4l-0.1-0.1l-0.6-0.6l-7.6-5l-2.1-1.3l-0.3-0.1l-0.4-0.6l-0.3-0.2l-1.5-0.3l-0.4,0.6l-0.2,0.5l0,0.1l0.1,0.2
		l2.5,2.6l0.8,0.6l0.6,0.4l3.3,2.2l0.1,0l0.5-0.1l0.3,0l1.7,1.4l2.6,5.4l0.4,1.6l-1.6,1l-1.4,0.2l-2.5-1l-2.3-1.2l-0.4-0.2l-0.5-0.1
		l-2.5-0.6l-0.4-0.1l-1.8-0.2l-0.3,0l-0.4,0.1l-1.2,0.5l-1.2,0.6l-0.4,0.3l-0.5,0.5l-0.8,0.5l-1.2,0.6l-2.9,0.8h-0.2l-1.3-0.8
		l-4.6-4l-1,1.8l-0.3,0l-0.6-0.2l-3.8-1.7l-0.1-0.3l-1-3.6l0.2-0.9l0.6-0.7l-1.1-1.9l-1.6-1.4l-2.3-0.7l0.3,1.1l-0.4,0.6l-0.2,0.3
		l-0.9,0.6l-0.3-0.1l-0.6-0.9l-0.3-3.4l-2.8-0.6l-0.8,1.1l-0.4,1.2l-3.2,0.7l-1.5,0.3l-1.1,0.9l-1.2,1.5l-3.2,5.6l-0.5,2l0,0.1
		l0.4,0.7l4,2.9l0.2,0.1l3.9-1.6l-0.1-0.6l0.4-0.3l1.3-0.6l0.6-0.1l2.6-0.2l0.2,0l0.4,0.1l1.5,2l0,0.3l-0.4,0.9l-1.5,3.1l-0.9,0.9
		l-0.6,0.5l-1-0.2l-0.3-0.5l0.2-0.7l0.3-0.1l0.1-0.2l-0.1-0.3l-0.1-0.2l-0.7-0.8l-1.3-0.7l0,0l-1.1-0.3l-3.7,3l1.4,1.7l0.4,0.6
		l0,0.1l-0.6,0.4l-1.5,0.5l-1.8,0.5l-0.5,0.1l-6.7-0.6l-0.4-0.1l-0.1-0.1l-0.3-0.1l-1.6-1.5l-0.2-0.2l-0.1-0.3v-0.4l0.2-0.9l0-0.1
		l-0.2-0.2l-0.6-0.3l-1.9-0.5l-3.2-0.6l-0.5-0.1l-0.3,0.1l-0.2,0.1l-6.2,3.6l-0.3,0.3L168,793l-0.1,0.3l-0.1,0.9l-0.2,0.4l-0.4,0.3
		l-0.3,0.1l-4.6,0.6h-0.2l-4.2-0.9l-3.4-1.4l-1.1-1.6l-0.2-0.1l-0.4-0.2l-0.2,0l-3.5,0.1l-1.4,1.4l-0.2,0.4l-1,1.1l-0.5,0.3l-2.7,1
		l-3.8,1.1l-0.3,0l-0.8-0.1l-0.8-0.3l-0.1-0.1l-1.2-1.3l-0.7-1.1l0.3-0.1l0.5,0.1l2.5-1l0-0.3l-0.2-0.9l-0.4-1l-5.8-1.5l-4.4-5.7
		l-0.2-0.3l-0.2-0.4l-0.1-0.4l-0.4-2.8l0.1-0.4l0.1-0.2l1.6-1.2l0.2-0.3l0.3-0.4l0.2-0.6l0.1-0.7l0-0.3l-0.1-0.5l-1-2.9l-0.1-0.4
		l0.1-0.8l0.1-0.4l0.9-2.2l1.2-2.9l0.2-0.7l0.1-0.5l-0.1-0.6l-0.3-1l-0.1-0.4v-0.7l0.1-0.5l1.8-4.8l1.8-2.5l0.5-0.7l0.5-0.9l0.1-0.5
		l0-0.6l-0.3-1.2l-0.3-0.6l-0.5-0.8l-2.1-2.7l-0.2-0.2l-0.1-0.3l0-0.4l0.2-4.3l0.1-0.4l0.6-3.2l0-0.5l0.1-0.3l1.6-3.4l0.2-0.3
		l2.2-2.9l2.4-3.2l0.2-0.4l0.3-1.1l0.7-2.3l0.7-3.7l0.1-0.3l0.2-0.5l0.4-0.5l0.5-0.4l1.7-0.6l0.5-0.3l0.2-0.2l0.1-0.2l0.2-0.4
		l0.1-0.3l0-0.3l-0.7-3.9l-0.1-0.9v-0.6l0.1-0.7l0.1-0.7l0.2-0.6l2.1-5.2l2.3-4.7l0.3-0.4l0.3-0.7l0.1-0.5l0-0.4l0-3.6l-0.1-0.9
		l-0.2-1.1l0-0.5l0-0.3l0.1-0.4l2.7-5.2l0.1-0.2l0.2-0.2l1.2-0.5l1.5-0.8l0.5-0.4l4.8-5.5l0.7-3.6l0.1-0.3l0.1-0.1l0.5-0.2l0.4,0
		l2.5-0.6l3.5-2.5l0.8-0.7l0.7-0.9l0.4-0.7l0.2-0.5l0.2-0.8l0.3-1.2l0.4-1.3l0.6-1.7l0.4-0.9l0.4-0.9l0.9-1.6l3.4-5.3l0.3-0.3
		l0.3-0.2l2-0.6l0.4-0.2l1.6-1.2l1.1-0.8l0.4-0.4l0.3-0.5l0.3-0.5l0.4-0.9l0.1-0.3l0.1-0.3l0.2-1.4l0.2-0.9l0.5-1.2l0.4-0.7l0.7-1.1
		l1-1.1l0,0l0.7-0.8l0.4-0.7l0.2-0.5l2.4-10.3l-0.2-1.8l-0.2,0h-0.1l0,0l0.1-0.7l0.2-0.6l0.3-0.5l0.4-0.4l0.5-0.4l0.6-0.3l1.4-0.9
		l0.5-0.4l1.8-2l1.4-0.7l0.1-0.2l0.1-0.4l-0.1-0.5l-0.2-0.4l-0.3-0.3l-0.2-0.1l-1-0.3l-0.2-0.1l-0.2-0.2l-0.1-0.4l0-0.4l0-0.2
		l0.1-0.3l0.2-0.3l0.5-0.5l0.4-0.3l0.4-0.3l0.5-0.5l0.6-0.9l0.4-0.8l0.2-0.9l0-0.6l-0.1-0.9l-0.2-2.3l0.8-2.1l0-0.3l-0.1-0.3
		l-0.3-0.4l-0.4-0.2l-0.6-0.1l-1,0l-0.7,0l-0.6-0.1l-0.2-0.1l-0.3-0.2l-0.2-0.2l-0.1-0.2l0-0.4l0.1-0.3l0.2-0.2l0.2-0.2l-0.4-3.2
		l-0.1-0.6l-1.1-4.4l-0.4-0.8l-0.1-0.3l0-0.4l0-0.4l0.1-0.5l0.4-0.7l0.1-1.1l0.2-0.1l1-0.5l0.3-0.1l0.3,0l1,0.1l0.6,0.5l1.5,1.3
		l2,2.6l0.4,1.2l0.6,0.9l0.9,0.7l0.5,0.2l0.3,0.1l0.9,0l1.7-1.4l0.7-1.1l0.1-0.5V591l-0.9-4.1l-0.6,0.1l-0.2-0.4l0-0.8l0.3-0.6
		l1.7-0.5l3.9-1l1,0.2l0.1,0.5l-0.5,1l-0.1,0.1l-0.4-0.2l-0.1-0.2l-0.4,0.2l1.9,7.6l1.5,1l2.3,1l0.5,0.2l6.5,1.3h2.4l-0.2,0.6
		l0.2,1.2l-2.3,2.1l-2.3,0.8L220,605l-0.4,0.9l0.3,0.9l0.6,0.6l0.5,0.1l1.9,0.1l0.1,0l0.3-0.2l6.5-5.9l-0.6-0.8l-0.7-0.7l0.2-0.6
		l0.4-0.7l1.6-1.8l1-0.7l0.2-0.1l5.6-1.8l1.1,0.3l1.5,1.7l0.9-0.2l0.3-0.4l0-0.4l-0.6-1.4l-0.4-0.3l-1.6-0.9l0.5-0.4l0.1-0.2l0.4-1
		l-0.1-0.1L239.9,589.1L239.9,589.1z M210.8,781.8l-0.7-1.9l-0.2-0.2l-2.5,0.1l0.2,2.2l0.6,0.5l2.1-0.2l0.7-0.1L210.8,781.8
		L210.8,781.8z"/>
</g>
</svg>
